<svg width="193" height="55" viewBox="0 0 193 55" fill="none" xmlns="http://www.w3.org/2000/svg">
<g opacity="0.5">
<path d="M38.2706 37.1034C40.0381 38.1954 39.7642 37.3115 40.6156 32.9672C41.1774 30.1221 42.1691 31.2999 48.1094 30.004C49.9701 29.6133 50.3748 28.947 49.2175 27.541C47.3351 25.218 45.4909 22.8754 43.5467 20.5962C40.3389 16.8452 47.3442 14.7603 47.0538 13.2821C46.9622 12.8228 46.5359 12.8613 46.19 12.7981C9.28907 7.41643 10.331 7.54348 7.4839 7.6338C6.21371 7.6724 6.18254 8.71324 6.89386 9.27564C22.7819 21.9957 31.2746 31.6602 38.2706 37.1034ZM34.5971 22.8857C36.248 23.8449 37.852 24.9005 39.5075 25.8452C40.5019 26.4187 40.8798 27.1767 40.7152 28.2862C40.3418 30.8414 39.7519 33.3271 38.965 35.7816C38.7429 36.4746 38.6088 36.4953 38.0523 36.0462C37.3121 35.4746 23.2987 22.3206 11.0786 11.668C9.48508 10.2815 9.46601 10.2913 9.53599 10.1227C9.72335 9.73693 26.7676 18.3536 34.5971 22.8857ZM12.6502 10.7389C14.2654 10.2696 35.6645 16.4771 39.5431 17.6887C41.0637 18.1603 40.7703 18.0821 47.7628 26.9632C47.9573 27.2007 48.3678 27.4597 48.1603 27.7594C48.0378 27.943 47.6133 27.7273 47.3246 27.6348C35.8024 24.2911 29.6701 18.488 12.6502 10.7389ZM45.55 13.8508C42.1964 17.0108 42.1164 17.5584 40.2596 17.0427C8.28869 8.4013 9.62436 9.05241 9.63957 8.707C9.65774 8.20333 12.2303 8.42305 12.749 8.49379C47.1005 13.5836 46.1078 13.1539 45.55 13.8508ZM47.9788 29.0705C48.0197 29.2906 47.7806 29.3413 47.613 29.3672C42.2564 30.1337 41.5267 30.4729 41.4898 29.3466C41.4323 27.6882 41.3607 26.4711 42.3905 26.7853C46.5428 28.0369 47.8804 28.4339 47.9788 29.0705Z" fill="black"/>
<path d="M55.3993 31.3784C64.6545 19.8794 86.3621 5.2954 99.1511 38.9507C115.137 81.0199 56.2407 23.806 107.565 31.3784C158.889 38.9507 160.572 -6.48378 192.545 25.4887" stroke="black" stroke-dasharray="5 6"/>
</g>
</svg>
