<svg width="191" height="74" viewBox="0 0 191 74" fill="none" xmlns="http://www.w3.org/2000/svg">
<g opacity="0.5">
<path d="M190.367 1.06116C190.233 2.05281 187.157 4.45165 172.547 28.8084C171.722 30.1778 171.5 29.4128 167.242 25.144C166.373 24.2752 166.418 24.4924 163.097 26.2018C162.183 26.6646 162.64 27.4673 159.898 18.9675C159.185 16.7386 157.703 15.7564 153.134 11.9315C152.064 11.0343 152.164 10.6943 153.602 10.2977C165.415 7.04882 189.431 0.466168 189.598 0.418947C190.133 0.371725 190.434 0.617278 190.367 1.06116ZM170.909 28.0812C171.5 28.6573 171.99 28.5818 172.402 27.8829C186.823 3.31834 192.607 -0.686033 184.784 5.14108C162.395 21.8669 163.955 20.5352 163.988 21.0547C163.977 21.3474 163.71 21.083 170.909 28.0812ZM153.914 10.751C153.167 11.0249 153.468 11.5065 154.103 12.0637C159.82 17.1353 159.252 16.9464 160.422 16.3136C189.932 0.551167 187.904 1.70337 187.982 1.46726C187.726 1.4106 153.925 10.751 153.914 10.751ZM162.283 23.9541C162.885 24.0013 162.005 21.3947 163.732 20.1102C190.423 0.305616 196.92 -3.08488 161.537 16.4081C160.667 16.8897 160.166 17.2297 160.132 17.8625C160.244 18.2781 162.105 23.9352 162.283 23.9541ZM163.119 25.5501C163.42 25.6729 163.732 25.2763 164.033 25.0968C165.359 24.2846 165.961 23.9635 165.381 23.378C163.821 21.7913 163.453 21.4324 163.32 22.1785C163.286 22.3863 162.729 25.3896 163.119 25.5501Z" fill="black"/>
<path d="M156.591 28.8992C143.899 17.9612 116.433 4.83564 108.105 39.8371C97.6938 83.5889 150.701 33.9475 100.218 28.8992C49.735 23.8509 16.5132 102.941 1.1516 60.8717" stroke="black" stroke-dasharray="5 6"/>
</g>
</svg>
