<svg width="192" height="51" viewBox="0 0 192 51" fill="none" xmlns="http://www.w3.org/2000/svg">
<g opacity="0.5">
<path d="M42.8317 28.2057C45.014 28.7472 44.4397 27.9267 43.8818 23.1683C43.5208 20.0508 44.932 20.9368 50.6256 17.6388C52.4141 16.6214 52.611 15.801 50.9538 14.7345C48.2464 12.9624 45.5719 11.1575 42.8153 9.45103C38.2702 6.64522 44.8007 2.18217 44.0131 0.754651C43.767 0.311628 43.3404 0.492119 42.963 0.541344C3.15651 7.18669 4.27227 6.97338 1.36801 8.0071C0.0717544 8.46654 0.383512 9.54948 1.30238 9.89406C21.8783 17.7536 33.8236 24.9076 42.8317 28.2057ZM34.3486 14.7673C36.3668 15.2103 38.3686 15.7682 40.3869 16.1948C41.6011 16.4574 42.241 17.1137 42.4379 18.3115C42.8973 21.0681 43.1106 23.8247 43.1106 26.6141C43.1106 27.4017 42.9794 27.4673 42.2574 27.1884C41.3057 26.8438 22.5183 17.9177 6.40535 10.977C4.30509 10.0745 4.28868 10.091 4.30509 9.89406C4.37072 9.43462 24.7826 12.6835 34.3486 14.7673ZM7.71801 9.50026C9.22757 8.48294 33.3313 7.81021 37.7287 7.77739C39.4516 7.76098 39.1234 7.77739 49.2637 14.6196C49.5427 14.8001 50.0513 14.9314 49.9365 15.3088C49.8708 15.5385 49.3622 15.4565 49.034 15.4565C36.0551 15.8174 27.8181 11.863 7.71801 9.50026ZM42.6512 1.8376C40.2392 6.2022 40.3376 6.79289 38.2538 6.87493C2.45095 8.53217 4.04256 8.76189 3.94411 8.4009C3.79643 7.87584 6.52021 7.25232 7.07809 7.15387C44.1608 1.05 42.9958 0.935142 42.6512 1.8376ZM50.1826 16.7199C50.2975 16.9332 50.0677 17.0645 49.9037 17.1465C44.6366 19.7062 43.9967 20.2969 43.5865 19.1483C42.9794 17.4583 42.5035 16.2276 43.6685 16.2112C48.3613 16.1292 49.8708 16.0964 50.1826 16.7199Z" fill="black"/>
<path opacity="0.5" d="M191.026 8.8179C172.114 1.09079 131.058 -5.93386 118.133 27.7844C101.976 69.9323 150.153 40.0886 137.802 27.7844C127.921 17.9411 78.8928 17.1267 55.6136 17.95" stroke="black" stroke-dasharray="5 6"/>
</g>
</svg>
