<svg width="174" height="136" viewBox="0 0 174 136" fill="none" xmlns="http://www.w3.org/2000/svg">
<path d="M125.345 123.686L133.105 123.259L133.221 131.735C130.303 131.172 127.488 130.17 124.87 128.763L125.345 123.686Z" fill="#C9BCFF"/>
<path d="M138.198 124.851L136.607 129.89L133.227 131.719L133.11 123.243L138.198 124.851Z" fill="#C9BCFF"/>
<path d="M97.2466 84.3525L113.61 91.3208C113.61 91.3208 98.1098 113.524 102.718 117.423C106.346 120.492 108.863 121.795 113.61 119.196C112.882 120.438 113.175 130.189 111.935 130.421C106.972 127.113 96.777 125.434 92.9105 118.499C86.3825 106.792 97.2466 84.3525 97.2466 84.3525Z" fill="#8875EC"/>
<path d="M118.46 72.7366C120.536 80.402 109.291 95.8226 109.291 95.8226L94.5547 87.5623C94.5547 87.5623 97.3156 81.2213 100.683 74.7679C106.081 64.3416 116.092 63.9937 118.46 72.7366Z" fill="#313C42"/>
<path opacity="0.2" d="M100.402 90.8619L106.204 94.1166L107.226 76.3055C103.848 78.898 101.468 86.7093 100.402 90.8619Z" fill="black"/>
<path d="M108.763 66.9677C108.763 66.9677 102.074 87.4892 108.763 135.008H149.178C149.896 128.072 147.517 99.2231 156.125 66.5413C151.167 65.5723 146.15 64.9312 141.108 64.6221C134.713 64.2515 128.301 64.2515 121.905 64.6221C117.472 65.0723 113.079 65.8564 108.763 66.9677Z" fill="#263238"/>
<path opacity="0.2" d="M107.638 126.058C107.806 128.089 107.997 130.165 108.244 132.298L141.846 121.389C147.094 119.833 146.654 116.536 149.775 112.04C149.91 109.043 150.078 105.89 150.336 102.601C150.449 101.007 150.583 99.3689 150.729 97.7079C150.875 96.0468 151.077 94.2062 151.29 92.433L107.638 126.058Z" fill="black"/>
<path d="M156.416 89.4756L142.782 77.4849C142.782 77.4849 126.768 102.267 122.333 101.962C116.299 101.573 99.9075 102.654 92.738 103.478C91.7874 104.559 90.2566 107.954 90.4258 109.204C100.195 112.363 120.751 114.96 126.1 113.541C138.302 110.299 156.416 89.4756 156.416 89.4756Z" fill="#6656B8"/>
<path d="M96.6785 109.645C95.2689 109.936 94.2575 110.604 91.6218 110.496C87.5994 110.35 87.4553 112.738 83.7549 112.283C81.4224 112.012 80.1833 111.486 79.1124 110.654C78.6165 110.276 77.9206 109.634 77.9313 108.672C77.9413 108.217 78.3033 107.691 78.5199 107.731C78.7529 107.801 78.0178 106.868 78.1679 106.202C78.325 105.512 78.9481 104.963 78.9481 104.963C78.9481 104.963 78.3572 104.226 78.0181 103.412C77.737 102.742 77.9858 101.496 78.576 101.14C78.7276 101.059 79.8654 100.741 80.8349 100.729C81.8045 100.716 83.829 101.25 84.607 101.536C86.5986 102.263 86.4773 102.328 88.1805 102.664C89.9536 103.021 90.3274 102.371 92.7742 102.601C93.7389 102.688 95.7225 103.164 95.7225 103.164C95.7225 103.164 96.0741 104.384 96.3984 107.353C96.7572 110.715 96.3748 107.141 96.6785 109.645Z" fill="#6656B8"/>
<path d="M78.4083 107.596C78.8576 107.96 79.3372 108.308 79.8682 108.57C80.3689 108.848 80.9139 109.063 81.4801 109.208C82.0392 109.377 82.6031 109.445 83.1973 109.497C83.7682 109.542 84.3673 109.494 84.943 109.439C84.6609 109.532 84.3625 109.595 84.0711 109.634C83.7797 109.673 83.472 109.682 83.1877 109.698C82.6027 109.699 81.9922 109.617 81.4261 109.471C80.8437 109.296 80.2986 109.081 79.7887 108.749C79.5302 108.595 79.3021 108.424 79.0577 108.224C78.8365 108.03 78.6154 107.836 78.4083 107.596Z" fill="#3D358E"/>
<path d="M78.7783 104.683C79.4232 105.157 80.1125 105.568 80.8368 105.863C81.5612 106.157 82.337 106.366 83.1409 106.481C82.3344 106.543 81.5143 106.397 80.7433 106.089C79.9956 105.787 79.3041 105.299 78.7783 104.683Z" fill="#3D358E"/>
<path d="M162.542 75.5829C163.936 85.9116 149.782 97.3381 149.782 97.3381L134.473 87.8695C137.375 82.5225 140.556 77.3323 144.005 72.3206C150.88 62.2886 161.129 65.1601 162.542 75.5829Z" fill="#313C42"/>
<path d="M103.717 40.4219C103.583 40.6442 103.212 41.2846 103.212 42.1092C103.154 44.0473 104.846 46.8375 104.846 46.8375L104.14 50.5074C103.992 51.9653 104.461 53.1018 105.191 53.8521C107.051 55.805 110.882 56.423 112.009 56.8301C115.335 58.0456 116.748 57.2737 118.417 58.913C118.746 59.2403 119.983 60.4829 119.82 62.0866C119.69 63.3695 118.741 64.2173 118.622 64.2938C117.403 65.3501 115.926 65.3794 115.926 65.3794C115.926 65.3794 117.314 67.0494 119.011 67.0422C120.819 67.0459 122.308 66.0754 122.308 66.0754C122.308 66.0754 121.997 67.2224 121.433 67.8436C120.467 68.8663 119.545 69.1865 119.545 69.1865C119.545 69.1865 121.76 70.3796 124.015 69.8095C125.87 69.3467 127.24 68.4527 127.24 68.4527C127.24 68.4527 126.986 69.3109 126.293 69.8308C125.601 70.3508 124.775 71.0929 124.775 71.0929C124.775 71.0929 126.121 71.2568 126.892 71.3337C129.651 71.5503 132.079 68.7296 133.185 67.4263C134.321 66.0966 136.343 63.7066 137.061 59.9201C137.815 55.7836 136.955 50.2785 133.541 47.4637C131.207 45.5225 130.301 47.0519 125.619 45.2296C120.241 43.1318 119.681 40.4252 113.825 38.6625C113.231 38.4854 111.014 37.8518 108.251 38.2239C106.753 38.4572 104.693 38.7522 103.717 40.4219Z" fill="#F2F2F2"/>
<path d="M125.492 34.8525C125.574 32.1235 126.006 27.8694 127.721 23.0078C127.945 22.4415 131.188 13.4649 133.498 13.6956C134.901 13.8357 135.386 17.2689 135.677 19.3289C136.228 23.2102 135.482 26.4615 135.334 27.0943C134.564 30.3137 132.925 33.5937 132.102 34.8653C131.935 35.143 131.248 36.1634 130.649 37.6928C130.494 38.1189 130.376 38.4603 130.298 38.6879" fill="#463D99"/>
<path d="M106.038 39.2286C106.557 39.8693 107.673 39.009 109.861 39.3746C111.173 39.594 112.092 40.1274 112.463 40.3116C114.356 41.384 114.203 42.3405 115.94 43.309C116.967 43.8825 117.027 43.5646 119.142 44.3648C121.258 45.1649 121.17 45.48 122.621 45.9782C124.611 46.648 125.001 46.098 127.666 46.688C129.597 47.1163 131.282 48.0501 131.282 48.0501L127.665 48.0718C127.665 48.0718 129.185 48.4297 130.911 49.5148C132.427 50.4613 133.375 52.087 133.375 52.087C133.375 52.087 132.361 51.6619 131.022 51.7049C129.824 51.7325 128.624 52.3195 128.624 52.3195C128.624 52.3195 130.962 53.6718 132.584 56.0422C134.542 58.9467 133.593 63.0922 133.593 63.0922L132.186 61.3322C132.186 61.3322 131.607 64.3073 130.111 66.7197C127.848 70.3808 123.36 71.3166 123.36 71.3166C123.36 71.3166 126.321 71.7301 128.985 70.9654C131.361 70.2898 133.685 68.49 133.685 68.49L131.797 70.6572C131.797 70.6572 134.439 70.0965 136.408 69.0563C137.934 68.2664 137.391 68.6833 139.368 67.2906C141.286 65.9215 136.955 70.4065 138.571 69.2723C139.56 68.5759 147.358 67.7643 147.91 64.5214C148.113 63.3345 148.169 58.6581 148.037 57.7616C147.702 55.3135 147.256 53.6789 147.256 53.6789C147.256 53.6789 148.799 52.449 150.046 50.5711C151.229 48.7753 150.97 46.3937 150.97 46.3937C150.97 46.3937 150.218 48.0559 148.252 49.8915C147.456 50.6071 145.833 51.5345 145.833 51.5345C145.833 51.5345 147.232 49.5247 148.23 47.0919C149.719 43.6482 148.727 36.9827 148.727 36.9827C148.727 36.9827 150.397 31.7607 150.478 26.8513C150.534 24.3834 150.201 21.0817 149.188 20.6567C147.935 20.1194 145.892 21.6233 143.496 24.682C141.204 27.545 139.348 30.216 139.348 30.216C139.348 30.216 138.988 28.8256 137.945 27.0431C137.14 25.667 136.128 24.9476 135.276 24.3031C132.974 22.601 130.208 22.1777 130.208 22.1777C130.208 22.1777 131.214 22.9553 133.272 24.8686C134.339 25.8586 135.531 27.2731 135.531 27.2731C135.531 27.2731 133.134 24.8549 129.498 23.6968C125.834 22.536 122.425 23.5208 122.425 23.5208C122.425 23.5208 123.984 23.4998 126.319 24.0568C128.544 24.6028 130.168 25.5894 130.168 25.5894C130.168 25.5894 127.656 24.308 124.757 24.9314C121.885 25.5575 120.055 27.9661 120.055 27.9661C120.055 27.9661 121.003 27.1185 122.543 26.7422C124.055 26.3631 125.424 26.8531 125.424 26.8531C125.424 26.8531 123.983 26.7976 122.289 27.6002C120.83 28.279 119.914 29.6305 119.914 29.6305C119.914 29.6305 121.182 29.1975 123.254 29.0511C123.618 29.0285 124.799 29.1758 124.799 29.1758C124.799 29.1758 123.299 29.7034 121.78 30.7001C119.544 32.1847 119.781 33.6808 117.838 35.018C116.435 35.9674 115.035 36.0632 113.436 36.198C109.768 36.4502 106.963 36.1407 106.963 36.1407C105.886 36.8872 105.516 38.617 106.038 39.2286Z" fill="#6656B8"/>
<path d="M133.975 33.7576C133.169 33.4707 132.37 33.1255 131.603 32.7247C130.837 32.3238 130.135 31.8409 129.438 31.2997C128.742 30.7584 128.015 30.2436 127.218 29.8692C126.418 29.524 125.585 29.2344 124.734 29.1199L124.731 29.1491C125.537 29.4359 126.342 29.7228 127.109 30.1236C127.878 30.4952 128.611 30.9517 129.31 31.4638C130.01 31.9759 130.77 32.4351 131.539 32.8067C132.333 33.2103 133.136 33.5263 133.975 33.7576Z" fill="#3D358E"/>
<path d="M139.242 30.1356C138.42 31.4071 137.704 32.7187 137.068 34.0677C136.432 35.4166 135.925 36.8667 135.447 38.2905C134.998 39.7169 134.679 41.2154 134.636 42.7413C134.595 44.2381 134.774 45.7569 135.127 47.2047C134.774 45.7569 134.623 44.2409 134.691 42.7468C134.759 41.2528 135.077 39.7543 135.554 38.3306C136.031 36.9069 136.561 35.5178 137.224 34.1716C137.86 32.8226 138.6 31.5429 139.42 30.3005L139.242 30.1356Z" fill="#3D358E"/>
<path d="M148.607 36.9294C147.986 37.839 147.283 38.7404 146.561 39.5516C145.837 40.3919 145.038 41.1366 144.212 41.8785C143.387 42.6204 142.61 43.4261 141.937 44.3011C141.265 45.176 140.638 46.144 140.122 47.1229C140.666 46.1467 141.289 45.2079 141.989 44.3357C142.689 43.4635 143.463 42.6869 144.314 41.9769C145.137 41.2642 145.965 40.4931 146.715 39.6847C147.464 38.8762 148.192 38.0068 148.843 37.0707L148.607 36.9294Z" fill="#3D358E"/>
<path d="M104.789 46.679C105.17 47.0417 105.578 47.4071 106.017 47.746C106.222 47.9141 106.459 48.0558 106.667 48.1947C106.903 48.3363 107.109 48.5044 107.348 48.6168C108.298 49.125 109.288 49.519 110.323 49.7405C111.355 49.9912 112.424 50.1571 113.489 50.0865C114.553 50.0159 115.602 49.8256 116.614 49.4546L116.592 49.3935C115.528 49.4641 114.493 49.5082 113.465 49.494C112.437 49.4797 111.409 49.4654 110.398 49.2759C109.388 49.0863 108.389 48.7799 107.46 48.333C107.221 48.2205 106.982 48.1081 106.773 47.9692C106.534 47.8568 106.326 47.7179 106.09 47.5763C105.645 47.2957 105.231 46.9888 104.823 46.6233L104.789 46.679Z" fill="black"/>
<path d="M137.334 50.4334C137.334 50.4334 138.245 47.1985 140.558 43.8388C142.285 41.3328 144.071 40.1573 145.764 37.7068C148.597 33.6043 148.601 23.1559 148.026 23.0691C146.962 22.8745 142.825 27.7886 139.738 32.7488C137.812 35.853 135.728 40.7955 135.706 44.2959C135.661 47.2053 137.334 50.4334 137.334 50.4334Z" fill="white"/>
<path d="M119.35 41.9415C119.459 42.5121 120.503 42.9109 121.422 43.1794C123.289 43.6899 124.341 43.4708 124.879 43.3772C126.352 43.1119 127.412 42.5402 127.412 42.5402C127.327 42.0015 126.377 41.4943 125.316 39.886C124.64 38.8758 124.359 38.0819 123.498 37.7897C123.312 37.7122 123.122 37.6638 122.923 37.7028C122.192 37.7772 122.051 38.6174 120.917 39.653C120.487 40.0519 120.377 40.0409 120.063 40.3925C119.807 40.7205 119.241 41.3709 119.35 41.9415Z" fill="#F2F2F2"/>
<path d="M122.61 40.7629C121.691 41.8781 120.398 42.279 119.914 41.8479C119.404 41.3849 120.144 40.3989 121.039 39.2519C121.959 38.1367 122.631 37.821 122.993 38.0927C123.612 38.5667 123.506 39.6158 122.61 40.7629Z" fill="#3E386D"/>
<path d="M107.423 35.966C107.146 35.4084 105.165 34.6512 104.749 34.6391C104.333 34.627 104 34.6232 103.646 34.8234C102.843 35.3322 102.777 36.5328 102.726 37.5876C102.668 38.4357 103.07 39.9481 103.276 40.1158C103.481 40.2835 103.634 40.4166 103.714 40.454C103.714 40.454 105.995 40.4462 106.938 39.0976C107.568 38.1004 107.7 36.5237 107.423 35.966Z" fill="#322B55"/>
<path d="M122.683 37.329C122.412 36.713 122.17 35.8055 122.451 35.7747C122.818 35.7229 124.362 37.4967 125.121 38.5147C126.866 40.7796 127.376 42.3323 127.376 42.3323C127.376 42.3323 126.411 40.8814 124.634 39.2023C122.637 37.2361 122.881 37.8493 122.683 37.329Z" fill="black"/>
<path d="M122.683 37.329C122.412 36.713 122.17 35.8055 122.451 35.7747C122.818 35.7229 124.362 37.4967 125.121 38.5147C126.866 40.7796 127.376 42.3323 127.376 42.3323C127.376 42.3323 126.411 40.8814 124.634 39.2023C122.637 37.2361 122.881 37.8493 122.683 37.329Z" stroke="black" stroke-miterlimit="10"/>
<path d="M119.639 41.2584C119.578 41.3111 119.517 41.3638 119.487 41.3902C119.426 41.443 119.368 41.4666 119.337 41.493C119.304 41.5485 119.246 41.5721 119.209 41.6567C119.179 41.6831 119.148 41.7095 119.142 41.7677C119.109 41.8232 119.109 41.8232 119.072 41.9078L119.225 41.776C119.087 41.7622 118.974 41.7803 118.836 41.7666L118.754 41.7583C118.726 41.7556 118.698 41.7528 118.726 41.7556C118.726 41.7556 118.726 41.7556 118.754 41.7583L118.778 41.7902C118.775 41.8193 118.772 41.8484 118.772 41.8484C118.769 41.8776 118.772 41.8484 118.772 41.8484L118.775 41.8193C118.781 41.7611 118.781 41.7611 118.754 41.7583C118.757 41.7292 118.757 41.7292 118.754 41.7583C118.723 41.7847 118.754 41.7583 118.809 41.7638C118.864 41.7693 118.919 41.7748 118.974 41.7803C119.029 41.7858 119.081 41.8205 119.164 41.8287C119.192 41.8315 119.219 41.8342 119.271 41.8688C119.299 41.8716 119.326 41.8743 119.354 41.8771C119.382 41.8798 119.437 41.8854 119.47 41.8299L119.501 41.8035L119.576 41.6051L119.616 41.4914L119.619 41.4622C119.591 41.4595 119.643 41.4941 119.594 41.4304L119.588 41.4886L119.619 41.4622C119.542 41.3957 119.591 41.4595 119.594 41.4304L119.564 41.4567L119.475 41.5067L119.323 41.6386L119.353 41.6122C119.411 41.5886 119.381 41.615 119.356 41.5831C119.328 41.5803 119.301 41.5776 119.273 41.5748C119.218 41.5693 119.138 41.532 119.083 41.5265C119.001 41.5182 118.948 41.4836 118.863 41.5044C118.835 41.5017 118.78 41.4962 118.722 41.5198C118.664 41.5434 118.606 41.5671 118.57 41.6517C118.533 41.7363 118.527 41.7946 118.549 41.8556C118.546 41.8847 118.543 41.9138 118.546 41.8847L118.549 41.8556C118.549 41.8556 118.552 41.8264 118.549 41.8556C118.546 41.8847 118.543 41.9138 118.54 41.9429C118.537 41.9721 118.562 42.0039 118.589 42.0067C118.614 42.0386 118.614 42.0386 118.614 42.0386C118.694 42.0759 118.721 42.0787 118.749 42.0814C118.776 42.0842 118.831 42.0897 118.859 42.0924C118.997 42.1062 119.134 42.12 119.248 42.1018L119.4 41.97C119.397 41.9991 119.403 41.9409 119.431 41.9436C119.434 41.9145 119.464 41.8881 119.492 41.8909L119.647 41.7299C119.579 41.576 119.622 41.4331 119.639 41.2584Z" fill="black"/>
<path d="M121.936 40.2839C121.363 40.9923 120.658 41.3635 120.404 41.132C120.125 40.8686 120.37 40.0981 120.942 39.3898C121.514 38.6814 122.219 38.3102 122.474 38.5417C122.756 38.7759 122.508 39.5756 121.936 40.2839Z" fill="black"/>
<path d="M121.936 40.2839C121.363 40.9923 120.658 41.3635 120.404 41.132C120.125 40.8686 120.37 40.0981 120.942 39.3898C121.514 38.6814 122.219 38.3102 122.474 38.5417C122.756 38.7759 122.508 39.5756 121.936 40.2839Z" stroke="black" stroke-miterlimit="10"/>
<path d="M124.39 32.027C124.228 32.2465 124.236 32.7183 124.55 33.1913C125.032 33.9167 126.487 34.6508 127.542 35.4923C130.329 37.6255 130.877 41.5375 130.877 41.5375C130.877 41.5375 130.813 38.0566 128.85 35.4757C127.238 33.283 124.554 31.7784 124.39 32.027Z" fill="black"/>
<path d="M124.39 32.0271C124.256 32.2493 124.254 32.5435 124.341 32.7877C124.427 33.0319 124.544 33.2497 124.719 33.4438C125.072 33.803 125.458 34.1065 125.875 34.3837C126.678 34.9644 127.545 35.4632 128.22 36.2079C128.899 36.9234 129.452 37.7736 129.859 38.6976C130.266 39.6216 130.584 40.5956 130.762 41.585L131.043 41.5542C130.984 40.4883 130.785 39.4378 130.497 38.4374C130.182 37.4342 129.723 36.4756 129.111 35.649C128.5 34.8224 127.767 34.1014 126.967 33.4915C126.58 33.188 126.166 32.8816 125.747 32.6336C125.538 32.495 125.327 32.3856 125.088 32.2734C124.984 32.2041 124.877 32.164 124.742 32.1211C124.69 32.0864 124.635 32.081 124.552 32.0727C124.503 32.0089 124.451 31.9743 124.39 32.0271ZM124.39 32.0271C124.451 31.9743 124.503 32.0089 124.558 32.0144C124.613 32.0199 124.665 32.0546 124.748 32.0628C124.855 32.1029 124.987 32.175 125.094 32.2151C125.305 32.3246 125.541 32.4659 125.75 32.6045C126.166 32.8816 126.58 33.188 126.967 33.4915C127.736 34.1278 128.439 34.8752 129.023 35.6991C129.604 36.5521 130.011 37.476 130.298 38.4765C130.589 39.4477 130.761 40.4955 130.798 41.5003L131.079 41.4695C130.88 40.419 130.562 39.445 130.127 38.5183C129.665 37.5888 129.085 36.7358 128.376 36.0467C127.643 35.3257 126.773 34.8561 125.966 34.3045C125.55 34.0273 125.133 33.7502 124.807 33.3938C124.633 33.1996 124.485 33.0083 124.426 32.7668C124.257 32.5144 124.256 32.2493 124.39 32.0271Z" fill="black"/>
<path d="M104.178 36.1429C104.209 36.3815 104.241 36.62 104.272 36.8586C104.276 37.0944 104.31 37.3038 104.287 37.5369C104.291 37.7727 104.187 37.9684 104.249 38.1805C104.311 38.3927 104.373 38.6049 104.57 38.8599L104.652 38.8682C104.774 38.7627 104.869 38.6544 104.936 38.5433C105.002 38.4323 105.045 38.2894 105.084 38.1756C105.138 37.9162 105.024 37.6694 104.938 37.4253C104.879 37.184 104.765 36.9372 104.648 36.7195C104.531 36.5018 104.383 36.3106 104.236 36.1193L104.178 36.1429Z" fill="black"/>
<path d="M122.885 37.4934C122.41 37.7991 121.894 38.2186 121.367 38.7547C120.316 39.7978 119.702 40.9139 119.313 41.7288" stroke="black" stroke-miterlimit="10"/>
<path d="M104.207 49.6847C105.056 50.0944 105.972 50.3927 106.924 50.6061C107.852 50.7875 108.817 50.8839 109.793 50.8635C110.738 50.8695 111.718 50.8198 112.656 50.6184C113.595 50.4171 114.518 50.0961 115.374 49.6206L115.352 49.5594C114.416 49.7315 113.48 49.9036 112.55 50.0173C111.62 50.131 110.709 50.3351 109.758 50.3875C108.834 50.4427 107.891 50.4075 106.957 50.2845C106.023 50.1616 105.098 49.951 104.213 49.6262L104.207 49.6847Z" fill="black"/>
<path d="M10.5977 55.1325H9.63599V43.8937H20.8748V44.8554H10.5977V55.1325Z" fill="#7857FF"/>
<path d="M59.0469 93.3015H47.8081V92.3399H58.0852V82.0627H59.0469V93.3015Z" fill="#7857FF"/>
<path d="M20.8748 93.3015H9.63599V82.0627H10.5977V92.3399H20.8748V93.3015Z" fill="#7857FF"/>
<path d="M59.0469 55.1325H58.0852V44.8554H47.8081V43.8937H59.0469V55.1325Z" fill="#7857FF"/>
<path d="M61.5214 95.7796H60.4696V95.4467H61.1886V94.7278H61.5214V95.7796Z" fill="#7857FF"/>
<path d="M59.4733 95.7795H58.1911V95.5391H59.4733V95.7795ZM56.9088 95.7795H55.6266V95.5391H56.9088V95.7795ZM54.3444 95.7795H53.0621V95.5391H54.3444V95.7795ZM51.7799 95.7795H50.4977V95.5391H51.7799V95.7795ZM49.2154 95.7795H47.9332V95.5391H49.2154V95.7795ZM46.6509 95.7795H45.3687V95.5391H46.6509V95.7795ZM44.0865 95.7795H42.8042V95.5391H44.0865V95.7795ZM41.522 95.7795H40.2398V95.5391H41.522V95.7795ZM38.9575 95.7795H37.6753V95.5391H38.9575V95.7795ZM36.393 95.7795H35.1108V95.5391H36.393V95.7795ZM33.8286 95.7795H32.5463V95.5391H33.8286V95.7795ZM31.2641 95.7795H29.9819V95.5391H31.2641V95.7795ZM28.6996 95.7795H27.4174V95.5391H28.6996V95.7795ZM26.1351 95.7795H24.8529V95.5391H26.1351V95.7795ZM23.5707 95.7795H22.2884V95.5391H23.5707V95.7795ZM21.0062 95.7795H19.724V95.5391H21.0062V95.7795ZM18.4417 95.7795H17.1595V95.5391H18.4417V95.7795ZM15.8773 95.7795H14.595V95.5391H15.8773V95.7795ZM13.3128 95.7795H12.0305V95.5391H13.3128V95.7795ZM10.7483 95.7795H9.46606V95.5391H10.7483V95.7795Z" fill="#7857FF"/>
<path d="M7.92086 95.7795H7.16113V95.0198H7.40155V95.5391H7.92086V95.7795Z" fill="#7857FF"/>
<path d="M7.40153 93.7279H7.15149V92.4456H7.39191L7.40153 93.7279ZM7.40153 91.1634H7.15149V89.8811H7.39191L7.40153 91.1634ZM7.40153 88.5989H7.15149V87.3167H7.39191L7.40153 88.5989ZM7.40153 86.0344H7.15149V84.7522H7.39191L7.40153 86.0344ZM7.40153 83.47H7.15149V82.1877H7.39191L7.40153 83.47ZM7.40153 80.9055H7.15149V79.6233H7.39191L7.40153 80.9055ZM7.40153 78.341H7.15149V77.0588H7.39191L7.40153 78.341ZM7.40153 75.7765H7.15149V74.4943H7.39191L7.40153 75.7765ZM7.40153 73.2121H7.15149V71.9298H7.39191L7.40153 73.2121ZM7.40153 70.6476H7.15149V69.3654H7.39191L7.40153 70.6476ZM7.40153 68.0831H7.15149V66.8009H7.39191L7.40153 68.0831ZM7.40153 65.5186H7.15149V64.2364H7.39191L7.40153 65.5186ZM7.40153 62.9542H7.15149V61.6719H7.39191L7.40153 62.9542ZM7.40153 60.3897H7.15149V59.1075H7.39191L7.40153 60.3897ZM7.40153 57.8252H7.15149V56.543H7.39191L7.40153 57.8252ZM7.40153 55.2447H7.15149V53.9625H7.39191L7.40153 55.2447ZM7.40153 52.6802H7.15149V51.398H7.39191L7.40153 52.6802ZM7.40153 50.1158H7.15149V48.8335H7.39191L7.40153 50.1158ZM7.40153 47.5513H7.15149V46.2691H7.39191L7.40153 47.5513ZM7.40153 44.9868H7.15149V43.7046H7.39191L7.40153 44.9868Z" fill="#7857FF"/>
<path d="M7.40143 42.1788H7.16101V41.4191H7.92074V41.6595H7.40143V42.1788Z" fill="#7857FF"/>
<path d="M59.4733 41.6595H58.1911V41.4191H59.4733V41.6595ZM56.9088 41.6595H55.6266V41.4191H56.9088V41.6595ZM54.3444 41.6595H53.0621V41.4191H54.3444V41.6595ZM51.7799 41.6595H50.4977V41.4191H51.7799V41.6595ZM49.2154 41.6595H47.9332V41.4191H49.2154V41.6595ZM46.6509 41.6595H45.3687V41.4191H46.6509V41.6595ZM44.0865 41.6595H42.8042V41.4191H44.0865V41.6595ZM41.522 41.6595H40.2398V41.4191H41.522V41.6595ZM38.9575 41.6595H37.6753V41.4191H38.9575V41.6595ZM36.393 41.6595H35.1108V41.4191H36.393V41.6595ZM33.8286 41.6595H32.5463V41.4191H33.8286V41.6595ZM31.2641 41.6595H29.9819V41.4191H31.2641V41.6595ZM28.6996 41.6595H27.4174V41.4191H28.6996V41.6595ZM26.1351 41.6595H24.8529V41.4191H26.1351V41.6595ZM23.5707 41.6595H22.2884V41.4191H23.5707V41.6595ZM21.0062 41.6595H19.724V41.4191H21.0062V41.6595ZM18.4417 41.6595H17.1595V41.4191H18.4417V41.6595ZM15.8773 41.6595H14.595V41.4191H15.8773V41.6595ZM13.3128 41.6595H12.0305V41.4191H13.3128V41.6595ZM10.7483 41.6595H9.46606V41.4191H10.7483V41.6595Z" fill="#7857FF"/>
<path d="M61.5217 42.1788H61.2813V41.6595H60.762V41.4191H61.5217V42.1788Z" fill="#7857FF"/>
<path d="M61.5215 93.7279H61.2811V92.4456H61.5215V93.7279ZM61.5215 91.1634H61.2811V89.8811H61.5215V91.1634ZM61.5215 88.5989H61.2811V87.3167H61.5215V88.5989ZM61.5215 86.0344H61.2811V84.7522H61.5215V86.0344ZM61.5215 83.47H61.2811V82.1877H61.5215V83.47ZM61.5215 80.9055H61.2811V79.6233H61.5215V80.9055ZM61.5215 78.341H61.2811V77.0588H61.5215V78.341ZM61.5215 75.7765H61.2811V74.4943H61.5215V75.7765ZM61.5215 73.2121H61.2811V71.9298H61.5215V73.2121ZM61.5215 70.6476H61.2811V69.3654H61.5215V70.6476ZM61.5215 68.0831H61.2811V66.8009H61.5215V68.0831ZM61.5215 65.5186H61.2811V64.2364H61.5215V65.5186ZM61.5215 62.9542H61.2811V61.6719H61.5215V62.9542ZM61.5215 60.3897H61.2811V59.1075H61.5215V60.3897ZM61.5215 57.8252H61.2811V56.543H61.5215V57.8252ZM61.5215 55.2447H61.2811V53.9625H61.5215V55.2447ZM61.5215 52.6802H61.2811V51.398H61.5215V52.6802ZM61.5215 50.1158H61.2811V48.8335H61.5215V50.1158ZM61.5215 47.5513H61.2811V46.2691H61.5215V47.5513ZM61.5215 44.9868H61.2811V43.7046H61.5215V44.9868Z" fill="#7857FF"/>
<path d="M62.2408 115.357C62.2408 115.357 61.3786 122.258 59.9607 123.813C58.2595 125.675 57.0241 125.403 56.3381 126.363C55.6501 125.401 54.4168 125.675 52.7135 123.811C51.2976 122.258 50.4376 115.357 50.4376 115.357C54.1713 113.545 56.3402 111.512 56.3402 111.512C56.4053 111.577 58.5637 113.572 62.2408 115.357Z" fill="#7857FF"/>
<path opacity="0.2" d="M56.3381 111.515V126.363C55.6501 125.401 54.4168 125.675 52.7135 123.811C51.2976 122.258 50.4376 115.357 50.4376 115.357C54.1713 113.545 56.3402 111.512 56.3402 111.512L56.3381 111.515Z" fill="black"/>
<path opacity="0.1" d="M62.2408 115.357C62.2408 115.357 61.3787 122.258 59.9607 123.813C58.2595 125.675 57.0241 125.403 56.3382 126.363V111.514C56.4053 111.577 58.5637 113.572 62.2408 115.357Z" fill="black"/>
<path d="M61.3241 115.913C61.3241 115.913 60.5962 121.744 59.3985 123.055C57.9617 124.633 56.9171 124.4 56.3381 125.212C55.7571 124.4 54.7146 124.633 53.2756 123.055C52.0779 121.744 51.3522 115.913 51.3522 115.913C54.4985 114.382 56.3381 112.666 56.3381 112.666C56.3381 112.666 58.1693 114.386 61.3241 115.913Z" fill="#7857FF"/>
<path opacity="0.1" d="M56.3381 112.668V125.212C55.7592 124.4 54.7146 124.631 53.2778 123.056C52.08 121.742 51.3543 115.911 51.3543 115.911C54.5006 114.38 56.3381 112.664 56.3381 112.664V112.668Z" fill="black"/>
<path d="M58.572 117.828H54.1042V121.881H58.572V117.828Z" fill="white"/>
<path d="M58.1254 119.081H57.6702V117.27C57.6702 116.917 57.5299 116.578 57.2801 116.329C57.0303 116.079 56.6915 115.938 56.3382 115.938C55.985 115.938 55.6462 116.079 55.3964 116.329C55.1466 116.578 55.0062 116.917 55.0062 117.27V119.081H54.5511V117.27C54.5343 117.026 54.568 116.781 54.65 116.55C54.732 116.319 54.8606 116.107 55.0278 115.928C55.195 115.749 55.3972 115.606 55.6219 115.509C55.8466 115.411 56.089 115.361 56.334 115.361C56.579 115.361 56.8214 115.411 57.0461 115.509C57.2708 115.606 57.4731 115.749 57.6403 115.928C57.8075 116.107 57.9361 116.319 58.0181 116.55C58.1001 116.781 58.1338 117.026 58.117 117.27L58.1254 119.081Z" fill="white"/>
<path d="M56.4787 119.924L56.6235 120.608H56.011L56.1557 119.924C56.0992 119.889 56.0556 119.836 56.0316 119.774C56.0076 119.712 56.0045 119.644 56.0227 119.58C56.041 119.516 56.0796 119.459 56.1327 119.419C56.1859 119.379 56.2507 119.357 56.3172 119.357C56.3838 119.357 56.4486 119.379 56.5017 119.419C56.5549 119.459 56.5935 119.516 56.6117 119.58C56.63 119.644 56.6269 119.712 56.6029 119.774C56.5789 119.836 56.5353 119.889 56.4787 119.924V119.924Z" fill="#37474F"/>
<path d="M39.0714 41.1335H39.3865V39.3584H39.0537L39.0714 41.1335ZM39.0714 37.5832H39.3865V35.808H39.0537L39.0714 37.5832ZM39.0714 34.0328H39.3865V32.2576H39.0537L39.0714 34.0328ZM39.0714 30.4824H39.3865V28.7072H39.0537L39.0714 30.4824ZM39.0714 26.932H39.3865V25.1568H39.0537L39.0714 26.932ZM39.0714 23.3816H39.3865V21.6064H39.0537L39.0714 23.3816ZM39.0714 19.8312H39.3865V18.056H39.0537L39.0714 19.8312ZM39.0714 16.2808H39.3865V14.5057H39.0537L39.0714 16.2808ZM40.7179 14.3858H42.4931V14.053H40.7179V14.3858ZM44.2683 14.3858H46.0435V14.053H44.2683V14.3858ZM47.8187 14.3858H49.5939V14.053H47.8187V14.3858ZM51.3691 14.3858H52.1368V14.053H51.3691V14.3858Z" fill="#7857FF"/>
<path d="M74.2929 29.6663H51.5216V0.43335H68.4303L74.2929 6.00745V29.6663Z" fill="#EBEBEB"/>
<path d="M68.4305 0.43335L74.2931 6.00745H68.4305V0.43335Z" fill="#DBDBDB"/>
<path d="M53.7454 6.08734L66.407 6.08734V5.33732L53.7454 5.33732V6.08734Z" fill="#DBDBDB"/>
<path d="M53.7454 7.98242L66.407 7.98242V7.2324L53.7454 7.2324V7.98242Z" fill="#DBDBDB"/>
<path d="M53.7454 9.88177L66.407 9.88177V9.13176L53.7454 9.13176V9.88177Z" fill="#DBDBDB"/>
<path d="M53.7453 11.777L72.2961 11.777V11.027L53.7453 11.027V11.777Z" fill="#DBDBDB"/>
<path d="M53.7453 13.6719L72.2961 13.6719V12.9219L53.7453 12.9219V13.6719Z" fill="#DBDBDB"/>
<path d="M53.7453 15.5668L72.2961 15.5668V14.8168L53.7453 14.8168V15.5668Z" fill="#DBDBDB"/>
<path d="M53.7453 17.4618L72.2961 17.4618V16.7118L53.7453 16.7118V17.4618Z" fill="#DBDBDB"/>
<path d="M53.7453 19.3525L72.2961 19.3525V18.6025L53.7453 18.6025V19.3525Z" fill="#DBDBDB"/>
<path d="M53.7453 21.2474L72.2961 21.2474V20.4974L53.7453 20.4974V21.2474Z" fill="#DBDBDB"/>
<path d="M53.7453 23.1425L72.2961 23.1425V22.3925L53.7453 22.3925V23.1425Z" fill="#DBDBDB"/>
<path d="M53.7453 25.0375L72.2961 25.0375V24.2875L53.7453 24.2875V25.0375Z" fill="#DBDBDB"/>
<path d="M53.7453 26.9324L72.2961 26.9324V26.1824L53.7453 26.1824V26.9324Z" fill="#DBDBDB"/>
<path d="M75.8318 32.3271C77.8679 31.4783 78.8304 29.1397 77.9816 27.1036C77.1328 25.0675 74.7942 24.105 72.7581 24.9538C70.722 25.8026 69.7595 28.1412 70.6083 30.1773C71.4571 32.2134 73.7957 33.1759 75.8318 32.3271Z" fill="#263238"/>
<path d="M76.2724 27.6338H72.3137V31.2286H76.2724V27.6338Z" fill="white"/>
<path d="M75.8775 28.7387H75.4736V27.1365C75.4736 26.8235 75.3493 26.5232 75.1279 26.3018C74.9065 26.0804 74.6062 25.956 74.2931 25.956C73.98 25.956 73.6798 26.0804 73.4584 26.3018C73.237 26.5232 73.1126 26.8235 73.1126 27.1365V28.7387H72.7177V27.1365C72.7177 26.7163 72.8846 26.3134 73.1817 26.0162C73.4788 25.7191 73.8818 25.5522 74.302 25.5522C74.7222 25.5522 75.1252 25.7191 75.4223 26.0162C75.7194 26.3134 75.8864 26.7163 75.8864 27.1365L75.8775 28.7387Z" fill="white"/>
<path d="M74.4617 29.471L74.6259 30.261H73.9247L74.0889 29.471C74.0245 29.4306 73.9749 29.3703 73.9478 29.2992C73.9206 29.2282 73.9173 29.1502 73.9384 29.0771C73.9594 29.004 74.0037 28.9397 74.0644 28.894C74.1252 28.8482 74.1992 28.8235 74.2753 28.8235C74.3514 28.8235 74.4254 28.8482 74.4861 28.894C74.5469 28.9397 74.5912 29.004 74.6122 29.0771C74.6332 29.1502 74.6299 29.2282 74.6028 29.2992C74.5756 29.3703 74.5261 29.4306 74.4617 29.471Z" fill="#263238"/>
<path d="M47.9415 119.852H46.8986V119.537H47.9415V119.852ZM45.1234 119.852H43.3482V119.537H45.1234V119.852ZM41.573 119.852H39.7978V119.537H41.573V119.852ZM38.0226 119.852H36.2474V119.537H38.0226V119.852ZM35.1823 119.142H34.8672V117.367H35.2L35.1823 119.142ZM35.1823 115.592H34.8672V113.816H35.2L35.1823 115.592ZM35.1823 112.041H34.8672V110.266H35.2L35.1823 112.041ZM35.1823 108.491H34.8672V106.716H35.2L35.1823 108.491ZM35.1823 104.94H34.8672V103.165H35.2L35.1823 104.94ZM35.1823 101.39H34.8672V99.6148H35.2L35.1823 101.39ZM35.1823 97.8396H34.8672V96.0645H35.2L35.1823 97.8396Z" fill="#7857FF"/>
<path d="M47.9015 120.438C48.3157 120.438 48.6515 120.102 48.6515 119.688C48.6515 119.274 48.3157 118.938 47.9015 118.938C47.4873 118.938 47.1515 119.274 47.1515 119.688C47.1515 120.102 47.4873 120.438 47.9015 120.438Z" fill="#7857FF"/>
<path d="M47.0903 55.2266L46.8761 55.0209C46.6848 54.839 46.4291 54.7405 46.1653 54.7468C45.9014 54.7531 45.6508 54.8638 45.4684 55.0547L27.07 74.3306L28.7257 75.9103L47.1241 56.6343C47.2144 56.5397 47.2851 56.4282 47.3323 56.3063C47.3795 56.1843 47.4021 56.0542 47.399 55.9235C47.3959 55.7927 47.367 55.6639 47.314 55.5443C47.261 55.4247 47.185 55.3168 47.0903 55.2266Z" fill="#4D37A8"/>
<path d="M29.5444 83.8678C30.0152 83.3745 30.3843 82.7933 30.6305 82.1573C30.8767 81.5214 30.9951 80.8431 30.9791 80.1614C30.9631 79.4796 30.8129 78.8077 30.5371 78.184C30.2613 77.5603 29.8653 76.9971 29.3717 76.5265L26.4354 73.7243C25.945 73.2382 25.3626 72.8547 24.7223 72.5964C24.0819 72.338 23.3965 72.2099 22.706 72.2197C22.0156 72.2294 21.334 72.3768 20.7012 72.6531C20.0684 72.9294 19.4971 73.3291 19.0206 73.8289C18.5441 74.3287 18.1721 74.9185 17.9264 75.5638C17.6806 76.2091 17.566 76.8969 17.5892 77.587C17.6125 78.2771 17.7731 78.9557 18.0617 79.583C18.3504 80.2103 18.7612 80.7737 19.2702 81.2403L22.2083 84.0435C23.2047 84.9924 24.5371 85.507 25.9127 85.4741C27.2883 85.4411 28.5945 84.8634 29.5444 83.8678V83.8678ZM28.3817 82.758C27.0844 84.1196 25.0861 84.319 23.9175 83.2034C23.0441 82.3685 22.882 81.0367 23.3961 79.8538C22.2335 80.4255 20.8946 80.3278 20.0211 79.4929C18.8532 78.38 18.9546 76.3726 20.2519 75.011C21.5493 73.6494 23.5518 73.4548 24.7267 74.5717C25.6012 75.4049 25.7615 76.7356 25.2481 77.9213C26.4117 77.3479 27.7496 77.4473 28.6241 78.2805C29.7857 79.392 29.6798 81.3992 28.3817 82.758Z" fill="#4D37A8"/>
<path d="M43.3223 61.9808L43.8727 61.4051L45.5448 63.0013L46.0138 62.5099L45.1421 61.676L45.6905 61.1039L46.5625 61.9332L46.978 61.4978L45.6002 60.184L46.1489 59.6073L47.5285 60.9221L48.1179 60.3033L46.2763 58.5459L46.8267 57.9702L48.6684 59.7276L49.2257 59.1442L46.8721 56.8965L41.9637 62.043L44.3166 64.2879L44.9961 63.578L43.3223 61.9808Z" fill="#4D37A8"/>
<rect x="0.739792" y="134.476" width="172.52" height="1.43465" rx="0.717327" fill="#263238"/>
</svg>
