<svg width="174" height="163" viewBox="0 0 174 163" fill="none" xmlns="http://www.w3.org/2000/svg">
<path d="M97.6291 0.929208C97.6291 0.929208 70.4836 -4.97906 46.8296 13.0008C23.1756 30.9807 14.0352 61.8266 5.98605 86.6347C-2.06308 111.443 7.31991 134.419 28.1807 142.77C49.0416 151.12 60.2393 133.437 87.46 129.155C114.681 124.873 122.529 127.838 143.227 109.503C163.925 91.1673 163.368 54.204 142.044 29.5298C120.719 4.85551 97.6291 0.929208 97.6291 0.929208Z" fill="#7857FF"/>
<path opacity="0.95" d="M97.6291 0.929208C97.6291 0.929208 70.4836 -4.97906 46.8296 13.0008C23.1756 30.9807 14.0352 61.8266 5.98605 86.6347C-2.06308 111.443 7.31991 134.419 28.1807 142.77C49.0416 151.12 60.2393 133.437 87.46 129.155C114.681 124.873 122.529 127.838 143.227 109.503C163.925 91.1673 163.368 54.204 142.044 29.5298C120.719 4.85551 97.6291 0.929208 97.6291 0.929208Z" fill="white"/>
<path d="M148.52 38.3984C148.382 38.1726 148.24 37.9426 148.102 37.721L63.5635 3.93555C60.5981 4.99564 57.7173 6.27881 54.9457 7.77404L148.52 38.3984Z" fill="white"/>
<path d="M149.691 40.3805L149.457 39.9623L33.4785 26.1638C31.5425 28.5932 29.7445 31.1229 28.0427 33.7321L149.691 40.3805Z" fill="white"/>
<path d="M151.535 43.876L26.7213 142.163C27.2022 142.381 27.6872 142.581 28.1806 142.782C31.6897 144.246 35.4548 144.998 39.2571 144.994L151.686 44.177L151.535 43.876Z" fill="white"/>
<path d="M145.849 34.3635C145.343 33.6568 144.816 32.9585 144.28 32.2728L105.469 3.24992C102.927 2.25379 100.304 1.4774 97.629 0.929262C97.629 0.929262 96.2032 0.61984 93.7278 0.360596L145.849 34.3635Z" fill="white"/>
<path d="M150.461 41.777C150.406 41.6724 150.348 41.5679 150.289 41.4634L14.7083 61.0447C13.4288 64.3898 12.2287 67.7642 11.0956 71.08L150.461 41.777Z" fill="white"/>
<path d="M153.275 47.6977C153.187 47.4928 153.103 47.2796 153.015 47.0789L122.659 123.046C125.107 122.106 127.473 120.965 129.734 119.634L153.275 47.6977Z" fill="white"/>
<path d="M154.947 52.1175C154.772 51.5948 154.588 51.0764 154.395 50.5579L147.973 104.531C149.669 102.417 151.164 100.149 152.438 97.7571L154.947 52.1175Z" fill="white"/>
<path d="M151.088 42.9728L150.937 42.6885L3.16357 106.078C3.29941 109.801 3.88917 113.494 4.91975 117.075L151.088 42.9728Z" fill="white"/>
<path d="M152.363 45.6112C152.305 45.4816 152.242 45.352 152.183 45.2266L89.6886 128.816C93.0337 128.314 96.0777 127.921 98.8876 127.562L152.363 45.6112Z" fill="white"/>
<path d="M25.743 140.559H10.6901V162.234H25.743V140.559Z" fill="#263238"/>
<path opacity="0.17" d="M25.743 137.419H10.6901V162.234H25.743V137.419Z" fill="white"/>
<path opacity="0.2" d="M25.743 151.754C20.513 152.87 15.462 154.461 10.6901 156.497V162.234H25.743V151.754Z" fill="black"/>
<path d="M48.3223 135.224H33.2694V162.234H48.3223V135.224Z" fill="#7857FF"/>
<path opacity="0.2" d="M47.5906 149.509C42.7923 149.503 38.0019 149.817 33.2694 150.447V162.234H48.3223V149.509H47.5906Z" fill="black"/>
<path d="M70.9017 133.203H55.8488V162.234H70.9017V133.203Z" fill="#263238"/>
<path opacity="0.17" d="M70.9017 128.998H55.8488V162.234H70.9017V128.998Z" fill="white"/>
<path opacity="0.2" d="M70.9017 150.593C66.3231 150.221 61.3974 149.855 55.8488 149.659V162.234H70.9017V150.593Z" fill="black"/>
<path d="M93.481 123.046H78.4281V162.234H93.481V123.046Z" fill="#7857FF"/>
<path opacity="0.2" d="M93.481 151.707C88.4548 151.809 83.4256 151.64 78.4281 151.202V162.234H93.481V151.707Z" fill="black"/>
<path d="M116.06 105.137H101.008V162.234H116.06V105.137Z" fill="#263238"/>
<path opacity="0.17" d="M116.06 105.137H101.008V162.234H116.06V105.137Z" fill="white"/>
<path opacity="0.2" d="M116.06 148.072C111.184 149.493 106.141 150.525 101.008 151.152V162.234H116.06V148.072Z" fill="black"/>
<path d="M162.892 113.153H147.839V162.234H162.892V113.153Z" fill="#263238"/>
<path opacity="0.17" d="M162.892 106.045H147.839V162.234H162.892V106.045Z" fill="white"/>
<path opacity="0.2" d="M162.892 135.224C158.014 136.644 152.972 137.675 147.839 138.304V162.234H162.892V135.224Z" fill="black"/>
<path d="M138.64 91.0376H123.587V162.234H138.64V91.0376Z" fill="#7857FF"/>
<path opacity="0.2" d="M123.587 145.797V162.234H138.64V140.922C133.827 142.538 128.747 144.194 123.587 145.797Z" fill="black"/>
<path d="M172.927 162.443H1.07284C1.01739 162.443 0.964212 162.421 0.925004 162.382C0.885796 162.342 0.86377 162.289 0.86377 162.234C0.86377 162.178 0.885796 162.125 0.925004 162.086C0.964212 162.047 1.01739 162.025 1.07284 162.025H172.927C172.982 162.025 173.036 162.047 173.075 162.086C173.114 162.125 173.136 162.178 173.136 162.234C173.136 162.289 173.114 162.342 173.075 162.382C173.036 162.421 172.982 162.443 172.927 162.443Z" fill="#263238"/>
<path d="M47.6255 55.2021L55.6402 67.1644L71.42 65.6821V68.8859C71.42 68.8859 56.4984 73.9465 54.6468 74.4354C52.7953 74.9243 43.6728 68.6415 43.6728 68.6415C43.6728 68.6415 42.5702 59.6386 47.6255 55.2021Z" fill="white"/>
<path d="M54.4388 74.7214C52.1139 74.7214 44.4321 69.4788 43.5167 68.8547C43.486 68.834 43.46 68.8071 43.4402 68.7758C43.4205 68.7444 43.4076 68.7093 43.4023 68.6727C43.3607 68.2982 42.3621 59.4825 47.4383 55.0045C47.4657 54.9798 47.4983 54.9614 47.5336 54.9505C47.5689 54.9396 47.6061 54.9366 47.6427 54.9415C47.6793 54.9465 47.7144 54.9593 47.7456 54.9792C47.7767 54.999 47.8032 55.0254 47.8231 55.0565L55.7546 66.8887L71.42 65.4221C71.4566 65.4189 71.4935 65.4233 71.5284 65.435C71.5632 65.4466 71.5954 65.4652 71.6228 65.4897C71.649 65.5144 71.6699 65.5442 71.6842 65.5773C71.6985 65.6104 71.706 65.6461 71.706 65.6821V68.8859C71.7059 68.9407 71.6889 68.9941 71.6572 69.0388C71.6256 69.0835 71.5808 69.1173 71.5292 69.1356C70.9207 69.3436 56.5764 74.2013 54.7404 74.6902C54.6417 74.7138 54.5403 74.7242 54.4388 74.7214ZM43.9224 68.4802C47.5631 70.9767 53.3258 74.503 54.5844 74.1701C56.2955 73.7124 69.4748 69.2552 71.1651 68.6883V65.9525L55.6662 67.4036C55.6188 67.4093 55.5708 67.4017 55.5276 67.3814C55.4844 67.3612 55.4477 67.3292 55.4218 67.2892L47.5735 55.5818C43.2255 59.6854 43.8236 67.4608 43.9224 68.4958V68.4802Z" fill="#263238"/>
<path d="M71.0832 65.5196C71.7924 65.3732 72.3012 65.0371 73.6272 65.0918C75.6508 65.1651 75.7234 63.9635 77.585 64.1925C78.7585 64.329 79.3819 64.5937 79.9206 65.0119C80.1701 65.2022 80.5202 65.5252 80.5148 66.0094C80.5098 66.238 80.3277 66.5028 80.2187 66.4827C80.1015 66.4473 80.4713 66.9169 80.3958 67.2521C80.3167 67.599 80.0033 67.8753 80.0033 67.8753C80.0033 67.8753 80.3006 68.2462 80.4712 68.6557C80.6126 68.9924 80.4874 69.6195 80.1905 69.7985C80.1142 69.8394 79.5418 69.9992 79.054 70.0056C78.5663 70.0119 77.5477 69.7431 77.1563 69.5995C76.1543 69.2334 76.2154 69.2007 75.3585 69.0318C74.4665 68.8523 74.2784 69.1791 73.0474 69.0636C72.5621 69.0196 71.5642 68.7803 71.5642 68.7803C71.5642 68.7803 71.3873 68.1666 71.2241 66.6726C71.0436 64.9816 71.236 66.7796 71.0832 65.5196Z" fill="#6656B8"/>
<path d="M80.2748 66.5508C80.0488 66.3676 79.8075 66.1925 79.5403 66.0608C79.2885 65.9209 79.0142 65.8127 78.7294 65.7395C78.4481 65.6547 78.1645 65.6203 77.8655 65.5941C77.5783 65.5714 77.2769 65.5956 76.9872 65.6233C77.1292 65.5766 77.2793 65.5452 77.4259 65.5255C77.5725 65.5057 77.7273 65.5013 77.8703 65.4933C78.1646 65.4925 78.4718 65.534 78.7566 65.6071C79.0496 65.6955 79.3238 65.8037 79.5803 65.9706C79.7104 66.0482 79.8252 66.1339 79.9481 66.2349C80.0594 66.3324 80.1706 66.4299 80.2748 66.5508Z" fill="#3D358E"/>
<path d="M80.0888 68.0162C79.7643 67.7777 79.4176 67.5708 79.0531 67.4226C78.6887 67.2743 78.2984 67.1694 77.8939 67.1114C78.2997 67.0803 78.7123 67.1536 79.1002 67.3089C79.4763 67.4607 79.8242 67.7063 80.0888 68.0162Z" fill="#3D358E"/>
<path d="M61.9856 67.6948C62.6669 66.6078 53.9813 70.8154 53.5756 70.6802C53.1699 70.545 54.2517 68.7766 53.5756 67.9653C52.8995 67.1539 51.8125 69.8636 51.1311 67.9653C50.5425 66.4975 49.8164 65.0887 48.9623 63.7577L45.3997 58.0366C42.9448 62.6499 43.6781 68.6206 43.6781 68.6206C43.6781 68.6206 52.8059 74.9086 54.6522 74.4145C55.9472 74.0712 63.6447 71.4915 68.1747 69.9729C64.7889 70.3265 59.1042 70.8882 58.3501 70.7946C57.2371 70.6802 61.3095 68.7766 61.9856 67.6948Z" fill="#7857FF"/>
<path opacity="0.5" d="M61.9856 67.6948C62.6669 66.6078 53.9813 70.8154 53.5756 70.6802C53.1699 70.545 54.2517 68.7766 53.5756 67.9653C52.8995 67.1539 51.8125 69.8636 51.1311 67.9653C50.5425 66.4975 49.8164 65.0887 48.9623 63.7577L45.3997 58.0366C42.9448 62.6499 43.6781 68.6206 43.6781 68.6206C43.6781 68.6206 52.8059 74.9086 54.6522 74.4145C55.9472 74.0712 63.6447 71.4915 68.1747 69.9729C64.7889 70.3265 59.1042 70.8882 58.3501 70.7946C57.2371 70.6802 61.3095 68.7766 61.9856 67.6948Z" fill="white"/>
<path d="M69.5736 69.3957C69.5103 69.396 69.4491 69.3728 69.402 69.3304C69.3549 69.2881 69.3252 69.2298 69.3188 69.1668L68.9443 65.9578C68.9367 65.8889 68.9568 65.8197 69.0003 65.7656C69.0437 65.7114 69.1068 65.6768 69.1758 65.6692C69.2447 65.6616 69.3139 65.6817 69.368 65.7251C69.4222 65.7685 69.4568 65.8316 69.4644 65.9006L69.8337 69.1044C69.8411 69.1732 69.8213 69.2422 69.7785 69.2966C69.7358 69.351 69.6734 69.3866 69.6048 69.3957H69.5736Z" fill="#263238"/>
<path d="M25.3602 83.0846L25.7502 105.059L12.8778 128.853L15.2182 130.413C15.2182 130.413 33.5517 110.52 34.2018 108.699C34.8519 106.879 38.6226 90.496 38.6226 90.496C38.6226 90.496 39.9229 85.165 37.7125 82.3044C35.5021 79.4439 28.0907 77.2335 25.3602 83.0846Z" fill="#263238"/>
<path d="M15.2183 130.674C15.167 130.672 15.1168 130.658 15.0727 130.632L12.7323 129.072C12.6795 129.034 12.6422 128.978 12.6269 128.915C12.6116 128.852 12.6195 128.786 12.649 128.728L25.4903 104.996L25.1002 83.0898C25.0923 83.0521 25.0923 83.0131 25.1002 82.9754C25.5395 81.9376 26.2515 81.0381 27.1608 80.3723C28.0701 79.7066 29.1427 79.2995 30.2648 79.1943C33.3489 78.851 36.5683 80.4269 37.8946 82.1432C40.157 85.0714 38.9088 90.3348 38.8516 90.5584C38.7007 91.2241 35.0705 106.973 34.4255 108.788C33.7806 110.603 16.1389 129.774 15.39 130.59C15.3453 130.639 15.284 130.669 15.2183 130.674V130.674ZM13.2159 128.77L15.1767 130.075C20.3777 124.432 33.4425 110.052 33.9574 108.611C34.592 106.827 38.3315 90.6 38.3679 90.4388C38.3679 90.3816 39.6109 85.191 37.5045 82.4657C36.2927 80.9054 33.2085 79.3919 30.3428 79.7092C29.3199 79.8046 28.3417 80.1737 27.5107 80.7777C26.6797 81.3817 26.0267 82.1983 25.6203 83.1418L26.0104 105.054C26.0106 105.099 25.9999 105.143 25.9791 105.184L13.2159 128.77Z" fill="#263238"/>
<path opacity="0.2" d="M33.5206 106.473C32.7405 107.061 22.9887 120.542 18.339 127.007C23.5972 121.239 33.7183 110.041 34.202 108.699C34.8521 106.879 38.6228 90.4959 38.6228 90.4959C38.6228 90.4959 38.6956 90.1891 38.7788 89.6846C37.8427 85.8411 33.3906 81.7791 32.4908 83.0585L31.2062 92.7063C31.2062 92.7063 31.2062 100.555 31.461 101.33C31.7159 102.105 34.1656 100.43 33.5414 101.33C32.9173 102.229 28.7825 105.958 29.8123 105.958C30.8421 105.958 34.5504 105.704 33.5206 106.473Z" fill="white"/>
<path d="M15.2184 130.413C15.2184 130.413 15.3484 134.314 15.6084 134.964C15.8685 135.614 16.9087 138.605 17.2988 139.255C17.6888 139.905 17.1687 140.295 16.5186 140.295C15.8685 140.295 14.3082 140.295 13.6581 139.645C13.008 138.995 11.9678 136.785 11.0576 135.744C10.1474 134.704 7.67696 133.404 8.4571 132.104C9.23725 130.804 12.8779 128.853 12.8779 128.853L15.2184 130.413Z" fill="white"/>
<path d="M16.5186 140.556C15.8217 140.556 14.1989 140.556 13.4708 139.827C13.01 139.267 12.6059 138.663 12.2642 138.023C11.8527 137.281 11.3832 136.573 10.8599 135.906C10.5553 135.585 10.2267 135.288 9.87693 135.017C8.83674 134.158 7.5521 133.092 8.23342 131.958C9.03958 130.611 12.6022 128.692 12.7531 128.614C12.793 128.59 12.8389 128.577 12.8857 128.577C12.9325 128.577 12.9784 128.59 13.0183 128.614L15.3588 130.174C15.3936 130.197 15.4227 130.228 15.4434 130.264C15.4642 130.3 15.4762 130.341 15.4784 130.382C15.5304 131.943 15.6708 134.403 15.8477 134.845C15.9205 135.027 16.0505 135.365 16.2117 135.817C16.5933 136.933 17.0307 138.028 17.5224 139.099C17.6191 139.233 17.677 139.39 17.6899 139.555C17.7027 139.719 17.67 139.883 17.5952 140.03C17.4781 140.205 17.3168 140.346 17.1277 140.438C16.9386 140.53 16.7284 140.571 16.5186 140.556ZM12.8779 129.155C12.2174 129.524 9.34643 131.152 8.71712 132.239C8.29584 132.931 9.08638 133.664 10.2462 134.626C10.6167 134.915 10.9644 135.231 11.2864 135.573C11.8346 136.262 12.3235 136.996 12.7479 137.768C13.0736 138.365 13.4513 138.932 13.8765 139.463C14.4486 140.035 15.9569 140.035 16.555 140.035C16.6705 140.047 16.7871 140.031 16.8954 139.99C17.0038 139.948 17.101 139.882 17.1791 139.796C17.2015 139.728 17.2071 139.656 17.1953 139.585C17.1836 139.514 17.1548 139.448 17.1115 139.391C16.6007 138.292 16.1493 137.167 15.7592 136.02C15.6032 135.589 15.4732 135.24 15.4004 135.063C15.1507 134.434 15.0259 131.324 14.9999 130.554L12.8779 129.155Z" fill="#263238"/>
<path d="M11.4685 134.636C10.614 133.597 9.81701 132.512 9.08122 131.386C8.84181 131.596 8.63188 131.837 8.4571 132.104C7.67696 133.404 10.1474 134.704 11.0576 135.744C11.9678 136.784 13.008 138.995 13.6581 139.645C14.3082 140.295 15.8685 140.295 16.5186 140.295C17.1687 140.295 17.6888 139.905 17.2988 139.255C13.6113 139.12 13.0028 136.462 11.4685 134.636Z" fill="#263238"/>
<path d="M26.5304 73.5928C26.5304 73.5928 26.4472 73.832 26.3223 74.2429C25.7138 76.1725 24.0443 81.8519 24.58 83.9947C25.2301 86.5952 30.79 92.2539 33.8117 95.2809C36.6463 98.1154 45.644 102.328 45.644 102.328C45.644 102.328 41.7432 112.73 40.8331 115.201C39.9229 117.671 36.6723 126.383 36.6723 126.383L39.2728 127.943C39.2728 127.943 50.0648 112.99 52.2752 110C54.4856 107.009 57.0965 102.64 56.306 101.288C49.2274 89.2373 40.8331 82.6945 40.8331 82.6945L41.7432 79.1838L26.5304 73.5928Z" fill="#263238"/>
<path d="M39.2727 128.203C39.2251 128.204 39.1782 128.191 39.1375 128.167L36.537 126.606C36.4847 126.576 36.4449 126.528 36.4249 126.47C36.4049 126.413 36.4059 126.351 36.4278 126.294C36.4278 126.294 39.6784 117.583 40.5886 115.112C41.4155 112.87 44.7494 103.992 45.3163 102.463C43.8912 101.787 36.251 98.0841 33.6297 95.4628C29.6249 91.4581 24.9492 86.5431 24.3251 84.0571C23.805 81.8883 25.3653 76.4168 26.0726 74.1752L26.2807 73.5199C26.305 73.4543 26.3533 73.4004 26.4159 73.3691C26.4478 73.3549 26.4824 73.3475 26.5173 73.3475C26.5523 73.3475 26.5868 73.3549 26.6188 73.3691L41.8316 78.9601C41.8926 78.9826 41.943 79.027 41.9729 79.0848C42.0027 79.1426 42.0098 79.2094 41.9928 79.2722L41.1243 82.6164C47.2575 87.9025 52.4643 94.1763 56.5296 101.179C57.627 103.046 53.3518 108.98 52.4832 110.176C50.2988 113.131 39.59 127.969 39.4808 128.115C39.4555 128.145 39.4235 128.168 39.3873 128.184C39.3512 128.199 39.3119 128.206 39.2727 128.203V128.203ZM36.9895 126.273L39.1999 127.6C40.4742 125.831 50.0179 112.616 52.0671 109.844C54.548 106.489 56.748 102.515 56.0823 101.418C49.1078 89.5493 40.7342 82.9649 40.6718 82.8921C40.6309 82.8615 40.6001 82.8194 40.5834 82.7712C40.5667 82.723 40.5649 82.6709 40.5782 82.6216L41.4311 79.3398L26.6916 73.9308C26.6604 74.0348 26.6188 74.1648 26.5667 74.3208C26.0466 76.0476 24.3043 81.8311 24.8296 83.9322C25.4953 86.5951 31.6741 92.7739 33.9937 95.0935C36.7659 97.8657 45.6647 102.052 45.7531 102.094C45.8129 102.121 45.8601 102.17 45.8852 102.231C45.9103 102.292 45.9115 102.36 45.8884 102.422C45.8468 102.526 41.9772 112.85 41.0775 115.289C40.2453 117.536 37.4836 124.947 36.9895 126.273Z" fill="#263238"/>
<path opacity="0.2" d="M40.833 82.6945L40.9838 82.0964L38.0245 80.7441C38.0245 80.7441 35.45 79.8443 34.4202 79.9692C33.3904 80.094 32.8599 83.0585 34.5502 84.7332C36.2405 86.408 48.7021 92.0666 47.9323 92.1915C47.1626 92.3163 38.6694 91.6714 40.0841 92.4515C41.4987 93.2316 51.4066 94.121 50.8917 94.896C50.3768 95.6709 49.3314 96.0558 50.7617 96.6955C52.1919 97.3352 55.5674 100.856 56.4359 102.068C56.4697 101.801 56.4245 101.53 56.3059 101.288C49.2274 89.2373 40.833 82.6945 40.833 82.6945Z" fill="white"/>
<path d="M39.2052 81.6127C39.1633 81.613 39.1221 81.6022 39.0856 81.5815C37.3329 80.6453 34.9248 79.5011 34.4567 79.2671C33.6565 79.4291 32.8664 79.6375 32.0903 79.8912C32.0261 79.9154 31.9549 79.9137 31.8919 79.8866C31.8289 79.8594 31.7788 79.8089 31.7522 79.7456C31.7281 79.6813 31.7297 79.6102 31.7569 79.5472C31.784 79.4841 31.8346 79.4341 31.8979 79.4075C32.7292 79.1374 33.5747 78.9134 34.4307 78.7366C34.4847 78.7183 34.5432 78.7183 34.5972 78.7366C34.6284 78.7366 37.3797 80.0628 39.3301 81.103C39.3811 81.1306 39.4215 81.1744 39.4447 81.2275C39.468 81.2806 39.4729 81.34 39.4585 81.3962C39.4442 81.4524 39.4114 81.5022 39.3656 81.5376C39.3197 81.5731 39.2632 81.5922 39.2052 81.5919V81.6127Z" fill="white"/>
<path d="M29.8955 79.1214C29.8265 79.1317 29.7562 79.1142 29.7002 79.0728C29.6441 79.0313 29.6068 78.9693 29.5964 78.9003C29.5861 78.8314 29.6035 78.7611 29.645 78.705C29.6865 78.6489 29.7485 78.6116 29.8175 78.6013C31.4237 78.1524 33.0939 77.9766 34.7584 78.0812C34.8274 78.0812 34.8935 78.1086 34.9423 78.1573C34.991 78.2061 35.0184 78.2723 35.0184 78.3412C35.0184 78.4102 34.991 78.4763 34.9423 78.5251C34.8935 78.5739 34.8274 78.6013 34.7584 78.6013C33.1543 78.5109 31.5462 78.6867 29.9995 79.1214C29.9654 79.13 29.9296 79.13 29.8955 79.1214V79.1214Z" fill="white"/>
<path d="M39.2728 127.943L41.0931 131.974C41.0931 131.974 44.7338 133.794 44.7338 134.314C44.7338 134.834 43.9536 134.964 43.9536 134.964H38.7527C38.1026 134.964 36.4122 133.274 34.8519 132.364C33.2916 131.454 32.6415 131.064 32.7715 129.893C32.9016 128.723 36.6723 126.383 36.6723 126.383L39.2728 127.943Z" fill="white"/>
<path d="M38.7527 135.224C38.3158 135.224 37.7125 134.777 36.6983 133.992C36.0702 133.482 35.41 133.013 34.722 132.587C33.1617 131.672 32.3607 131.214 32.5116 129.862C32.652 128.603 36.1522 126.409 36.5319 126.164C36.5724 126.139 36.6193 126.125 36.6671 126.125C36.715 126.125 36.7618 126.139 36.8024 126.164L39.4028 127.724C39.449 127.75 39.4855 127.79 39.5069 127.839L41.2908 131.786C43.7457 133.019 44.9939 133.867 44.9939 134.319C44.9939 134.902 44.3646 135.162 43.9953 135.224H38.7527ZM36.6723 126.689C35.2525 127.584 33.1097 129.186 33.0317 129.924C32.9276 130.892 33.3853 131.204 34.9872 132.14C35.6953 132.579 36.3762 133.06 37.026 133.581C37.7073 134.101 38.4771 134.704 38.7579 134.704H43.9589C43.9589 134.704 44.479 134.59 44.479 134.314C44.349 134.038 42.5598 132.993 40.9787 132.208C40.9265 132.18 40.8846 132.136 40.8591 132.083L39.07 128.14L36.6723 126.689Z" fill="#263238"/>
<path d="M36.4798 131.105C35.5094 130.24 34.3659 129.591 33.1252 129.202C32.9489 129.397 32.827 129.636 32.7715 129.893C32.6415 131.063 33.2916 131.454 34.8519 132.364C36.4122 133.274 38.1026 134.964 38.7527 134.964H43.9536C43.9536 134.964 44.7338 134.834 44.7338 134.314C44.7338 134.314 44.7338 134.283 44.7338 134.267C43.2081 134.184 41.6895 134 40.1881 133.716C37.0936 133.097 38.1702 132.639 36.4798 131.105Z" fill="#263238"/>
<path d="M42.9447 44.5609C40.4912 45.0138 38.2117 46.1391 36.3603 47.8115C33.6037 50.4796 31.773 54.2347 31.6066 55.9874C31.4401 57.7402 29.0737 66.171 28.1843 67.9133C27.295 69.6556 25.2562 72.6306 26.598 74.3313C27.2742 75.1842 40.7759 79.6675 42.1125 79.6675C43.4492 79.6675 43.8653 78.4193 44.0317 77.6703C44.1981 76.9214 45.8624 70.0769 47.1991 67.5752C48.5357 65.0735 51.5367 63.4144 51.88 57.5685C52.0937 54.1188 51.25 50.6859 49.4615 47.7283C49.4615 47.7283 45.5296 44.4777 42.9447 44.5609Z" fill="white"/>
<path d="M42.1125 79.9277C40.8019 79.9277 27.1701 75.4757 26.3952 74.4927C25.1418 72.9012 26.5148 70.4203 27.5134 68.6052C27.6798 68.3087 27.8307 68.0383 27.9555 67.7938C28.8292 66.0827 31.1853 57.6467 31.3465 55.9616C31.5286 54.0164 33.5153 50.2041 36.1782 47.64C38.0662 45.924 40.398 44.7725 42.9083 44.3166H42.9395C45.5972 44.223 49.4563 47.4112 49.6176 47.5464C49.6358 47.5612 49.6516 47.5787 49.6644 47.5984C51.4955 50.5992 52.3564 54.0918 52.1296 57.5999C51.8852 61.8855 50.1845 64.0179 48.8218 65.7342C48.2999 66.3525 47.8335 67.0156 47.4279 67.7158C46.1485 70.1186 44.531 76.6407 44.3074 77.7381C43.9589 79.1891 43.2255 79.9277 42.1125 79.9277ZM42.9707 44.8211C42.7107 44.8627 39.1116 45.5024 36.5371 47.9989C33.7286 50.7242 32.0174 54.4065 31.8562 56.0084C31.6898 57.7767 29.3337 66.2335 28.4132 68.0278C28.2831 68.2775 28.1323 68.5479 27.9659 68.8548C27.0349 70.5399 25.7607 72.8544 26.8009 74.1702C27.3782 74.8567 40.6823 79.4076 42.1073 79.4076C42.9603 79.4076 43.5012 78.8199 43.7717 77.6133C44.0161 76.5002 45.6544 69.9054 46.965 67.4557C47.3823 66.7195 47.8663 66.0231 48.4109 65.3754C49.7996 63.633 51.3703 61.6515 51.6043 57.5323C51.8024 54.1537 50.9836 50.7932 49.2535 47.8845C48.8998 47.614 45.3163 44.7327 42.9707 44.8211Z" fill="#263238"/>
<path d="M38.7891 62.8112C42.5858 61.1833 44.8951 61.1833 47.3343 60.6372C49.7736 60.0911 42.7211 60.2315 41.2284 59.5554C39.7357 58.8793 45.7064 58.0627 47.1991 57.6518C48.6918 57.2409 43.8081 57.9275 40.9579 57.9275C38.1078 57.9275 34.7168 51.8215 37.7021 49.0858C40.6875 46.3501 45.5712 46.1005 45.5712 46.1005L45.4568 45.1747C44.6764 44.7807 43.8186 44.5641 42.9447 44.5402C40.4912 44.993 38.2117 46.1184 36.3603 47.7908C33.6037 50.4589 31.773 54.214 31.6066 55.9667C31.4401 57.7194 29.0737 66.1502 28.1843 67.8926C27.295 69.6349 25.2562 72.6098 26.598 74.3106C27.2742 75.1635 40.7759 79.6468 42.1125 79.6468C42.3224 79.6463 42.5304 79.6076 42.7263 79.5323C40.4638 78.4921 36.2823 76.8902 34.852 76.2193C32.8184 75.2675 40.0062 73.7801 41.4988 71.8765C42.9915 69.9729 36.2094 72.8283 34.3111 72.9635C32.4127 73.0987 31.5962 72.1522 33.6298 71.606C35.6633 71.0599 41.0932 67.128 43.5116 65.6353C45.9301 64.1426 34.1499 68.6207 32.2515 68.3502C30.3531 68.0798 35.0132 64.4391 38.7891 62.8112Z" fill="#7857FF"/>
<path opacity="0.5" d="M38.7891 62.8112C42.5858 61.1833 44.8951 61.1833 47.3343 60.6372C49.7736 60.0911 42.7211 60.2315 41.2284 59.5554C39.7357 58.8793 45.7064 58.0627 47.1991 57.6518C48.6918 57.2409 43.8081 57.9275 40.9579 57.9275C38.1078 57.9275 34.7168 51.8215 37.7021 49.0858C40.6875 46.3501 45.5712 46.1005 45.5712 46.1005L45.4568 45.1747C44.6764 44.7807 43.8186 44.5641 42.9447 44.5402C40.4912 44.993 38.2117 46.1184 36.3603 47.7908C33.6037 50.4589 31.773 54.214 31.6066 55.9667C31.4401 57.7194 29.0737 66.1502 28.1843 67.8926C27.295 69.6349 25.2562 72.6098 26.598 74.3106C27.2742 75.1635 40.7759 79.6468 42.1125 79.6468C42.3224 79.6463 42.5304 79.6076 42.7263 79.5323C40.4638 78.4921 36.2823 76.8902 34.852 76.2193C32.8184 75.2675 40.0062 73.7801 41.4988 71.8765C42.9915 69.9729 36.2094 72.8283 34.3111 72.9635C32.4127 73.0987 31.5962 72.1522 33.6298 71.606C35.6633 71.0599 41.0932 67.128 43.5116 65.6353C45.9301 64.1426 34.1499 68.6207 32.2515 68.3502C30.3531 68.0798 35.0132 64.4391 38.7891 62.8112Z" fill="white"/>
<path d="M44.4322 59.3785C42.9392 59.3865 41.4504 59.2207 39.9958 58.8844C39.9298 58.8662 39.8736 58.8226 39.8395 58.7632C39.8055 58.7038 39.7962 58.6334 39.8137 58.5672C39.8216 58.5342 39.836 58.5032 39.8561 58.4758C39.8761 58.4485 39.9014 58.4255 39.9304 58.408C39.9595 58.3906 39.9918 58.3791 40.0253 58.3743C40.0588 58.3695 40.093 58.3714 40.1258 58.3799C42.7238 58.9586 45.4131 58.9958 48.0261 58.4892C48.0595 58.4823 48.094 58.4821 48.1276 58.4886C48.1611 58.4951 48.193 58.5082 48.2215 58.527C48.25 58.5458 48.2745 58.5701 48.2936 58.5984C48.3128 58.6267 48.3261 58.6585 48.3329 58.692C48.3406 58.7251 48.3415 58.7595 48.3356 58.793C48.3298 58.8265 48.3172 58.8585 48.2988 58.8871C48.2804 58.9157 48.2564 58.9403 48.2284 58.9595C48.2003 58.9787 48.1686 58.9921 48.1353 58.9988C46.9178 59.2558 45.6765 59.383 44.4322 59.3785Z" fill="#263238"/>
<path d="M45.6284 61.6773C42.9332 61.3511 40.3265 60.5069 37.9518 59.1912C37.9186 59.1762 37.889 59.1545 37.8648 59.1273C37.8406 59.1002 37.8223 59.0682 37.8112 59.0336C37.8001 58.9989 37.7964 58.9623 37.8004 58.9261C37.8043 58.89 37.8158 58.855 37.8341 58.8236C37.8523 58.7921 37.877 58.7648 37.9065 58.7435C37.936 58.7222 37.9697 58.7073 38.0053 58.6998C38.0409 58.6923 38.0776 58.6924 38.1132 58.7C38.1488 58.7076 38.1824 58.7226 38.2118 58.744C38.2482 58.744 41.8837 60.8243 45.6752 61.1572C45.7442 61.1607 45.809 61.1914 45.8553 61.2426C45.9016 61.2938 45.9257 61.3613 45.9223 61.4303C45.9188 61.4992 45.8881 61.564 45.8369 61.6103C45.7857 61.6567 45.7182 61.6808 45.6492 61.6773H45.6284Z" fill="#263238"/>
<path d="M44.0214 67.0915C43.9767 67.0908 43.9328 67.079 43.8938 67.0573C43.8548 67.0355 43.8218 67.0044 43.7977 66.9667C43.7798 66.9374 43.7678 66.9048 43.7626 66.8708C43.7573 66.8369 43.7589 66.8022 43.7671 66.7688C43.7753 66.7355 43.79 66.704 43.8105 66.6764C43.8309 66.6488 43.8566 66.6255 43.8861 66.6078C44.5949 66.1802 45.279 65.7131 45.9353 65.2088C45.9907 65.1665 46.0605 65.1478 46.1295 65.1565C46.1986 65.1653 46.2615 65.2009 46.3046 65.2556C46.3452 65.3106 46.363 65.3792 46.3543 65.447C46.3456 65.5149 46.311 65.5767 46.2578 65.6196C45.5909 66.1308 44.8964 66.6048 44.1774 67.0395C44.1324 67.0733 44.0776 67.0915 44.0214 67.0915Z" fill="#263238"/>
<path d="M30.8005 72.7502C30.7315 72.7606 30.6613 72.7431 30.6052 72.7016C30.5491 72.6602 30.5118 72.5981 30.5014 72.5292C30.4911 72.4602 30.5086 72.39 30.55 72.3339C30.5915 72.2778 30.6535 72.2405 30.7225 72.2301C34.5894 71.027 38.3503 69.5066 41.967 67.6845C42.0284 67.652 42.1001 67.6453 42.1665 67.6658C42.2328 67.6863 42.2883 67.7323 42.3207 67.7937C42.3531 67.8551 42.3598 67.9268 42.3393 67.9931C42.3188 68.0595 42.2728 68.1149 42.2114 68.1474C38.5694 69.9893 34.7783 71.5204 30.8785 72.7242C30.8545 72.738 30.828 72.7468 30.8005 72.7502V72.7502Z" fill="#263238"/>
<path d="M28.3716 73.4784C28.3151 73.4792 28.26 73.4613 28.2148 73.4274C28.1696 73.3936 28.1369 73.3456 28.1219 73.2911C28.1125 73.258 28.1097 73.2233 28.1137 73.1891C28.1178 73.1549 28.1286 73.1218 28.1455 73.0918C28.1625 73.0618 28.1852 73.0355 28.2124 73.0144C28.2396 72.9932 28.2707 72.9777 28.304 72.9687C28.304 72.9687 28.5952 72.8907 29.1049 72.7398C29.1391 72.7299 29.1748 72.7269 29.2102 72.7308C29.2455 72.7347 29.2798 72.7455 29.3109 72.7627C29.3421 72.7798 29.3695 72.8029 29.3917 72.8307C29.414 72.8585 29.4305 72.8903 29.4404 72.9245C29.4503 72.9586 29.4534 72.9944 29.4495 73.0297C29.4455 73.0651 29.4347 73.0993 29.4176 73.1304C29.4004 73.1616 29.3773 73.1891 29.3495 73.2113C29.3218 73.2335 29.2899 73.25 29.2558 73.2599L28.4392 73.4992L28.3716 73.4784Z" fill="#263238"/>
<path d="M30.712 74.7057C30.6431 74.7181 30.572 74.7026 30.5144 74.6626C30.4569 74.6226 30.4176 74.5614 30.4052 74.4925C30.3928 74.4235 30.4083 74.3524 30.4483 74.2949C30.4882 74.2373 30.5495 74.198 30.6184 74.1856C33.2674 73.1818 35.8596 72.0341 38.3835 70.7477C38.4134 70.7316 38.4463 70.7216 38.4802 70.7183C38.5141 70.7151 38.5483 70.7186 38.5808 70.7288C38.6132 70.739 38.6434 70.7556 38.6693 70.7776C38.6953 70.7996 38.7166 70.8266 38.7319 70.857C38.7483 70.8866 38.7586 70.9192 38.7622 70.9529C38.7658 70.9865 38.7627 71.0206 38.753 71.053C38.7433 71.0855 38.7273 71.1157 38.7058 71.1418C38.6843 71.168 38.6579 71.1896 38.6279 71.2054C36.0907 72.4991 33.4865 73.6571 30.8265 74.6745C30.7912 74.6934 30.752 74.7041 30.712 74.7057V74.7057Z" fill="#263238"/>
<path d="M48.7023 49.5174C48.7023 49.5174 50.1897 53.621 51.3028 53.9903C52.4158 54.3595 57.4555 52.6848 58.012 50.2664C58.5685 47.8479 50.7306 43.9264 48.6971 42.985C46.6635 42.0436 40.1259 41.6796 36.3968 41.1231C32.6677 40.5665 29.313 38.5226 27.0818 37.9557C24.8506 37.3888 18.6926 38.3301 18.6926 38.3301L22.9782 41.1231C22.9782 41.1231 29.8747 42.7978 32.4856 42.7978C35.0965 42.7978 37.3277 41.6796 40.8696 42.7978C44.4115 43.916 48.8843 45.0342 51.6772 46.3396C54.4701 47.6451 56.7066 48.3888 56.7066 50.0687C56.7066 51.7486 53.7368 53.2465 53.1751 53.2465C52.6134 53.2465 51.308 48.7737 49.8205 48.3992C49.8205 48.3992 47.9533 47.4682 48.7023 49.5174Z" fill="#263238"/>
<path d="M51.7189 54.2868C51.5537 54.2907 51.3889 54.2696 51.23 54.2244C50.0234 53.8239 48.6295 50.022 48.4579 49.5903C48.1874 48.8518 48.203 48.3629 48.5047 48.0924C48.9312 47.7128 49.7061 48.0404 49.9089 48.1392C50.9179 48.4201 51.7553 50.1572 52.4314 51.5511C52.6392 52.0496 52.9008 52.524 53.2116 52.9658C53.7317 52.9033 56.4518 51.5043 56.4518 50.0636C56.4518 48.7842 54.8915 48.0664 52.6811 47.0782C52.3274 46.917 51.9529 46.7506 51.5732 46.5581C49.1165 45.5375 46.5934 44.6843 44.0214 44.0045C42.9136 43.6768 41.8162 43.3543 40.7968 43.0319C38.4668 42.2985 36.7089 42.5534 35.0133 42.803C34.1796 42.9453 33.3365 43.0252 32.4909 43.0423C29.8904 43.0423 23.2071 41.43 22.9211 41.3624L22.8431 41.326L18.5574 38.5278C18.5139 38.4988 18.4801 38.4573 18.4605 38.4087C18.4409 38.3601 18.4365 38.3068 18.4477 38.2556C18.459 38.2045 18.4854 38.1579 18.5235 38.1221C18.5617 38.0862 18.6097 38.0626 18.6615 38.0545C18.9111 38.0181 24.9026 37.1236 27.1495 37.6853C28.1896 37.9917 29.2064 38.3724 30.192 38.8243C32.1782 39.7607 34.2754 40.4406 36.4332 40.8475C37.619 41.0295 39.0701 41.1855 40.594 41.3676C43.9174 41.7264 47.3553 42.0957 48.7855 42.751C49.8257 43.2191 58.9118 47.4319 58.2513 50.3133C57.9704 51.5303 56.7274 52.4509 55.734 53.0126C54.5039 53.7234 53.1338 54.1582 51.7189 54.2868V54.2868ZM48.9468 49.4135C49.5033 50.9738 50.6631 53.4858 51.3912 53.7303C52.0347 53.792 52.6839 53.7067 53.2896 53.4806H53.1751C52.8059 53.4806 52.551 52.9866 51.9633 51.7695C51.3756 50.5525 50.5383 48.8206 49.7581 48.6489H49.7009C49.4408 48.5189 48.9832 48.3941 48.8479 48.5137C48.8167 48.5137 48.6815 48.7114 48.9468 49.4447V49.4135ZM37.7126 42.0385C38.8133 42.0405 39.9068 42.216 40.9529 42.5586C41.993 42.8759 43.0593 43.1983 44.1671 43.526C46.9288 44.3321 49.7841 45.1695 51.7917 46.1265L52.8943 46.6466C55.1723 47.6868 56.9719 48.4877 56.9719 50.1052C56.9719 51.4939 55.2243 52.7369 54.0541 53.2622C54.5523 53.0754 55.0357 52.8511 55.5 52.5913C56.7742 51.8787 57.5804 51.031 57.7624 50.23C58.1889 48.3837 52.3638 44.9718 48.5931 43.2607C47.2356 42.6418 43.6886 42.2569 40.5576 41.9189C38.9973 41.7524 37.5566 41.5964 36.3656 41.3988C34.1604 40.979 32.0177 40.2799 29.9892 39.3184C29.0272 38.8768 28.0347 38.5049 27.0194 38.2054C25.2979 37.7737 21.0799 38.2678 19.4208 38.4914L23.0615 40.8787C23.6492 41.0243 30.0204 42.5378 32.4649 42.5378C33.286 42.5189 34.1047 42.4407 34.9145 42.3038C35.8396 42.1501 36.775 42.0666 37.7126 42.0541V42.0385Z" fill="#263238"/>
<path d="M43.4493 42.2257L51.0375 47.229L50.6163 50.8957L42.3623 44.2281L43.4493 42.2257Z" fill="white"/>
<path d="M50.6162 51.1661C50.5571 51.168 50.4995 51.1476 50.4549 51.1089L42.201 44.4412C42.1538 44.4027 42.1213 44.3491 42.109 44.2894C42.0967 44.2297 42.1053 44.1676 42.1334 44.1135L43.2204 42.1112C43.2369 42.0792 43.2601 42.0511 43.2883 42.0288C43.3165 42.0064 43.3491 41.9903 43.384 41.9814C43.4189 41.9726 43.4552 41.9712 43.4907 41.9775C43.5261 41.9837 43.5598 41.9974 43.5896 42.0176L51.1779 47.0053C51.2179 47.0325 51.2497 47.0702 51.2699 47.1142C51.2901 47.1582 51.2978 47.2068 51.2923 47.2549L50.8762 50.8956C50.8706 50.9423 50.8527 50.9866 50.8244 51.024C50.7961 51.0615 50.7583 51.0908 50.715 51.1089C50.686 51.134 50.6524 51.1535 50.6162 51.1661V51.1661ZM42.6951 44.1708L50.4133 50.4119L50.7566 47.3746L43.5428 42.6157L42.6951 44.1708Z" fill="#263238"/>
<path d="M40.7343 47.5568L37.2808 49.2783C36.5423 49.6528 21.371 53.9592 20.7573 54.8277C20.1436 55.6963 14.8386 74.6851 14.8386 74.6851L18.2921 75.6732L25.6515 61.9843C25.6515 61.9843 44.1513 58.0367 45.2591 57.6675C46.3669 57.2982 47.7244 55.6911 47.974 54.214" fill="white"/>
<path d="M18.2765 75.9332H18.2037L14.7294 74.9346C14.6963 74.9256 14.6653 74.9101 14.6382 74.8889C14.6112 74.8676 14.5888 74.8412 14.5723 74.811C14.5558 74.7809 14.5455 74.7478 14.5421 74.7136C14.5387 74.6794 14.5423 74.6449 14.5526 74.6121C15.0727 72.667 19.8836 55.5557 20.5077 54.6768C20.9082 54.1203 25.0482 52.7732 33.0577 50.334C35.1381 49.6994 36.9116 49.1533 37.1301 49.0493L40.5835 47.3226C40.6138 47.3066 40.6469 47.2969 40.6811 47.294C40.7152 47.2911 40.7495 47.2951 40.782 47.3058C40.8146 47.3165 40.8446 47.3336 40.8704 47.3562C40.8961 47.3787 40.9171 47.4062 40.932 47.437C40.9471 47.4677 40.9559 47.5011 40.9581 47.5353C40.9602 47.5695 40.9556 47.6037 40.9445 47.6361C40.9334 47.6685 40.916 47.6983 40.8933 47.724C40.8706 47.7496 40.8431 47.7705 40.8123 47.7855L37.3589 49.5122C37.1196 49.6318 35.7726 50.0323 33.1981 50.8281C29.0789 52.0867 21.4127 54.4271 20.9186 54.9888C20.4245 55.5505 17.2363 66.8991 15.1091 74.5081L18.1153 75.3663L25.3966 61.8437C25.4146 61.8102 25.4398 61.7812 25.4703 61.7587C25.5009 61.7362 25.5362 61.7208 25.5735 61.7137C25.7555 61.6721 44.0682 57.7662 45.15 57.4021C46.1277 57.0796 47.454 55.5869 47.6932 54.1567C47.6976 54.1227 47.7088 54.09 47.7264 54.0605C47.7439 54.0311 47.7673 54.0056 47.7951 53.9856C47.8229 53.9656 47.8545 53.9515 47.888 53.9443C47.9215 53.937 47.9561 53.9367 47.9897 53.9434C48.0234 53.9485 48.0557 53.9602 48.0847 53.9779C48.1138 53.9957 48.139 54.019 48.1589 54.0467C48.1787 54.0743 48.1929 54.1056 48.2005 54.1388C48.208 54.172 48.2089 54.2064 48.2029 54.2399C47.9533 55.7326 46.5802 57.4749 45.3164 57.8806C44.2398 58.2394 27.5186 61.8125 25.7971 62.1818L18.4585 75.7615C18.4451 75.8031 18.4213 75.8407 18.3895 75.8707C18.3577 75.9007 18.3188 75.9222 18.2765 75.9332Z" fill="#263238"/>
<path d="M18.0225 75.8506C17.869 76.5583 17.9701 77.1596 17.3829 78.3498C16.496 80.1702 17.5652 80.7233 16.6016 82.3326C16.0013 83.3501 15.5068 83.8128 14.9062 84.1359C14.6311 84.2869 14.194 84.4762 13.7535 84.2751C13.5465 84.1779 13.3782 83.9041 13.4408 83.8126C13.5206 83.7197 12.9415 83.8676 12.6656 83.6628C12.3804 83.4499 12.2548 83.0514 12.2548 83.0514C12.2548 83.0514 11.7952 83.1729 11.3518 83.163C10.9867 83.1559 10.464 82.7873 10.4207 82.4434C10.4142 82.3571 10.5 81.769 10.6918 81.3205C10.8836 80.872 11.542 80.0497 11.8319 79.75C12.5726 78.9823 12.5778 79.0513 13.0793 78.3364C13.6048 77.5935 13.3822 77.2892 13.9865 76.2106C14.2235 75.7847 14.8465 74.9693 14.8465 74.9693C14.8465 74.9693 15.4792 75.0562 16.9112 75.5123C18.5304 76.0324 16.8086 75.4798 18.0225 75.8506Z" fill="#6656B8"/>
<path d="M13.3557 83.8363C13.6148 83.7039 13.8726 83.5542 14.1013 83.3633C14.3312 83.1897 14.5413 82.9829 14.7235 82.7521C14.915 82.5293 15.0614 82.2839 15.2065 82.0212C15.3437 81.7678 15.4436 81.4824 15.5356 81.2064C15.5208 81.3551 15.4887 81.5051 15.4474 81.6471C15.406 81.7891 15.3474 81.9324 15.2968 82.0664C15.1782 82.3358 15.0159 82.5998 14.8336 82.8306C14.6341 83.0627 14.4241 83.2695 14.1676 83.4364C14.044 83.5239 13.9191 83.5941 13.7769 83.6656C13.6427 83.7278 13.5085 83.79 13.3557 83.8363Z" fill="#3D358E"/>
<path d="M12.0914 83.0725C12.4409 82.8725 12.7705 82.6393 13.0537 82.3661C13.3369 82.093 13.5909 81.7787 13.8078 81.4325C13.6719 81.816 13.4377 82.1635 13.1385 82.4552C12.8474 82.7376 12.4819 82.9562 12.0914 83.0725Z" fill="#3D358E"/>
<path d="M29.8538 51.5928C25.6098 52.9034 21.0746 54.3649 20.7417 54.8278C20.3048 55.4415 17.5119 65.1673 15.9204 70.774C18.2661 69.5673 22.0316 67.5234 20.7417 67.4245C18.9786 67.2841 18.7081 66.3375 21.0122 64.7096C23.3162 63.0817 27.7734 59.8259 26.5772 59.5555C25.381 59.285 21.1526 58.7389 23.7271 57.3815C26.3016 56.024 40.5522 57.3815 43.1267 56.1592C45.7012 54.937 39.8709 54.3961 36.4799 53.9904C33.0888 53.5847 39.6005 53.5847 39.6005 53.5847C39.6005 53.5847 41.9097 53.4495 41.3636 50.9843C40.8175 48.519 38.4562 49.424 37.2652 49.2575C36.948 49.4188 33.947 50.2977 30.5924 51.3379L29.8538 51.5928Z" fill="#7857FF"/>
<path opacity="0.5" d="M29.8538 51.5928C25.6098 52.9034 21.0746 54.3649 20.7417 54.8278C20.3048 55.4415 17.5119 65.1673 15.9204 70.774C18.2661 69.5673 22.0316 67.5234 20.7417 67.4245C18.9786 67.2841 18.7081 66.3375 21.0122 64.7096C23.3162 63.0817 27.7734 59.8259 26.5772 59.5555C25.381 59.285 21.1526 58.7389 23.7271 57.3815C26.3016 56.024 40.5522 57.3815 43.1267 56.1592C45.7012 54.937 39.8709 54.3961 36.4799 53.9904C33.0888 53.5847 39.6005 53.5847 39.6005 53.5847C39.6005 53.5847 41.9097 53.4495 41.3636 50.9843C40.8175 48.519 38.4562 49.424 37.2652 49.2575C36.948 49.4188 33.947 50.2977 30.5924 51.3379L29.8538 51.5928Z" fill="white"/>
<path d="M19.2594 73.5877H19.1866L15.3639 72.4903C15.2985 72.4698 15.2435 72.4248 15.2105 72.3646C15.1776 72.3045 15.1692 72.234 15.1871 72.1678C15.196 72.1346 15.2116 72.1036 15.2328 72.0766C15.254 72.0496 15.2805 72.0272 15.3106 72.0106C15.3407 71.9941 15.3739 71.9839 15.4081 71.9805C15.4422 71.9771 15.4768 71.9807 15.5095 71.991L19.3323 73.0988C19.4012 73.1084 19.4635 73.1451 19.5055 73.2007C19.5474 73.2563 19.5655 73.3263 19.5559 73.3952C19.5462 73.4642 19.5096 73.5265 19.454 73.5684C19.3984 73.6104 19.3284 73.6285 19.2594 73.6189V73.5877Z" fill="#263238"/>
<path d="M64.97 41.8911C64.994 42.01 65.0566 42.3501 64.9184 42.7071C64.6198 43.5557 63.3772 44.476 63.3772 44.476L63.0853 46.1843C62.9086 46.8403 62.5033 47.2526 62.0429 47.4534C60.8635 47.9827 59.0051 47.5998 58.4207 47.5846C56.6937 47.5461 56.1757 46.972 55.1362 47.398C54.931 47.484 54.1561 47.8118 53.9618 48.5335C53.8063 49.1108 54.0985 49.6388 54.1402 49.6921C54.5217 50.3563 55.1934 50.6198 55.1934 50.6198C55.1934 50.6198 54.2776 51.1069 53.5013 50.8156C52.6728 50.5103 52.1534 49.8374 52.1534 49.8374C52.1534 49.8374 52.1036 50.3867 52.2576 50.7512C52.5286 51.3579 52.8975 51.6531 52.8975 51.6531C52.8975 51.6531 51.6828 51.7934 50.7454 51.1637C49.9734 50.6485 49.4958 50.0289 49.4958 50.0289C49.4958 50.0289 49.4682 50.4435 49.6982 50.7861C49.9282 51.1287 50.1822 51.5902 50.1822 51.5902C50.1822 51.5902 49.5381 51.4325 49.1721 51.3349C47.8719 50.9602 47.2328 49.3272 46.9448 48.5753C46.6474 47.8069 46.1217 46.4292 46.4277 44.6684C46.7761 42.7502 48.093 40.5136 50.1285 39.875C51.5231 39.4311 51.6817 40.2469 54.132 40.2532C56.9469 40.2583 57.6571 39.1819 60.6352 39.4134C60.937 39.4376 62.0584 39.5397 63.2618 40.1699C63.9087 40.5252 64.8029 41.0027 64.97 41.8911Z" fill="#F2F2F2"/>
<path d="M55.8953 35.7827C56.3146 34.5883 56.8295 32.6751 56.8584 30.2811C56.8506 29.9982 56.8689 25.5648 55.7729 25.2724C55.1074 25.0948 54.3104 26.4974 53.8321 27.3389C52.93 28.9241 52.7273 30.4571 52.6888 30.7558C52.5026 32.2792 52.7033 33.976 52.8673 34.6658C52.8973 34.8143 53.0408 35.3722 53.0592 36.1356C53.0585 36.346 53.0553 36.5137 53.0532 36.6255" fill="#463D99"/>
<path d="M64.0915 40.9761C63.7465 41.1653 63.3795 40.6035 62.3165 40.3904C61.6786 40.2625 61.1683 40.3373 60.9676 40.3541C59.9208 40.4968 59.8304 40.9366 58.8725 41.0608C58.3064 41.1348 58.3322 40.987 57.2292 40.9741C56.1262 40.9612 56.1134 41.1124 55.3654 41.0817C54.3419 41.0337 54.2557 40.7296 52.9362 40.5325C51.9801 40.39 51.052 40.5081 51.052 40.5081L52.7048 41.1315C52.7048 41.1315 51.9483 41.0282 50.9764 41.2049C50.1231 41.357 49.4167 41.8996 49.4167 41.8996C49.4167 41.8996 49.9521 41.8878 50.5582 42.1337C51.1024 42.3491 51.5534 42.8067 51.5534 42.8067C51.5534 42.8067 50.2562 42.9951 49.1157 43.7453C47.7322 44.6698 47.4719 46.6248 47.4719 46.6248L48.411 46.102C48.411 46.102 48.1779 47.4878 48.4586 48.7857C48.8809 50.7539 50.7796 51.9209 50.7796 51.9209C50.7796 51.9209 49.3542 51.5971 48.2625 50.814C47.2874 50.1182 46.5249 48.9449 46.5249 48.9449L47.0264 50.2033C47.0264 50.2033 45.91 49.512 45.1828 48.7277C44.6163 48.1268 44.795 48.3994 44.1233 47.4612C43.4742 46.543 43.614 46.9599 43.0638 46.1946C42.7279 45.7255 41.0316 44.2752 41.3227 42.7783C41.4283 42.2301 41.5399 42.2317 41.7504 41.8661C42.3145 40.8637 42.7927 40.2321 42.7927 40.2321C42.7927 40.2321 42.2923 39.4379 42.0359 38.4136C41.7951 37.4357 42.3129 36.4491 42.3129 36.4491C42.3129 36.4491 42.3789 37.2961 42.9715 38.4241C43.2159 38.8688 43.8039 39.5457 43.8039 39.5457C43.8039 39.5457 43.4999 38.4384 43.4508 37.2164C43.346 35.4733 44.9177 32.7575 44.9177 32.7575C44.9177 32.7575 45.0284 30.2143 45.8143 28.0762C46.2025 26.9988 46.9082 25.6265 47.4436 25.6146C48.1072 25.5947 48.791 26.5924 49.3754 28.3227C49.9454 29.9508 50.3477 31.4216 50.3477 31.4216C50.3477 31.4216 50.7454 30.881 51.5217 30.2866C52.1214 29.828 52.7052 29.6884 53.2036 29.5542C54.5432 29.2084 55.8807 29.4947 55.8807 29.4947C55.8807 29.4947 55.2898 29.6605 54.0265 30.1391C53.3717 30.3862 52.589 30.7961 52.589 30.7961C52.589 30.7961 54.0918 30.1565 55.9513 30.2727C57.8239 30.3924 59.22 31.3972 59.22 31.3972C59.22 31.3972 58.5094 31.1234 57.3467 30.968C56.2363 30.8266 55.3272 30.9779 55.3272 30.9779C55.3272 30.9779 56.6923 30.8498 57.9157 31.6118C59.126 32.3702 59.5601 33.7231 59.5601 33.7231C59.5601 33.7231 59.268 33.1953 58.6259 32.7711C57.9969 32.3504 57.2881 32.3301 57.2881 32.3301C57.2881 32.3301 57.957 32.5506 58.5984 33.1855C59.1528 33.727 59.3457 34.4672 59.3457 34.4672C59.3457 34.4672 58.8378 34.0647 57.9132 33.6495C57.7503 33.578 57.1849 33.4413 57.1849 33.4413C57.1849 33.4413 57.7832 33.9241 58.3119 34.6133C59.0871 35.6354 58.7275 36.2424 59.3932 37.1509C59.8767 37.7999 60.5019 38.0791 61.2114 38.4088C62.8491 39.1407 64.1855 39.4829 64.1855 39.4829C64.5535 39.9887 64.4331 40.8001 64.0915 40.9761Z" fill="#6656B8"/>
<path d="M52.1985 33.8697C52.6157 33.8825 53.0401 33.869 53.4584 33.8256C53.8767 33.7823 54.2795 33.6926 54.6893 33.5766C55.0991 33.4606 55.5185 33.3613 55.9464 33.3346C56.3707 33.3211 56.8011 33.3373 57.2102 33.4324L57.2067 33.4455C56.7894 33.4328 56.3721 33.42 55.9538 33.4633C55.539 33.4935 55.1267 33.5666 54.7204 33.6694C54.3141 33.7723 53.8887 33.8419 53.474 33.8721C53.0425 33.9119 52.6218 33.9123 52.1985 33.8697Z" fill="#3D358E"/>
<path d="M50.3962 31.3998C50.56 32.0894 50.6682 32.7782 50.7337 33.4696C50.7992 34.1611 50.789 34.8744 50.7693 35.5711C50.7365 36.2644 50.6316 36.9665 50.3963 37.6337C50.1646 38.2879 49.8285 38.9142 49.4249 39.4804C49.8285 38.9142 50.1515 38.2844 50.3702 37.6268C50.589 36.9691 50.6939 36.2671 50.7136 35.5703C50.7334 34.8736 50.7235 34.183 50.6449 33.4881C50.5794 32.7966 50.4547 32.1175 50.2874 31.441L50.3962 31.3998Z" fill="#3D358E"/>
<path d="M44.9717 32.739C45.1034 33.2379 45.2743 33.7472 45.4688 34.2206C45.6599 34.7072 45.9007 35.1649 46.1545 35.6261C46.4084 36.0872 46.6291 36.5677 46.7905 37.0604C46.9518 37.5531 47.0765 38.0782 47.1488 38.5894C47.0634 38.0747 46.9352 37.5627 46.7608 37.0665C46.5864 36.5703 46.3622 36.103 46.0917 35.6515C45.8343 35.2034 45.5839 34.7291 45.3763 34.2522C45.1687 33.7752 44.9812 33.2755 44.84 32.7601L44.9717 32.739Z" fill="#3D358E"/>
<path d="M63.4272 44.4311C63.192 44.5234 62.9437 44.6122 62.6858 44.6843C62.5635 44.7222 62.4315 44.7433 62.3127 44.768C62.1807 44.7892 62.0583 44.827 61.9299 44.835C61.4092 44.8933 60.8896 44.8956 60.3781 44.8154C59.8631 44.7483 59.3456 44.6383 58.8695 44.4266C58.3934 44.2148 57.9445 43.954 57.543 43.6211L57.5632 43.5983C58.0393 43.8101 58.5059 44.0052 58.9795 44.174C59.4531 44.3428 59.9268 44.5115 60.4216 44.6014C60.9165 44.6912 61.4255 44.7285 61.926 44.6929C62.0544 44.6849 62.1828 44.6769 62.3017 44.6523C62.4301 44.6442 62.5489 44.6196 62.6809 44.5984C62.9317 44.5526 63.1729 44.4901 63.4212 44.4013L63.4272 44.4311Z" fill="black"/>
<path d="M47.8675 40.4977C47.8675 40.4977 47.992 38.9438 47.4957 37.0978C47.1251 35.7208 46.5043 34.9091 46.1396 33.5618C45.5298 31.3064 47.2777 26.7866 47.5553 26.8466C48.0748 26.943 49.1459 29.771 49.7283 32.4405C50.0902 34.1101 50.2168 36.6018 49.6405 38.1195C49.1739 39.3855 47.8675 40.4977 47.8675 40.4977Z" fill="white"/>
<path d="M57.5383 39.8972C57.3927 40.1257 56.8474 40.1209 56.3815 40.0811C55.4403 39.9849 54.9953 39.7115 54.7645 39.5797C54.134 39.2146 53.7445 38.7872 53.7445 38.7872C53.8735 38.5684 54.3938 38.5102 55.1494 37.9943C55.6287 37.6719 55.8906 37.376 56.3338 37.3957C56.4324 37.3939 56.5275 37.4051 56.612 37.4558C56.9343 37.6121 56.858 37.9997 57.204 38.6405C57.334 38.8862 57.3864 38.9001 57.4712 39.1056C57.5334 39.291 57.684 39.6688 57.5383 39.8972Z" fill="#F2F2F2"/>
<path d="M56.2424 38.8354C56.4767 39.4739 57.0015 39.8667 57.2958 39.7625C57.6067 39.6487 57.4331 39.0966 57.2153 38.4484C56.9809 37.8099 56.7261 37.5593 56.5148 37.6154C56.1516 37.7152 56.0246 38.1872 56.2424 38.8354Z" fill="#3E386D"/>
<path d="M64.0064 39.3568C64.2267 39.1626 65.2608 39.1712 65.4533 39.2366C65.6458 39.3019 65.7991 39.3569 65.9276 39.5036C66.2098 39.8599 66.0389 40.3906 65.8856 40.8558C65.7701 41.2326 65.3322 41.8186 65.21 41.8563C65.0878 41.894 64.9952 41.9256 64.9525 41.9282C64.9525 41.9282 63.9092 41.5377 63.7033 40.794C63.5822 40.2557 63.786 39.551 64.0064 39.3568Z" fill="#322B55"/>
<path d="M56.7824 37.3343C57.0098 37.1138 57.2727 36.7621 57.149 36.701C56.9897 36.6163 55.9851 37.1217 55.4668 37.4335C54.288 38.1174 53.7942 38.7027 53.7942 38.7027C53.7942 38.7027 54.4795 38.2387 55.5746 37.8137C56.8191 37.3019 56.6047 37.5259 56.7824 37.3343Z" fill="black"/>
<path d="M56.7824 37.3343C57.0098 37.1138 57.2727 36.7621 57.149 36.701C56.9897 36.6163 55.9851 37.1217 55.4668 37.4335C54.288 38.1174 53.7942 38.7027 53.7942 38.7027C53.7942 38.7027 54.4795 38.2387 55.5746 37.8137C56.8191 37.3019 56.6047 37.5259 56.7824 37.3343Z" stroke="black" stroke-miterlimit="10"/>
<path d="M57.5224 39.5564C57.5415 39.5896 57.5606 39.6227 57.5702 39.6393C57.5894 39.6725 57.612 39.6926 57.6216 39.7091C57.6277 39.7388 57.6503 39.7589 57.6528 39.8016C57.6624 39.8182 57.672 39.8348 57.6649 39.861C57.671 39.8907 57.671 39.8907 57.6735 39.9334L57.6257 39.8505C57.6911 39.868 57.74 39.895 57.8055 39.9125L57.8448 39.923C57.8579 39.9265 57.871 39.93 57.8579 39.9265C57.8579 39.9265 57.8579 39.9265 57.8448 39.923L57.8282 39.9326C57.8246 39.9457 57.8211 39.9587 57.8211 39.9587C57.8176 39.9718 57.8211 39.9587 57.8211 39.9587L57.8246 39.9457C57.8317 39.9195 57.8317 39.9195 57.8448 39.923C57.8483 39.9099 57.8483 39.9099 57.8448 39.923C57.8544 39.9395 57.8448 39.923 57.8186 39.916C57.7924 39.909 57.7662 39.902 57.74 39.895C57.7138 39.888 57.6841 39.8942 57.6448 39.8837C57.6317 39.8802 57.6186 39.8767 57.5889 39.8828C57.5758 39.8793 57.5627 39.8758 57.5496 39.8723C57.5365 39.8688 57.5103 39.8618 57.5042 39.8322L57.4947 39.8156L57.4931 39.717L57.4942 39.6611L57.4977 39.648C57.5108 39.6515 57.4811 39.6576 57.5143 39.6384L57.5072 39.6646L57.4977 39.648C57.544 39.6323 57.5108 39.6515 57.5143 39.6384L57.5239 39.655L57.5561 39.6917L57.604 39.7746L57.5944 39.758C57.5717 39.7379 57.5813 39.7545 57.5979 39.7449C57.611 39.7484 57.6241 39.7519 57.6372 39.7554C57.6634 39.7624 57.7062 39.7598 57.7324 39.7668C57.7717 39.7772 57.8015 39.7711 57.8372 39.7947C57.8503 39.7982 57.8765 39.8052 57.8992 39.8252C57.9219 39.8453 57.9445 39.8654 57.9471 39.9081C57.9496 39.9509 57.9425 39.9771 57.9224 39.9998C57.9189 40.0129 57.9153 40.0259 57.9189 40.0129L57.9224 39.9998C57.9224 39.9998 57.9259 39.9867 57.9224 39.9998C57.9189 40.0129 57.9153 40.0259 57.9118 40.039C57.9083 40.0521 57.8917 40.0617 57.8786 40.0582C57.8619 40.0678 57.8619 40.0678 57.8619 40.0678C57.8191 40.0704 57.806 40.0669 57.7929 40.0635C57.7798 40.06 57.7536 40.053 57.7405 40.0495C57.675 40.032 57.6095 40.0146 57.5607 39.9875L57.5128 39.9046C57.5093 39.9177 57.5163 39.8915 57.5032 39.888C57.5068 39.8749 57.4972 39.8584 57.4841 39.8549L57.4398 39.7589C57.4967 39.7039 57.5012 39.635 57.5224 39.5564Z" fill="black"/>
<path d="M56.6315 38.7431C56.7748 39.1468 57.0354 39.4271 57.1908 39.3701C57.3628 39.3035 57.3798 38.9286 57.2364 38.5249C57.093 38.1213 56.8324 37.841 56.677 37.898C56.5086 37.9514 56.4881 38.3395 56.6315 38.7431Z" fill="black"/>
<path d="M56.6315 38.7431C56.7748 39.1468 57.0354 39.4271 57.1908 39.3701C57.3628 39.3035 57.3798 38.9286 57.2364 38.5249C57.093 38.1213 56.8324 37.841 56.677 37.898C56.5086 37.9514 56.4881 38.3395 56.6315 38.7431Z" stroke="black" stroke-miterlimit="10"/>
<path d="M56.8858 34.7483C56.9229 34.8706 56.8402 35.0735 56.6174 35.2249C56.2748 35.4569 55.4854 35.5275 54.8613 35.7126C53.2274 36.1625 52.3204 37.7621 52.3204 37.7621C52.3204 37.7621 52.9332 36.2668 54.2647 35.4832C55.3709 34.8083 56.8522 34.6128 56.8858 34.7483Z" fill="black"/>
<path d="M56.8858 34.7481C56.9098 34.8669 56.8614 34.9946 56.7809 35.0856C56.7003 35.1766 56.6103 35.251 56.4976 35.3053C56.2758 35.4008 56.048 35.4665 55.8106 35.5157C55.3454 35.6307 54.8647 35.6993 54.4306 35.9069C54.0001 36.1013 53.6041 36.3753 53.2629 36.706C52.9217 37.0368 52.6127 37.4042 52.3654 37.8022L52.2418 37.7411C52.4474 37.2898 52.7148 36.8691 53.0143 36.4851C53.3269 36.1046 53.6977 35.7677 54.1163 35.5138C54.5348 35.2599 54.9915 35.0724 55.4602 34.9444C55.688 34.8786 55.9289 34.8163 56.1628 34.7802C56.2814 34.7557 56.3966 34.7442 56.5248 34.7362C56.5841 34.7239 56.6399 34.7247 56.7088 34.729C56.7385 34.7229 56.7646 34.7298 56.8038 34.7403C56.837 34.721 56.8667 34.7149 56.8858 34.7481ZM56.8858 34.7481C56.8667 34.7149 56.837 34.721 56.8109 34.7141C56.7848 34.7071 56.7551 34.7132 56.7159 34.7028C56.6601 34.702 56.5877 34.7108 56.5319 34.71C56.4167 34.7214 56.285 34.7425 56.1663 34.7671C55.9289 34.8163 55.688 34.8786 55.4602 34.9444C55.0011 35.089 54.5539 35.2931 54.1484 35.5505C53.7394 35.821 53.3982 36.1517 53.0987 36.5357C52.8027 36.9066 52.5484 37.3308 52.363 37.7593L52.2393 37.6983C52.5067 37.2775 52.8158 36.9101 53.17 36.5829C53.5374 36.2591 53.9464 35.9886 54.3865 35.8108C54.8432 35.6233 55.3204 35.5677 55.782 35.4659C56.0194 35.4167 56.2567 35.3676 56.4655 35.2686C56.5781 35.2143 56.6777 35.1565 56.7452 35.062C56.8649 34.9815 56.9098 34.8669 56.8858 34.7481Z" fill="black"/>
<path d="M65.4629 39.9852C65.4086 40.083 65.3542 40.1808 65.2998 40.2786C65.2586 40.3799 65.2077 40.4646 65.1795 40.5694C65.1382 40.6707 65.1528 40.7729 65.0889 40.8541C65.025 40.9353 64.9611 41.0166 64.8283 41.0935L64.7891 41.083C64.7509 41.0167 64.7258 40.9538 64.7137 40.8944C64.7017 40.8351 64.7063 40.7661 64.7073 40.7102C64.726 40.5888 64.8195 40.5015 64.9 40.4106C64.9674 40.3163 65.061 40.2289 65.1511 40.1547C65.2411 40.0804 65.3407 40.0228 65.4403 39.9651L65.4629 39.9852Z" fill="black"/>
<path d="M56.6641 37.375C56.8308 37.588 56.9966 37.857 57.1482 38.1784C57.4549 38.808 57.549 39.395 57.5905 39.8135" stroke="black" stroke-miterlimit="10"/>
<path d="M63.1922 45.8318C62.7345 45.8647 62.2647 45.8379 61.7924 45.7682C61.3367 45.6888 60.8786 45.5664 60.4346 45.3913C60.0002 45.233 59.5598 45.0448 59.1632 44.7977C58.7666 44.5507 58.3973 44.2545 58.0849 43.903L58.1051 43.8802C58.5052 44.1141 58.9053 44.3479 59.3125 44.5555C59.7197 44.763 60.1032 45.0065 60.5305 45.1912C60.9448 45.3725 61.3827 45.5177 61.8313 45.6234C62.2799 45.7291 62.7391 45.7954 63.1993 45.8055L63.1922 45.8318Z" fill="black"/>
</svg>
