<svg width="83" height="84" viewBox="0 0 83 84" fill="none" xmlns="http://www.w3.org/2000/svg">
<g opacity="0.5">
<path d="M38.9792 69.9471C39.9315 69.6935 39.5375 69.4999 38.317 67.7911C37.519 66.6705 38.2482 66.7122 39.7366 64.2418C40.2081 63.473 40.1102 63.1164 39.2484 63.0574C37.8341 62.9496 36.4256 62.8224 35.0064 62.7502C32.668 62.6342 34.2313 59.5396 33.627 59.1581C33.4388 59.0401 33.3132 59.1996 33.1787 59.2983C19.3015 70.2685 19.6847 69.9506 18.7883 70.9617C18.3878 71.4123 18.7366 71.7621 19.1622 71.7001C28.7241 70.3658 34.8232 70.5861 38.9792 69.9471ZM32.8802 66.5819C33.7487 66.3252 34.6352 66.116 35.5003 65.8529C36.022 65.6969 36.4065 65.8136 36.7354 66.2318C37.4948 67.1929 38.1597 68.2061 38.7496 69.2771C38.9162 69.5794 38.8797 69.6324 38.5435 69.678C38.1053 69.747 29.0045 70.2935 21.3504 71.0366C20.3532 71.1343 20.3504 71.1441 20.315 71.065C20.2431 70.8747 28.7668 67.805 32.8802 66.5819ZM21.542 70.192C21.9064 69.4822 31.0182 64.1261 32.6995 63.1834C33.3575 62.8128 33.235 62.8885 38.5752 63.3707C38.7205 63.381 38.9435 63.3239 38.9792 63.493C39.0026 63.5951 38.79 63.6712 38.664 63.7406C33.7574 66.6242 29.7587 66.8481 21.542 70.192ZM33.3332 59.8619C33.3302 62.0477 33.4929 62.2537 32.7103 62.7259C19.3151 70.9343 19.9748 70.6859 19.8606 70.5681C19.6929 70.3977 20.6068 69.5823 20.8001 69.4265C33.7461 59.2403 33.2746 59.4426 33.3332 59.8619ZM39.3722 63.9828C39.4614 64.0404 39.401 64.1393 39.3553 64.2055C37.8745 66.3022 37.7538 66.6643 37.3534 66.3101C36.7628 65.7897 36.3199 65.4179 36.7637 65.1652C38.548 64.1412 39.1206 63.8093 39.3722 63.9828Z" fill="black"/>
<path opacity="0.5" d="M38.8192 64.2413C45.8386 58.681 57.3533 44.5129 47.2567 32.3231C34.6359 17.0859 35.6695 41.9047 43.0254 39.8348C48.9102 38.1788 59.7683 19.6298 64.4618 10.5623" stroke="black" stroke-dasharray="3 2"/>
</g>
</svg>
