<svg width="262" height="241" viewBox="0 0 262 241" fill="none" xmlns="http://www.w3.org/2000/svg">
<path d="M26.5353 119.954C26.5353 119.954 26.7567 154.789 60.2467 178.373C93.7367 201.957 141.111 204.14 179.437 206.763C217.763 209.385 247.833 191.254 253.158 163.398C258.483 135.542 229.404 127.032 214.494 95.0962C199.584 63.1605 201.327 52.7342 168.262 32.83C135.197 12.9257 82.1364 24.3447 53.4823 57.5251C24.8282 90.7054 26.5353 119.954 26.5353 119.954Z" fill="#E6E1FF"/>
<path d="M220.839 116.333H87.5432V202.581H220.839V116.333Z" fill="#263238" stroke="#263238" stroke-width="0.950778" stroke-linecap="round" stroke-linejoin="round"/>
<path d="M220.839 175.855H87.5432V202.581H220.839V175.855Z" fill="#6B6B6B" stroke="#263238" stroke-width="0.950778" stroke-linecap="round" stroke-linejoin="round"/>
<path d="M136.572 152.893H90.7769V187.979H136.572V152.893Z" fill="#6656B8" stroke="#263238" stroke-width="0.950778" stroke-linecap="round" stroke-linejoin="round"/>
<path d="M134.719 155.002H92.618V185.864H134.719V155.002Z" fill="white" stroke="#263238" stroke-width="0.950778" stroke-linecap="round" stroke-linejoin="round"/>
<path d="M104.259 181.658L102.179 183.499" stroke="#263238" stroke-width="0.950778" stroke-linecap="round" stroke-linejoin="round"/>
<path d="M133.175 156.039L107.248 179.007" stroke="#263238" stroke-width="0.950778" stroke-linecap="round" stroke-linejoin="round"/>
<path d="M127.267 164.686L112.439 177.824" stroke="#263238" stroke-width="0.950778" stroke-linecap="round" stroke-linejoin="round"/>
<path d="M217.902 152.893H172.107V187.979H217.902V152.893Z" fill="#6656B8" stroke="#263238" stroke-width="0.950778" stroke-linecap="round" stroke-linejoin="round"/>
<path d="M216.056 155.002H173.954V185.864H216.056V155.002Z" fill="white" stroke="#263238" stroke-width="0.950778" stroke-linecap="round" stroke-linejoin="round"/>
<path d="M185.595 181.658L183.515 183.499" stroke="#263238" stroke-width="0.950778" stroke-linecap="round" stroke-linejoin="round"/>
<path d="M214.506 156.039L188.584 179.007" stroke="#263238" stroke-width="0.950778" stroke-linecap="round" stroke-linejoin="round"/>
<path d="M208.604 164.686L193.776 177.824" stroke="#263238" stroke-width="0.950778" stroke-linecap="round" stroke-linejoin="round"/>
<path d="M174.438 197.308L172.107 193.666L175.749 194.977L175.312 191.481L177.205 194.394L177.351 189.151L178.371 192.646L180.701 186.092L180.992 192.938L183.76 191.336L182.158 194.394L184.197 193.083L184.051 195.268L186.673 193.957L184.925 197.162L174.438 197.308Z" fill="white"/>
<path d="M189.732 197.308L187.402 193.666L191.043 194.977L190.606 191.481L192.5 194.394L192.645 189.151L193.665 192.646L195.996 186.092L196.287 192.938L199.054 191.336L197.452 194.394L199.491 193.083L199.346 195.268L201.968 193.957L200.22 197.162L189.732 197.308Z" fill="white"/>
<path d="M204.881 197.308L202.55 193.666L206.192 194.977L205.755 191.481L207.648 194.394L207.794 189.151L208.814 192.646L211.144 186.092L211.435 192.938L214.203 191.336L212.601 194.394L214.64 193.083L214.494 195.268L217.116 193.957L215.368 197.162L204.881 197.308Z" fill="white"/>
<path d="M92.1404 197.308L89.8099 193.666L93.4514 194.977L93.0144 191.481L94.908 194.394L95.0536 189.151L96.0732 192.646L98.4038 186.092L98.6951 192.938L101.463 191.336L99.8604 194.394L101.9 193.083L101.754 195.268L104.376 193.957L102.628 197.162L92.1404 197.308Z" fill="white"/>
<path d="M107.435 197.308L105.104 193.666L108.745 194.977L108.309 191.481L110.202 194.394L110.348 189.151L111.367 192.646L113.698 186.092L113.989 192.938L116.757 191.336L115.154 194.394L117.194 193.083L117.048 195.268L119.67 193.957L117.922 197.162L107.435 197.308Z" fill="white"/>
<path d="M122.583 197.308L120.252 193.666L123.894 194.977L123.457 191.481L125.351 194.394L125.496 189.151L126.516 192.646L128.846 186.092L129.138 192.938L131.905 191.336L130.303 194.394L132.342 193.083L132.197 195.268L134.818 193.957L133.07 197.162L122.583 197.308Z" fill="white"/>
<path d="M220.839 196.399H87.5432V202.575H220.839V196.399Z" fill="#6B6B6B" stroke="#263238" stroke-width="0.950778" stroke-linecap="round" stroke-linejoin="round"/>
<path d="M168.46 149.898H139.561V202.575H168.46V149.898Z" fill="#6656B8" stroke="#263238" stroke-width="0.950778" stroke-linecap="round" stroke-linejoin="round"/>
<path d="M166.17 179.898H141.391V152.462H166.17V179.898ZM166.17 182.811H141.391V199.638H166.17V182.811Z" fill="white" stroke="#263238" stroke-width="0.950778" stroke-linecap="round" stroke-linejoin="round"/>
<path d="M167.638 173.449H166.735V183.068H167.638V173.449Z" fill="#263238" stroke="#263238" stroke-width="0.950778" stroke-linecap="round" stroke-linejoin="round"/>
<path d="M145.219 174.323L143.785 175.593" stroke="#263238" stroke-width="0.950778" stroke-linecap="round" stroke-linejoin="round"/>
<path d="M165.151 156.669L147.275 172.499" stroke="#263238" stroke-width="0.950778" stroke-linecap="round" stroke-linejoin="round"/>
<path d="M161.078 162.623L150.859 171.683" stroke="#263238" stroke-width="0.950778" stroke-linecap="round" stroke-linejoin="round"/>
<path d="M149.816 196.876L148.714 197.855" stroke="#263238" stroke-width="0.950778" stroke-linecap="round" stroke-linejoin="round"/>
<path d="M165.15 183.289L151.4 195.472" stroke="#263238" stroke-width="0.950778" stroke-linecap="round" stroke-linejoin="round"/>
<path d="M162.016 187.875L154.156 194.843" stroke="#263238" stroke-width="0.950778" stroke-linecap="round" stroke-linejoin="round"/>
<path opacity="0.3" d="M220.839 136.638H87.8286V154.536H220.839V136.638Z" fill="black"/>
<path d="M222.826 126.302H85.6498V151.833H222.826V126.302Z" fill="white" stroke="#263238" stroke-width="0.950778" stroke-linecap="round" stroke-linejoin="round"/>
<path d="M99.2951 126.302H92.9793V151.833H99.2951V126.302Z" fill="#6656B8" stroke="#263238" stroke-width="0.950778" stroke-linecap="round" stroke-linejoin="round"/>
<path d="M112.678 126.302H106.362V151.833H112.678V126.302Z" fill="#6656B8" stroke="#263238" stroke-width="0.950778" stroke-linecap="round" stroke-linejoin="round"/>
<path d="M126.067 126.302H119.752V151.833H126.067V126.302Z" fill="#6656B8" stroke="#263238" stroke-width="0.950778" stroke-linecap="round" stroke-linejoin="round"/>
<path d="M138.804 126.302H132.488V151.833H138.804V126.302Z" fill="#6656B8" stroke="#263238" stroke-width="0.950778" stroke-linecap="round" stroke-linejoin="round"/>
<path d="M151.54 126.302H145.225V151.833H151.54V126.302Z" fill="#6656B8" stroke="#263238" stroke-width="0.950778" stroke-linecap="round" stroke-linejoin="round"/>
<path d="M164.271 126.302H157.955V151.833H164.271V126.302Z" fill="#6656B8" stroke="#263238" stroke-width="0.950778" stroke-linecap="round" stroke-linejoin="round"/>
<path d="M177.007 126.302H170.691V151.833H177.007V126.302Z" fill="#6656B8" stroke="#263238" stroke-width="0.950778" stroke-linecap="round" stroke-linejoin="round"/>
<path d="M189.744 126.302H183.428V151.833H189.744V126.302Z" fill="#6656B8" stroke="#263238" stroke-width="0.950778" stroke-linecap="round" stroke-linejoin="round"/>
<path d="M202.48 126.302H196.164V151.833H202.48V126.302Z" fill="#6656B8" stroke="#263238" stroke-width="0.950778" stroke-linecap="round" stroke-linejoin="round"/>
<path d="M215.211 126.302H208.895V151.833H215.211V126.302Z" fill="#6656B8" stroke="#263238" stroke-width="0.950778" stroke-linecap="round" stroke-linejoin="round"/>
<path d="M233.604 118.039C233.604 118.039 224.981 120.084 220.541 127.087L220.378 117.427C221.059 116.262 225.895 108.583 233.604 106.229C233.604 106.229 224.759 108.635 220.349 115.784L219.941 91.896L219.818 120.964C215.478 114.223 207.443 112.265 207.443 112.265C214.668 114.555 219.003 121.511 219.813 122.904L219.772 132.453C215.414 125.8 207.443 123.842 207.443 123.842C214.534 126.091 218.84 132.826 219.76 134.394L219.48 200.966H221.811L220.786 140.523C221.59 139.177 226.093 132.162 233.604 129.861C233.604 129.861 225.231 131.847 220.739 138.6L220.576 128.975C221.432 127.548 226.099 120.329 233.604 118.039Z" fill="#263238"/>
<path d="M229.263 199.206H210.869V203.43H229.263V199.206Z" fill="white" stroke="#263238" stroke-width="0.950778" stroke-linecap="round" stroke-linejoin="round"/>
<path d="M235.574 202.528H55.5988V206.071H235.574V202.528Z" fill="white" stroke="#263238" stroke-width="0.950778" stroke-linecap="round" stroke-linejoin="round"/>
<path d="M13.7639 206.07H261.964" stroke="#263238" stroke-width="0.950778" stroke-miterlimit="10"/>
<path opacity="0.2" d="M66.6908 240.427C103.03 240.427 132.488 236.358 132.488 231.337C132.488 226.317 103.03 222.248 66.6908 222.248C30.3521 222.248 0.893677 226.317 0.893677 231.337C0.893677 236.358 30.3521 240.427 66.6908 240.427Z" fill="#6656B8"/>
<path d="M57.252 107.365C57.252 107.365 51.4138 125.309 50.1107 134.388C48.8076 143.467 46.2185 168.766 46.2185 168.766C41.6307 174.485 38.6138 181.302 37.4654 188.544C35.8451 200.117 36.3852 215.703 36.3852 215.703C36.3852 215.703 35.0907 217.649 35.0907 218.627C35.0907 219.604 35.305 221.764 35.305 221.764C32.9248 223.617 30.6494 225.6 28.4894 227.705C26.1147 230.192 26.5433 234.521 26.5433 235.704C26.5433 236.887 27.9493 238.627 28.7123 238.627C29.4753 238.627 34.6534 237.65 37.2854 235.49C39.9173 233.329 39.9859 228.897 40.6374 226.917C41.289 224.936 45.6784 219.132 45.6784 219.132C46.3369 219.063 46.9517 218.77 47.4199 218.302C47.8881 217.834 48.1812 217.219 48.2503 216.56C48.4646 214.186 49.0047 209.968 49.2191 209.102C49.4334 208.236 58.5208 193.533 60.5698 184.669C62.6188 175.804 69.0057 162.516 71.2775 156.678C73.5494 150.839 78.4103 138.949 78.4103 138.949L79.3876 138.623C79.3876 138.623 77.5444 164.342 77.0043 172.461C76.4642 180.579 76.3528 182.62 76.3528 193.319C76.3528 204.018 80.5707 221.61 80.5707 221.61V227.122C80.5707 227.448 81.428 227.774 83.0569 227.877C84.6858 227.98 89.4524 228.005 90.6441 228.734C91.8357 229.463 96.6966 230.029 101.669 229.814C106.641 229.6 109.239 228.734 108.699 227.757C108.159 226.78 99.62 223.47 98.2141 222.57C96.8081 221.67 93.5418 219.518 93.5418 219.518C93.5418 219.518 93.7646 216.715 93.0016 215.412C92.2386 214.109 91.9214 214.229 91.9214 212.84C91.9214 211.451 95.0592 193.053 95.9251 184.3C96.7909 175.547 101.438 163.107 101.763 153.814C102.089 144.521 101.223 137.38 100.46 126.783C100.016 120.449 98.8955 114.181 97.1167 108.086L57.252 107.365Z" fill="#263238" stroke="#263238" stroke-width="0.950778" stroke-linecap="round" stroke-linejoin="round"/>
<path d="M94.2189 111.361H98.0254C97.5196 109.303 97.1681 108.12 97.1681 108.12L94.2447 108.06L94.2189 111.361Z" fill="#595959" stroke="#263238" stroke-width="0.950778" stroke-linecap="round" stroke-linejoin="round"/>
<path d="M64.4875 111.361H73.6778V107.674L64.4875 107.503V111.361Z" fill="#595959" stroke="#263238" stroke-width="0.950778" stroke-linecap="round" stroke-linejoin="round"/>
<path d="M62.5417 107.46L57.2521 107.365C57.2521 107.365 56.7377 108.926 55.9919 111.361H62.5417V107.46Z" fill="#595959" stroke="#263238" stroke-width="0.950778" stroke-linecap="round" stroke-linejoin="round"/>
<path d="M88.4921 107.906H82.4395V111.258H88.4921V107.906Z" fill="white" stroke="#263238" stroke-width="0.950778" stroke-linecap="round" stroke-linejoin="round"/>
<path d="M111.408 122.069C111.408 122.069 113.354 130.384 112.814 135.468C112.608 137.406 110.002 143.038 109.462 143.364C108.935 143.533 108.368 143.533 107.841 143.364C108.238 142.304 108.562 141.219 108.81 140.115C108.922 139.258 109.033 136.874 109.033 136.874C108.408 138.26 107.683 139.598 106.864 140.878C106.132 141.611 105.294 142.23 104.378 142.713C104.186 142.7 104 142.646 103.832 142.552C103.665 142.459 103.52 142.329 103.409 142.172C103.195 141.847 104.266 141.092 104.815 139.901C105.364 138.709 106.221 136.471 106.221 136.471C105.441 137.474 104.581 138.411 103.649 139.275C102.797 139.897 101.847 140.373 100.837 140.681C100.511 140.681 99.8685 139.498 100.194 139.386C100.52 139.275 103.221 137.766 103.538 137.226C103.835 136.773 104.161 136.341 104.515 135.931C103.246 136.444 101.946 136.876 100.623 137.226C100.083 137.226 99.8685 136.368 99.8685 136.368L103.435 134.534L104.292 132.365C103.852 130.702 103.852 128.953 104.292 127.29C105.047 124.803 105.372 123.072 105.372 123.072L111.408 122.069Z" fill="#6656B8" stroke="#263238" stroke-width="0.950778" stroke-linecap="round" stroke-linejoin="round"/>
<path d="M107.627 125.635C107.627 125.635 107.73 129.202 108.382 129.922C109.033 130.642 110.216 131.542 110.216 132.297C110.216 133.051 109.033 137.38 109.359 137.706C109.458 137.836 109.591 137.934 109.744 137.991C109.896 138.047 110.062 138.059 110.221 138.025C110.38 137.991 110.527 137.912 110.643 137.798C110.759 137.684 110.84 137.539 110.876 137.38C111.562 135.013 112.032 132.588 112.282 130.136" fill="#6656B8"/>
<path d="M107.627 125.635C107.627 125.635 107.73 129.202 108.382 129.922C109.033 130.642 110.216 131.542 110.216 132.297C110.216 133.051 109.033 137.38 109.359 137.706C109.458 137.836 109.591 137.934 109.744 137.991C109.896 138.047 110.062 138.059 110.221 138.025C110.38 137.991 110.527 137.912 110.643 137.798C110.759 137.684 110.84 137.539 110.876 137.38C111.562 135.013 112.032 132.588 112.282 130.136" stroke="#263238" stroke-width="0.950778" stroke-linecap="round" stroke-linejoin="round"/>
<path d="M102.218 62.8202C102.218 62.8202 105.141 80.4464 105.458 85.7445C105.775 91.0427 105.784 95.0377 105.784 95.0377L111.408 122.069L105.355 123.037C105.355 123.037 98.2225 108.463 96.7822 106.749C95.342 105.034 94.6133 101.776 95.1619 97.1295C95.7106 92.4829 95.2648 67.0724 96.345 64.0461C96.5371 63.4703 96.8768 62.9549 97.3302 62.5514C97.7836 62.1478 98.3349 61.8702 98.9291 61.7461C99.5233 61.6221 100.14 61.656 100.717 61.8444C101.294 62.0329 101.811 62.3693 102.218 62.8202V62.8202Z" fill="#EBEBEB" stroke="#263238" stroke-width="0.950778" stroke-linecap="round" stroke-linejoin="round"/>
<path d="M104.601 121.305L110.653 119.685" stroke="#263238" stroke-width="0.950778" stroke-linecap="round" stroke-linejoin="round"/>
<path d="M67.6252 45.0996C67.6252 45.0996 43.9464 54.9243 42.8662 55.3873C41.786 55.8502 41.0316 55.3873 40.4915 57.5477C39.9514 59.7081 30.9754 98.2525 31.3869 101.305C31.7984 104.357 38.4339 130.83 38.4339 130.83L45.9011 129.536L46.7584 97.6439L50.762 87.4762C50.762 87.4762 56.0601 100.773 55.9487 101.862C55.8372 102.951 54.5427 105.428 55.3057 106.834C55.6853 107.601 56.2405 108.268 56.926 108.78H98.0767C98.0767 108.78 100.649 107.923 100.777 106.723C100.694 104.98 100.48 103.246 100.134 101.536C100.134 101.536 103.803 87.0476 103.803 76.9914C103.803 66.9352 102.62 58.6193 100.992 56.236C99.3626 53.8527 93.533 51.478 88.2434 49.6433C82.9538 47.8087 78.513 46.0769 73.7549 45.6483C68.9969 45.2196 67.6252 45.0996 67.6252 45.0996Z" fill="#EBEBEB" stroke="#263238" stroke-width="0.950778" stroke-linecap="round" stroke-linejoin="round"/>
<path d="M81.7809 91.2126C81.7809 91.2126 84.7139 104.384 84.7139 111.771C84.7139 119.159 84.9127 127.999 85.3101 129.404C85.7076 130.809 86.3175 133.207 84.9127 134.811" stroke="#263238" stroke-width="0.950778" stroke-linecap="round" stroke-linejoin="round"/>
<path d="M53.9582 118.604L59.2281 105.816" stroke="#263238" stroke-width="0.950778" stroke-linecap="round" stroke-linejoin="round"/>
<path d="M56.6375 112.731L61.5648 106.508" stroke="#263238" stroke-width="0.950778" stroke-linecap="round" stroke-linejoin="round"/>
<path d="M37.6796 127.469L45.9011 126.604" stroke="#263238" stroke-width="0.950778" stroke-linecap="round" stroke-linejoin="round"/>
<path d="M85.4133 87.1555L87.4006 91.3838L82.9051 88.8825L85.4133 87.1555Z" fill="white" stroke="#263238" stroke-width="0.950778" stroke-linecap="round" stroke-linejoin="round"/>
<path d="M81.7809 91.2126L85.4129 87.1557L81.87 85.4219L81.7809 91.2126Z" fill="white" stroke="#263238" stroke-width="0.950778" stroke-linecap="round" stroke-linejoin="round"/>
<path d="M79.1015 86.5459L81.781 91.2127L76.6002 88.6223L79.1015 86.5459Z" fill="white" stroke="#263238" stroke-width="0.950778" stroke-linecap="round" stroke-linejoin="round"/>
<path d="M87.8406 112.655C87.8406 112.655 89.2466 121.743 87.7291 126.715" stroke="#5C656A" stroke-width="0.950778" stroke-linecap="round" stroke-linejoin="round"/>
<path d="M82.9796 114.713C82.9796 114.713 84.3855 123.689 83.8369 129.956" stroke="#5C656A" stroke-width="0.950778" stroke-linecap="round" stroke-linejoin="round"/>
<path d="M87.9691 128.259C87.6434 128.584 85.1572 129.776 84.5399 131.285C83.8555 132.729 83.0972 134.137 82.2681 135.503" stroke="#5C656A" stroke-width="0.950778" stroke-linecap="round" stroke-linejoin="round"/>
<path d="M70.866 112.115L67.9511 120.98" stroke="#5C656A" stroke-width="0.950778" stroke-linecap="round" stroke-linejoin="round"/>
<path d="M72.0574 112.227L71.4059 126.175" stroke="#5C656A" stroke-width="0.950778" stroke-linecap="round" stroke-linejoin="round"/>
<path d="M95.5135 112.115L97.3568 120.122" stroke="#5C656A" stroke-width="0.950778" stroke-linecap="round" stroke-linejoin="round"/>
<path d="M95.0849 112.338C95.0849 112.338 94.3304 119.9 94.3304 120.225" stroke="#5C656A" stroke-width="0.950778" stroke-linecap="round" stroke-linejoin="round"/>
<path d="M49.2019 143.133H33.6932C33.3749 143.133 33.0696 143.259 32.8445 143.484C32.6194 143.709 32.493 144.015 32.493 144.333V150.66C32.493 150.978 32.6194 151.284 32.8445 151.509C33.0696 151.734 33.3749 151.86 33.6932 151.86H35.5107C35.1924 151.86 34.8871 151.734 34.662 151.509C34.4369 151.284 34.3105 150.978 34.3105 150.66V146.528C34.3105 146.209 34.4369 145.904 34.662 145.679C34.8871 145.454 35.1924 145.328 35.5107 145.328H47.3844C47.7027 145.328 48.008 145.454 48.2331 145.679C48.4581 145.904 48.5846 146.209 48.5846 146.528V150.66C48.5846 150.978 48.4581 151.284 48.2331 151.509C48.008 151.734 47.7027 151.86 47.3844 151.86H49.2019C49.5202 151.86 49.8255 151.734 50.0506 151.509C50.2756 151.284 50.4021 150.978 50.4021 150.66V144.333C50.4021 144.015 50.2756 143.709 50.0506 143.484C49.8255 143.259 49.5202 143.133 49.2019 143.133V143.133Z" fill="#263238" stroke="#263238" stroke-width="0.950778" stroke-linecap="round" stroke-linejoin="round"/>
<path d="M38.4342 130.83C38.4342 130.83 36.1623 139.695 36.5909 141.203C37.0196 142.712 38.2198 143.587 38.3056 143.913C38.3837 144.146 38.3833 144.4 38.3044 144.633C38.2254 144.867 38.0723 145.068 37.8683 145.207L37.3282 145.533C37.3282 145.533 36.8996 145.533 37.2253 146.176C37.3571 146.527 37.5973 146.827 37.9112 147.033C38.6228 147.393 39.06 146.664 39.703 146.57C40.3459 146.476 40.7489 147.179 41.3576 147.136C41.9662 147.093 42.292 146.484 42.8836 146.536C43.4751 146.587 43.8609 147.659 44.7182 147.282C45.0868 147.11 45.3526 146.742 45.7212 146.553C46.2699 146.27 47.0501 146.347 47.5387 145.927C47.9315 145.516 48.1733 144.984 48.2246 144.418C48.4218 143.312 45.8756 129.51 45.8756 129.51L38.4342 130.83Z" fill="#6656B8" stroke="#263238" stroke-width="0.950778" stroke-linecap="round" stroke-linejoin="round"/>
<path d="M63.4073 149.107H17.4214C15.5323 149.107 14.0008 150.639 14.0008 152.528V181.745C14.0008 183.634 15.5323 185.166 17.4214 185.166H63.4073C65.2965 185.166 66.8279 183.634 66.8279 181.745V152.528C66.8279 150.639 65.2965 149.107 63.4073 149.107Z" fill="#6656B8" stroke="#263238" stroke-width="0.950778" stroke-linecap="round" stroke-linejoin="round"/>
<path d="M14.1209 152.434L39.1028 170.077C39.7788 170.562 40.5898 170.823 41.4218 170.823C42.2538 170.823 43.0648 170.562 43.7408 170.077L66.6909 153.377" stroke="#263238" stroke-width="0.950778" stroke-linecap="round" stroke-linejoin="round"/>
<path d="M43.5178 167.703H39.2656V173.678H43.5178V167.703Z" fill="white" stroke="#263238" stroke-width="0.950778" stroke-linecap="round" stroke-linejoin="round"/>
<path d="M109.801 40.0182C109.868 40.2717 110.046 40.9974 109.793 41.7848C109.257 43.653 106.693 45.7956 106.693 45.7956L106.281 49.5171C105.983 50.9546 105.161 51.8953 104.193 52.3866C101.716 53.6778 97.6558 53.0873 96.3926 53.1286C92.6605 53.2643 91.4694 52.0918 89.2804 53.1424C88.8483 53.3537 87.2179 54.159 86.8906 55.7403C86.6287 57.0053 87.3266 58.107 87.4234 58.2166C88.3317 59.6011 89.8148 60.0842 89.8148 60.0842C89.8148 60.0842 87.9005 61.251 86.1881 60.721C84.361 60.1675 83.1542 58.782 83.1542 58.782C83.1542 58.782 83.1168 59.973 83.4957 60.7397C84.158 62.0139 84.9917 62.6039 84.9917 62.6039C84.9917 62.6039 82.388 63.0604 80.2847 61.8211C78.5529 60.8076 77.4429 59.5318 77.4429 59.5318C77.4429 59.5318 77.4363 60.4295 77.9764 61.1392C78.5165 61.849 79.1237 62.8123 79.1237 62.8123C79.1237 62.8123 77.7135 62.5538 76.911 62.3897C74.0571 61.7461 72.4694 58.3049 71.7521 56.7197C71.012 55.1 69.7017 52.1949 70.1374 48.3584C70.6446 44.1768 73.2013 39.1858 77.5128 37.5503C80.4659 36.4162 80.9123 38.1557 86.2012 37.8589C92.277 37.5132 93.6723 35.1015 100.129 35.2234C100.784 35.2373 103.217 35.3154 105.894 36.5223C107.336 37.2067 109.327 38.1233 109.801 40.0182Z" fill="#F2F2F2"/>
<path d="M89.4417 27.9846C90.1944 25.3549 91.0618 21.1622 90.819 15.9941C90.7662 15.3846 90.2406 5.81831 87.8378 5.32655C86.379 5.02798 84.8376 8.15479 83.9128 10.0309C82.1679 13.565 81.9257 16.8978 81.8808 17.5472C81.6732 20.8571 82.3225 24.4921 82.7644 25.9595C82.848 26.2759 83.2289 27.4614 83.3658 29.1058C83.3911 29.5599 83.4056 29.9221 83.4153 30.1635" fill="#423490"/>
<path d="M107.793 38.1529C107.072 38.6046 106.209 37.4395 103.887 37.1145C102.494 36.9194 101.402 37.1455 100.971 37.2071C98.7302 37.6475 98.5912 38.6076 96.5398 38.9969C95.3273 39.2282 95.3641 38.9062 92.9819 39.0182C90.5997 39.1301 90.5915 39.4579 88.9731 39.4864C86.758 39.5127 86.5332 38.8676 83.6602 38.6096C81.5786 38.4235 79.5904 38.7958 79.5904 38.7958L83.2373 39.931C83.2373 39.931 81.5914 39.8041 79.5161 40.3083C77.6939 40.7445 76.2386 42.0046 76.2386 42.0046C76.2386 42.0046 77.3927 41.9111 78.7321 42.3647C79.9342 42.7604 80.966 43.6903 80.966 43.6903C80.966 43.6903 78.1902 44.261 75.8246 46.0239C72.9567 48.1933 72.6442 52.4431 72.6442 52.4431L74.6044 51.1964C74.6044 51.1964 74.2781 54.2151 75.0496 56.9791C76.2124 61.1711 80.4592 63.4475 80.4592 63.4475C80.4592 63.4475 77.3413 62.9297 74.8853 61.379C72.6919 60.0018 70.8965 57.5676 70.8965 57.5676L72.1395 60.2183C72.1395 60.2183 69.6418 58.8687 67.9722 57.2691C66.6729 56.0448 67.0934 56.6101 65.5239 54.6715C64.0057 52.7734 66.0451 57.2075 64.7599 55.6266C63.9752 54.6573 70.1674 60.5495 69.1354 60.2238C65.3318 59.0235 57.3187 56.4548 57.7264 55.6395C58.8159 53.4059 61.7296 39.247 61.7296 39.247C61.7296 39.247 60.5482 37.5975 59.8641 35.4206C59.2195 33.3416 60.2111 31.1479 60.2111 31.1479C60.2111 31.1479 60.4617 32.9666 61.8847 35.3245C62.4689 36.2528 63.8244 37.6384 63.8244 37.6384C63.8244 37.6384 63.0269 35.2885 62.765 32.6588C62.3163 28.9124 65.362 22.855 65.362 22.855C65.362 22.855 65.2762 17.3555 66.6995 12.644C67.3998 10.2709 68.7478 7.22142 69.9019 7.12792C71.3316 7.00094 72.9346 9.06622 74.4169 12.7244C75.8549 16.1639 76.9107 19.2856 76.9107 19.2856C76.9107 19.2856 77.7 18.069 79.2997 16.6887C80.5355 15.6233 81.7777 15.2483 82.8362 14.8956C85.6834 13.9801 88.6066 14.4281 88.6066 14.4281C88.6066 14.4281 87.3524 14.8606 84.6869 16.0529C83.3051 16.6691 81.6682 17.6524 81.6682 17.6524C81.6682 17.6524 84.8301 16.0822 88.8583 16.0972C92.9151 16.1181 96.0565 18.1085 96.0565 18.1085C96.0565 18.1085 94.4879 17.608 91.9587 17.4203C89.5441 17.256 87.6013 17.6974 87.6013 17.6974C87.6013 17.6974 90.5311 17.2482 93.2688 18.7367C95.9778 20.2193 97.0872 23.0823 97.0872 23.0823C97.0872 23.0823 96.3895 21.9811 94.9496 21.1474C93.5383 20.3196 92.0059 20.3656 92.0059 20.3656C92.0059 20.3656 93.4777 20.7565 94.943 22.0447C96.2088 23.1424 96.7194 24.7146 96.7194 24.7146C96.7194 24.7146 95.5719 23.9108 93.5234 23.1324C93.1628 22.9987 91.925 22.7755 91.925 22.7755C91.925 22.7755 93.2779 23.7412 94.5069 25.1608C96.3104 27.2671 95.6119 28.6221 97.1646 30.4973C98.291 31.836 99.6758 32.3589 101.249 32.9803C104.877 34.3513 107.805 34.9202 107.805 34.9202C108.664 35.9645 108.508 37.7299 107.793 38.1529Z" fill="#6656B8"/>
<path d="M81.2199 24.3274C82.122 24.302 83.036 24.219 83.9332 24.0725C84.8304 23.9261 85.6881 23.6815 86.5578 23.3793C87.4274 23.0772 88.3198 22.8097 89.2397 22.6979C90.1537 22.6148 91.0845 22.5953 91.9795 22.7485L91.9735 22.7773C91.0715 22.8027 90.1694 22.8281 89.2722 22.9746C88.3809 23.0923 87.5004 23.3022 86.6368 23.5756C85.7731 23.8489 84.8639 24.053 83.9727 24.1707C83.0468 24.3113 82.1388 24.3655 81.2199 24.3274Z" fill="#B23640"/>
<path d="M77.0175 19.2299C77.4589 20.6968 77.78 22.169 78.0096 23.6523C78.2391 25.1357 78.3079 26.6758 78.3542 28.1815C78.3718 29.6812 78.2347 31.2091 77.8119 32.6785C77.3951 34.1192 76.7496 35.513 75.9506 36.7856C76.7496 35.513 77.3665 34.1133 77.7548 32.6668C78.1431 31.2203 78.2802 29.6924 78.2339 28.1868C78.1877 26.6811 78.0784 25.1925 77.8203 23.7033C77.5908 22.22 77.2351 20.7707 76.7878 19.3325L77.0175 19.2299Z" fill="#B23640"/>
<path d="M65.4824 22.8088C65.8303 23.8682 66.2642 24.9452 66.7445 25.9419C67.2189 26.9673 67.797 27.9241 68.4038 28.8867C69.0106 29.8493 69.5482 30.8577 69.9593 31.9001C70.3705 32.9425 70.7065 34.0594 70.928 35.1528C70.6779 34.0535 70.3359 32.9654 69.8961 31.9171C69.4563 30.8688 68.9128 29.8892 68.2714 28.9494C67.6587 28.0155 67.0578 27.0242 66.5489 26.0217C66.0399 25.0192 65.5715 23.965 65.2009 22.871L65.4824 22.8088Z" fill="#B23640"/>
<path d="M106.792 45.6883C106.296 45.9172 105.771 46.1403 105.224 46.3286C104.965 46.4257 104.683 46.4881 104.43 46.5564C104.148 46.6188 103.888 46.7159 103.612 46.7495C102.496 46.9414 101.375 47.0122 100.261 46.9042C99.1414 46.825 98.0107 46.6534 96.9563 46.2571C95.902 45.8608 94.9001 45.3551 93.9914 44.6882L94.032 44.6364C95.0864 45.0327 96.118 45.3943 97.1615 45.6982C98.2051 46.0022 99.2486 46.3061 100.328 46.4371C101.407 46.5681 102.51 46.5838 103.586 46.4436C103.862 46.41 104.138 46.3764 104.391 46.3082C104.667 46.2746 104.921 46.2063 105.203 46.1439C105.738 46.0132 106.251 45.8478 106.775 45.6248L106.792 45.6883Z" fill="black"/>
<path d="M72.7203 39.1785C72.7203 39.1785 72.7909 35.8104 71.4846 31.8912C70.5091 28.9675 69.0659 27.2953 68.1071 24.4349C66.5035 19.6466 69.6997 9.67429 70.3064 9.76852C71.4399 9.91069 74.1122 15.8755 75.7092 21.5605C76.703 25.1165 77.2939 30.4758 76.2436 33.8229C75.398 36.6133 72.7203 39.1785 72.7203 39.1785Z" fill="white"/>
<path d="M93.51 36.6544C93.2249 37.1656 92.0474 37.2245 91.037 37.1977C88.9936 37.1094 87.9984 36.5762 87.4835 36.321C86.0762 35.6135 85.1812 34.741 85.1812 34.741C85.4316 34.2527 86.5469 34.0612 88.1118 32.8525C89.105 32.0965 89.6324 31.425 90.5914 31.4113C90.804 31.3948 91.0106 31.4071 91.1993 31.5057C91.9149 31.8019 91.7996 32.6476 92.6281 33.9861C92.9401 34.4995 93.0548 34.523 93.2641 34.9555C93.422 35.3474 93.7951 36.1432 93.51 36.6544Z" fill="#F2F2F2"/>
<path d="M90.5764 34.529C91.1633 35.877 92.3453 36.6579 92.9669 36.3956C93.6231 36.1105 93.1784 34.9413 92.6261 33.5704C92.0393 32.2223 91.4577 31.714 91.0091 31.8619C90.2383 32.1236 90.0241 33.158 90.5764 34.529Z" fill="#3E386D"/>
<path d="M107.394 34.6661C107.845 34.2192 110.078 34.1068 110.502 34.2234C110.926 34.34 111.263 34.4391 111.56 34.7392C112.214 35.4721 111.913 36.6386 111.641 37.6614C111.44 38.4888 110.57 39.8084 110.311 39.9052C110.052 40.002 109.856 40.0818 109.764 40.093C109.764 40.093 107.463 39.3827 106.924 37.8047C106.593 36.6589 106.943 35.1131 107.394 34.6661Z" fill="#322B55"/>
<path d="M91.552 31.2217C92.0148 30.7172 92.5371 29.9253 92.2625 29.8092C91.9079 29.6468 89.8041 30.8642 88.7255 31.6023C86.2687 33.2269 85.2775 34.552 85.2775 34.552C85.2775 34.552 86.6974 33.4643 89.0065 32.4087C91.6271 31.1472 91.1929 31.6575 91.552 31.2217Z" fill="black"/>
<path d="M91.552 31.2217C92.0148 30.7172 92.5371 29.9253 92.2625 29.8092C91.9079 29.6468 89.8041 30.8642 88.7255 31.6023C86.2687 33.2269 85.2775 34.552 85.2775 34.552C85.2775 34.552 86.6974 33.4643 89.0065 32.4087C91.6271 31.1472 91.1929 31.6575 91.552 31.2217Z" stroke="black" stroke-miterlimit="10"/>
<path d="M93.4306 35.9209C93.4761 35.9901 93.5216 36.0593 93.5443 36.0939C93.5898 36.1631 93.6412 36.2035 93.6639 36.2381C93.6807 36.3015 93.7321 36.3419 93.743 36.434C93.7657 36.4686 93.7884 36.5032 93.7766 36.5606C93.7933 36.6239 93.7933 36.6239 93.8042 36.716L93.6905 36.543C93.8339 36.5724 93.9427 36.6245 94.0861 36.6539L94.1721 36.6715C94.2008 36.6773 94.2295 36.6832 94.2008 36.6773C94.2008 36.6773 94.2008 36.6773 94.1721 36.6715L94.1375 36.6943C94.1316 36.7231 94.1256 36.7518 94.1256 36.7518C94.1197 36.7805 94.1256 36.7518 94.1256 36.7518L94.1316 36.7231C94.1434 36.6656 94.1434 36.6656 94.1721 36.6715C94.1781 36.6428 94.1781 36.6428 94.1721 36.6715C94.1949 36.7061 94.1721 36.6715 94.1148 36.6597C94.0574 36.648 94 36.6363 93.9427 36.6245C93.8853 36.6128 93.822 36.6298 93.736 36.6122C93.7073 36.6063 93.6786 36.6005 93.6153 36.6175C93.5866 36.6116 93.558 36.6057 93.5293 36.5999C93.5006 36.594 93.4432 36.5823 93.4265 36.5189L93.4037 36.4844L93.388 36.2715L93.3831 36.1507L93.389 36.122C93.4177 36.1279 93.3544 36.1449 93.4237 36.0991L93.4118 36.1566L93.389 36.122C93.487 36.0822 93.4177 36.1279 93.4237 36.0991L93.4464 36.1337L93.5205 36.2088L93.6342 36.3818L93.6115 36.3472C93.5601 36.3067 93.5828 36.3413 93.6174 36.3185C93.6461 36.3243 93.6748 36.3302 93.7035 36.3361C93.7608 36.3478 93.8528 36.3367 93.9102 36.3484C93.9962 36.366 94.0595 36.349 94.1396 36.3953C94.1683 36.4012 94.2256 36.4129 94.2771 36.4534C94.3285 36.4938 94.3799 36.5343 94.3907 36.6264C94.4016 36.7184 94.3897 36.7759 94.3491 36.8275C94.3432 36.8562 94.3372 36.8849 94.3432 36.8562L94.3491 36.8275C94.3491 36.8275 94.355 36.7987 94.3491 36.8275C94.3432 36.8562 94.3372 36.8849 94.3313 36.9136C94.3253 36.9424 94.2907 36.9652 94.262 36.9594C94.2274 36.9822 94.2274 36.9822 94.2274 36.9822C94.1354 36.9934 94.1067 36.9875 94.078 36.9816C94.0494 36.9758 93.992 36.964 93.9633 36.9582C93.8199 36.9288 93.6765 36.8995 93.5678 36.8473L93.4541 36.6743C93.4481 36.703 93.46 36.6456 93.4313 36.6397C93.4373 36.611 93.4146 36.5764 93.3859 36.5705L93.2782 36.3688C93.3939 36.2428 93.395 36.0933 93.4306 35.9209Z" fill="black"/>
<path d="M91.4052 34.279C91.7664 35.1314 92.365 35.7029 92.6931 35.5605C93.0559 35.3951 93.0445 34.5844 92.6833 33.732C92.3221 32.8797 91.7236 32.3081 91.3954 32.4506C91.0386 32.5872 91.044 33.4267 91.4052 34.279Z" fill="black"/>
<path d="M91.4052 34.279C91.7664 35.1314 92.365 35.7029 92.6931 35.5605C93.0559 35.3951 93.0445 34.5844 92.6833 33.732C92.3221 32.8797 91.7236 32.3081 91.3954 32.4506C91.0386 32.5872 91.044 33.4267 91.4052 34.279Z" stroke="black" stroke-miterlimit="10"/>
<path d="M91.4464 25.6299C91.5421 25.8891 91.3896 26.3371 90.9279 26.692C90.2181 27.2358 88.5234 27.4883 87.2001 27.9665C83.7312 29.1441 81.9778 32.7094 81.9778 32.7094C81.9778 32.7094 83.1095 29.4064 85.8833 27.5474C88.1847 25.9513 91.3567 25.3419 91.4464 25.6299Z" fill="black"/>
<path d="M91.4465 25.6296C91.5136 25.883 91.4254 26.1645 91.2632 26.371C91.101 26.5774 90.9161 26.7493 90.6799 26.8807C90.2133 27.1148 89.7301 27.2855 89.2241 27.4217C88.2348 27.7286 87.206 27.9376 86.2957 28.4403C85.3912 28.9144 84.5717 29.5555 83.8775 30.3122C83.1833 31.0688 82.5632 31.9005 82.0804 32.7903L81.8058 32.6742C82.1918 31.6748 82.7152 30.7335 83.3126 29.8671C83.9387 29.0067 84.6961 28.233 85.5671 27.6323C86.438 27.0316 87.3997 26.5693 88.3949 26.2337C88.8782 26.0629 89.3902 25.898 89.8902 25.7906C90.1432 25.7225 90.3903 25.6832 90.666 25.6497C90.7925 25.6157 90.913 25.6104 91.0622 25.6109C91.1255 25.5939 91.1828 25.6056 91.2687 25.6232C91.3379 25.5775 91.4011 25.5604 91.4465 25.6296ZM91.4465 25.6296C91.4011 25.5604 91.3379 25.5775 91.2806 25.5657C91.2233 25.554 91.16 25.571 91.0741 25.5535C90.9536 25.5588 90.7984 25.5869 90.6779 25.5922C90.4308 25.6316 90.1492 25.6938 89.8962 25.7619C89.3902 25.898 88.8782 26.0629 88.3949 26.2337C87.4224 26.6039 86.4834 27.1008 85.6411 27.7074C84.7929 28.3427 84.0987 29.0993 83.5013 29.9656C82.9098 30.8032 82.4151 31.7504 82.0696 32.6982L81.795 32.5822C82.3183 31.6408 82.9385 30.8091 83.6613 30.0583C84.4128 29.3133 85.261 28.678 86.1881 28.2386C87.1498 27.7763 88.1726 27.5961 89.156 27.3179C89.662 27.1817 90.1679 27.0456 90.6058 26.8056C90.8421 26.6742 91.0497 26.537 91.1832 26.3246C91.4314 26.1358 91.5136 25.883 91.4465 25.6296Z" fill="black"/>
<path d="M110.617 35.8361C110.512 36.0541 110.407 36.2721 110.302 36.4901C110.226 36.7139 110.127 36.9032 110.08 37.1329C110.004 37.3568 110.048 37.5754 109.921 37.7588C109.793 37.9422 109.666 38.1256 109.389 38.3085L109.303 38.2909C109.212 38.1526 109.15 38.0202 109.117 37.8936C109.083 37.767 109.084 37.6176 109.079 37.4969C109.104 37.2326 109.295 37.0322 109.457 36.8259C109.59 36.6138 109.781 36.4133 109.966 36.2416C110.151 36.0699 110.358 35.9328 110.565 35.7957L110.617 35.8361Z" fill="black"/>
<path d="M91.3009 31.324C91.6878 31.7625 92.0795 32.3218 92.4474 32.996C93.1893 34.3157 93.4669 35.5704 93.6095 36.468" stroke="black" stroke-miterlimit="10"/>
<path d="M106.463 48.7396C105.479 48.8687 104.462 48.8706 103.434 48.7802C102.441 48.6667 101.437 48.4609 100.456 48.1397C99.4988 47.8533 98.5244 47.5032 97.6373 47.0208C96.7501 46.5383 95.9154 45.9464 95.1966 45.2278L95.2372 45.176C96.1304 45.6297 97.0235 46.0833 97.9285 46.4792C98.8336 46.8752 99.6921 47.3518 100.638 47.6959C101.555 48.0342 102.518 48.2918 103.5 48.4629C104.481 48.634 105.48 48.7186 106.475 48.6819L106.463 48.7396Z" fill="black"/>
</svg>
