<svg width="271" height="217" viewBox="0 0 271 217" fill="none" xmlns="http://www.w3.org/2000/svg">
<path d="M51.3489 13.2798C68.823 1.22584 90.1242 -3.5588 113.323 5.94678C136.272 15.3377 148.386 38.3116 168.32 51.6908C189.525 65.9364 216.845 66.9813 239.743 77.9204C255.927 85.6357 267.031 100.219 269.683 117.988C274.871 152.716 256.33 188.292 224.097 202.875C203.99 211.967 180.561 211.91 160.257 203.468C144.668 196.982 131.097 186.368 115.565 179.602C88.5716 167.867 57.2652 169.013 31.5172 153.92C4.23589 137.948 0.670781 108.686 6.8554 81.4563C12.4714 56.7303 28.6932 28.9016 51.3489 13.2798Z" fill="#E6E1FF"/>
<path d="M238.076 140.146H206.769C206.769 140.146 197.646 141.338 201.415 150.232H193.11C191.804 148.426 190.96 146.33 190.649 144.125C190.338 141.92 190.571 139.674 191.327 137.579C193.883 130.265 202.431 128.882 202.431 128.882H235.52C235.52 128.882 243.66 132.24 238.076 140.146Z" fill="#423490" stroke="#263238" stroke-width="1.1326" stroke-linecap="round" stroke-linejoin="round"/>
<path d="M166.812 183.832C170.115 173.639 174.926 165.86 173.725 154.481C173.214 149.671 171.17 144.995 170.984 140.172C170.543 126.971 187.04 127.098 191.142 115.847C194.745 105.966 195.046 101.774 202.252 101.474C209.459 101.175 233.789 98.4797 239.494 99.9769C245.2 101.474 249.41 115.267 254.189 121.237C258.968 127.207 264.699 135.616 260.795 146.721C256.892 157.826 251.493 172.447 250.912 185.03C250.33 197.613 250.311 209.584 250.311 209.584H164.11C164.11 209.584 163.509 194.013 166.812 183.832ZM204.354 148.792H227.183C229.294 148.733 231.3 147.855 232.772 146.344C234.245 144.834 235.069 142.81 235.069 140.704C235.069 138.597 234.245 136.574 232.772 135.063C231.3 133.553 229.294 132.675 227.183 132.616H204.354C202.243 132.675 200.237 133.553 198.765 135.063C197.292 136.574 196.468 138.597 196.468 140.704C196.468 142.81 197.292 144.834 198.765 146.344C200.237 147.855 202.243 148.733 204.354 148.792V148.792Z" fill="#AD9DFF" stroke="#263238" stroke-width="1.1326" stroke-linecap="round" stroke-linejoin="round"/>
<path d="M250.95 116.077C245.391 118.969 237.264 124.633 232.422 134.553C230.961 133.302 229.101 132.612 227.176 132.609H204.348C203.23 132.611 202.124 132.845 201.101 133.296C200.078 133.746 199.16 134.404 198.406 135.228L198.234 135.343C195.678 130.978 192.004 125.391 187.839 120.995C189.292 119.53 190.416 117.773 191.135 115.841C194.739 105.959 195.039 101.767 202.246 101.468C209.453 101.168 233.782 98.4734 239.488 99.9706C243.884 101.124 247.385 109.533 250.95 116.077Z" fill="#423490" stroke="#263238" stroke-width="1.1326" stroke-linecap="round" stroke-linejoin="round"/>
<path d="M235.182 209.883H172.134C172.588 204.194 173.693 190.77 174.626 182.934C175.827 172.74 176.428 166.159 179.431 163.184C182.434 160.209 201.352 146.097 206.769 145.498C206.769 145.498 222.391 144.3 227.214 145.198C232.038 146.097 241.909 161.667 241.909 164.362C241.909 166.917 234.881 193.128 235.182 209.883Z" fill="#423490" stroke="#263238" stroke-width="1.1326" stroke-linecap="round" stroke-linejoin="round"/>
<path d="M247.608 182.335C248.509 169.752 258.118 140.707 260.22 135.916C260.765 134.395 260.843 132.747 260.444 131.182C262.537 136.119 262.671 141.664 260.821 146.696C256.917 157.775 251.512 172.447 250.911 185.03C250.311 197.613 250.311 209.584 250.311 209.584H247.813C247.551 203.321 246.861 192.739 247.608 182.335Z" fill="#423490" stroke="#263238" stroke-width="1.1326" stroke-linecap="round" stroke-linejoin="round"/>
<path d="M195.046 163.764C198.649 158.074 210.379 160.769 219.675 160.47C228.971 160.17 229.898 162.865 229.898 167.956C229.898 172.282 225.342 201.041 223.975 209.584H185.686C185.686 192.86 191.608 169.192 195.046 163.764Z" fill="#AD9DFF" stroke="#263238" stroke-width="1.1326" stroke-linecap="round" stroke-linejoin="round"/>
<path d="M207.274 160.107C211.172 160.183 215.427 160.572 219.292 160.483C217.65 165.783 211.229 187.776 210.673 209.584H198.611C199.23 199.633 201.224 177.774 207.274 160.107Z" fill="white" stroke="#263238" stroke-width="1.1326" stroke-linecap="round" stroke-linejoin="round"/>
<path d="M125.333 4.85591L193.933 0.0124512L200.254 89.0414L131.654 93.8848L125.333 4.85591Z" fill="#AD9DFF"/>
<path d="M143.601 69.0327L184.766 65.707C185.058 65.6837 185.342 65.6032 185.603 65.4702C185.864 65.3372 186.096 65.1542 186.286 64.9317C186.475 64.7093 186.62 64.4517 186.71 64.1737C186.8 63.8957 186.834 63.6027 186.81 63.3115L183.769 25.2C183.722 24.6131 183.443 24.0689 182.994 23.6867C182.544 23.3045 181.962 23.1155 181.373 23.1613L140.208 26.4678C139.62 26.515 139.074 26.793 138.691 27.2409C138.307 27.6888 138.118 28.27 138.164 28.857L141.198 66.9812C141.22 67.2735 141.3 67.5587 141.433 67.8202C141.565 68.0818 141.748 68.3145 141.972 68.5052C142.195 68.6959 142.454 68.8406 142.733 68.9312C143.013 69.0217 143.308 69.0562 143.601 69.0327Z" fill="white"/>
<path opacity="0.5" d="M161.005 49.6136C161.053 49.1968 160.966 48.7756 160.756 48.4121C160.545 48.0486 160.224 47.762 159.838 47.5949C159.452 47.4277 159.022 47.3887 158.612 47.4836C158.203 47.5785 157.834 47.8023 157.562 48.122C157.289 48.4417 157.127 48.8403 157.099 49.259C157.071 49.6776 157.179 50.0941 157.407 50.447C157.634 50.7998 157.97 51.0704 158.363 51.2186C158.757 51.3668 159.188 51.3849 159.593 51.2701C159.966 51.1635 160.298 50.9494 160.55 50.6547C160.801 50.36 160.959 49.9978 161.005 49.6136V49.6136Z" fill="#5546A6"/>
<path opacity="0.5" d="M168.09 49.0532C168.14 48.636 168.053 48.2141 167.843 47.8498C167.634 47.4856 167.312 47.1983 166.926 47.0305C166.54 46.8627 166.109 46.8233 165.699 46.9182C165.289 47.0131 164.92 47.2372 164.647 47.5574C164.375 47.8775 164.213 48.2767 164.185 48.6958C164.157 49.1149 164.266 49.5318 164.494 49.8846C164.723 50.2375 165.059 50.5076 165.454 50.655C165.848 50.8025 166.28 50.8194 166.685 50.7033C167.056 50.5975 167.388 50.3843 167.638 50.0907C167.888 49.797 168.046 49.4359 168.09 49.0532V49.0532Z" fill="#5546A6"/>
<path opacity="0.5" d="M181.488 55.2075C181.582 54.4132 181.418 53.6097 181.019 52.9157C180.62 52.2218 180.007 51.6744 179.272 51.3542C178.537 51.0341 177.718 50.9583 176.936 51.138C176.155 51.3178 175.452 51.7435 174.932 52.3523C174.411 52.9611 174.101 53.7207 174.047 54.5188C173.993 55.3168 174.198 56.1111 174.632 56.7841C175.065 57.4571 175.704 57.9732 176.455 58.256C177.205 58.5389 178.027 58.5735 178.798 58.3548C179.508 58.1529 180.141 57.7464 180.62 57.1864C181.099 56.6265 181.4 55.938 181.488 55.2075V55.2075Z" fill="#5546A6"/>
<path opacity="0.5" d="M152.705 57.5712C152.798 56.7784 152.633 55.9768 152.235 55.2848C151.836 54.5927 151.224 54.0469 150.491 53.7278C149.757 53.4088 148.94 53.3335 148.16 53.5131C147.38 53.6927 146.679 54.1176 146.159 54.7251C145.64 55.3325 145.331 56.0904 145.277 56.8868C145.222 57.6831 145.427 58.4757 145.859 59.1475C146.291 59.8193 146.928 60.3347 147.677 60.6176C148.425 60.9005 149.245 60.9358 150.015 60.7185C150.725 60.5165 151.359 60.11 151.837 59.5501C152.316 58.9901 152.618 58.3017 152.705 57.5712V57.5712Z" fill="#5546A6"/>
<path opacity="0.5" d="M158.589 58.0235L161.778 57.7687L161.522 54.5832L164.602 54.3411L164.857 57.5202L168.052 57.2654L168.294 60.3362L165.106 60.591L165.362 63.7766L162.282 64.0187L162.027 60.8395L158.832 61.0944L158.589 58.0235Z" fill="#5546A6"/>
<path opacity="0.08" d="M145.319 45.7083L179.348 42.9178C179.664 42.8933 179.958 42.7462 180.167 42.508C180.376 42.2698 180.483 41.9595 180.466 41.6435L179.38 28.481C179.355 28.1649 179.208 27.8709 178.969 27.6615C178.73 27.4521 178.419 27.3438 178.102 27.3597L144.074 30.1566C143.757 30.1795 143.461 30.3261 143.252 30.5646C143.043 30.8032 142.936 31.1144 142.955 31.4308L144.067 44.6825C144.101 44.9824 144.251 45.2572 144.485 45.4488C144.718 45.6403 145.018 45.7334 145.319 45.7083V45.7083Z" fill="black"/>
<path opacity="0.7" d="M190.516 4.94629L196.311 84.6543L134.899 89.114L129.104 9.41239L190.516 4.94629ZM137.448 85.2213L193.237 81.1885L187.973 8.78165L132.177 12.8273L137.448 85.2213Z" fill="white"/>
<path d="M22.9415 22.349L91.3528 29.3625L82.199 118.146L13.7877 111.133L22.9415 22.349Z" fill="#AD9DFF"/>
<path d="M35.8767 36.4137L76.2128 40.5135C77.4484 40.6391 78.348 41.7398 78.2221 42.972L72.2487 101.41C72.1227 102.642 71.0189 103.539 69.7833 103.414L29.4472 99.3139C28.2116 99.1883 27.312 98.0876 27.4379 96.8555L33.4113 38.4173C33.5373 37.1851 34.6411 36.2881 35.8767 36.4137Z" fill="white"/>
<path opacity="0.5" d="M50.0135 77.8885C50.1538 77.4307 50.1426 76.9401 49.9816 76.4891C49.8206 76.0381 49.5184 75.6508 49.1196 75.3844C48.7207 75.118 48.2465 74.9866 47.7671 75.0097C47.2876 75.0328 46.8283 75.2091 46.4571 75.5127C46.0859 75.8162 45.8225 76.2308 45.7058 76.6951C45.5892 77.1595 45.6255 77.6489 45.8093 78.0911C45.9932 78.5333 46.3149 78.9047 46.7269 79.1505C47.1388 79.3962 47.6191 79.5033 48.0968 79.4558C48.5352 79.4106 48.9505 79.2379 49.2913 78.9593C49.632 78.6806 49.8832 78.3083 50.0135 77.8885Z" fill="#5546A6"/>
<path opacity="0.5" d="M58.0959 78.7103C58.2362 78.2525 58.225 77.7618 58.064 77.3109C57.903 76.8599 57.6008 76.4726 57.202 76.2062C56.8031 75.9397 56.3289 75.8084 55.8494 75.8315C55.37 75.8546 54.9107 76.0309 54.5395 76.3344C54.1683 76.638 53.9049 77.0526 53.7882 77.5169C53.6716 77.9812 53.7079 78.4707 53.8918 78.9129C54.0756 79.3551 54.3973 79.7265 54.8093 79.9722C55.2212 80.218 55.7015 80.3251 56.1792 80.2776C56.6178 80.2331 57.0336 80.0608 57.3745 79.782C57.7154 79.5033 57.9663 79.1305 58.0959 78.7103V78.7103Z" fill="#5546A6"/>
<path opacity="0.5" d="M53.5533 83.2081C53.6936 82.7503 53.6824 82.2597 53.5214 81.8087C53.3604 81.3577 53.0582 80.9704 52.6594 80.704C52.2605 80.4375 51.7863 80.3062 51.3069 80.3293C50.8274 80.3524 50.3681 80.5287 49.9969 80.8322C49.6256 81.1358 49.3623 81.5504 49.2456 82.0147C49.129 82.479 49.1653 82.9685 49.3491 83.4107C49.533 83.8529 49.8547 84.2243 50.2667 84.4701C50.6786 84.7158 51.1589 84.8229 51.6366 84.7754C52.0755 84.7317 52.4916 84.5597 52.8327 84.2808C53.1737 84.0019 53.4245 83.6287 53.5533 83.2081V83.2081Z" fill="#5546A6"/>
<path opacity="0.5" d="M32.137 84.0874L35.7724 84.4569L36.143 80.8254L39.657 81.1822L39.2864 84.8137L42.9282 85.1832L42.5704 88.6873L38.9286 88.3178L38.558 91.9493L35.044 91.5925L35.4146 87.961L31.7728 87.5915L32.137 84.0874Z" fill="#5546A6"/>
<path opacity="0.5" d="M58.7091 86.7888L62.3509 87.1583L62.7215 83.5332L66.2355 83.89L65.8649 87.5151L69.5067 87.8846L69.1489 91.3887L65.5071 91.0192L65.1365 94.6507L61.6225 94.2939L61.9931 90.6624L58.3513 90.2929L58.7091 86.7888Z" fill="#5546A6"/>
<path opacity="0.08" d="M39.6125 41.4001L71.5394 44.6451C72.1818 44.7104 72.6495 45.2827 72.584 45.9233L69.7664 73.4881C69.7009 74.1286 69.127 74.595 68.4846 74.5297L36.5578 71.2846C35.9154 71.2194 35.4477 70.6471 35.5132 70.0065L38.3308 42.4417C38.3963 41.8011 38.9701 41.3348 39.6125 41.4001Z" fill="black"/>
<path opacity="0.5" d="M46.022 91.8264L54.8316 92.7218L54.3386 97.5452L45.529 96.6498L46.022 91.8264Z" fill="#5546A6"/>
<path d="M151.702 154.634C151.702 154.634 148.936 155.864 146.169 160.769C143.403 165.675 104.429 187.738 103.81 193.899C103.19 200.06 101.088 200.983 109.087 202.181C117.086 203.379 128.324 195.173 141.863 187.783C155.401 180.392 161.854 181.023 161.854 181.023L151.702 154.634Z" fill="#6656B8" stroke="#263238" stroke-width="1.1326" stroke-linecap="round" stroke-linejoin="round"/>
<path d="M111.866 187.228C111.866 187.228 120.478 188.337 123.532 191.936C126.586 195.536 121.878 201.162 118.958 202.226C116.038 203.29 107.144 202.461 104.646 197.766C102.148 193.071 104.091 191.949 107.426 189.484" fill="white"/>
<path d="M111.866 187.228C111.866 187.228 120.478 188.337 123.532 191.936C126.586 195.536 121.878 201.162 118.958 202.226C116.038 203.29 107.144 202.461 104.646 197.766C102.148 193.071 104.091 191.949 107.426 189.484" stroke="#263238" stroke-width="1.1326" stroke-linecap="round" stroke-linejoin="round"/>
<path d="M119.028 195.218C119.028 195.218 122.223 197.632 122.958 198.308C123.692 198.983 124.772 201.926 125.513 202.449C126.254 202.971 128.989 203.43 129.296 204.182C129.602 204.933 126.874 205.768 124.759 205.692C122.645 205.615 120.983 203.143 118.945 202.226C117.625 201.666 116.218 201.334 114.786 201.245C114.786 201.245 112.901 197.103 113.655 195.447C114.409 193.79 117.322 194.013 119.028 195.218Z" fill="#6656B8" stroke="#263238" stroke-width="1.1326" stroke-linecap="round" stroke-linejoin="round"/>
<path d="M111.451 190.77C112.125 190.649 112.815 190.649 113.489 190.77C115.125 191.002 116.743 191.347 118.332 191.803C119.118 192.198 120.332 197.173 120.92 199.524C121.507 201.875 123.839 206.112 122.836 206.309C121.833 206.507 119.361 207.061 118.939 205.551C118.255 203.143 116.741 198.664 116.741 198.664C116.741 198.664 117.923 202.977 117.335 203.761C116.747 204.545 107.311 204.347 106.129 203.952C104.947 203.557 102.2 198.467 102.001 195.721C101.855 193.383 108.48 191.337 111.451 190.77Z" fill="#6656B8" stroke="#263238" stroke-width="1.1326" stroke-linecap="round" stroke-linejoin="round"/>
<path d="M113.291 204.105L110.869 194.689" stroke="#263238" stroke-width="1.1326" stroke-linecap="round" stroke-linejoin="round"/>
<path d="M108.154 203.958L105.886 195.071" stroke="#263238" stroke-width="1.1326" stroke-linecap="round" stroke-linejoin="round"/>
<path d="M116.76 198.652L115.559 194.389" stroke="#263238" stroke-width="1.1326" stroke-linecap="round" stroke-linejoin="round"/>
<path d="M134.784 167.516C144.303 159.081 155.005 147.67 167.336 143.574C170.52 142.553 173.472 140.919 176.025 138.764C176.025 138.764 184.695 132.635 190.183 132.335C196.464 131.985 201.313 138.611 204.239 143.364C217.247 164.56 218.934 189.076 219.433 213.445H161.854C161.854 213.445 165.202 208.278 161.548 193.395C160.858 190.565 159.97 187.787 158.89 185.081C157.823 185.54 156.647 186.03 155.395 186.547C150.169 188.694 138.144 195.466 138.144 195.466L124.619 175.901C124.619 175.901 132.017 169.975 134.784 167.516Z" fill="#263238" stroke="#263238" stroke-width="1.1326" stroke-linecap="round" stroke-linejoin="round"/>
<path d="M187.308 136.336C188.995 133.336 192.662 130.246 198.406 133.546C205.843 137.815 227.956 181.845 229.476 188.528C230.997 195.211 199.933 199.499 187.749 199.499C180.205 199.485 172.667 199.087 165.164 198.307L162.768 199.798C162.768 199.798 162.768 205.57 160.634 206.169C158.5 206.768 151.798 206.806 149.67 205.564C147.543 204.322 148.143 201.009 148.143 201.009C148.143 201.009 146.623 207.692 144.188 208.297C143.381 208.507 142.536 208.52 141.722 208.335C141.531 208.29 141.354 208.195 141.21 208.061C141.067 207.927 140.96 207.758 140.901 207.57C140.843 207.383 140.834 207.183 140.876 206.991C140.918 206.799 141.009 206.621 141.141 206.475L141.78 205.717L145.99 196.454C145.99 196.454 147.153 191.446 148.674 191.446C150.194 191.446 162.436 191.287 162.436 191.287C162.436 191.287 183.149 188.859 191.985 186.426C200.821 183.992 205.492 180.596 205.492 180.596L188.548 153.035" fill="#6656B8"/>
<path d="M165.7 195.746C170.275 195.211 184.28 195.479 202.329 193.058C220.378 190.637 224.691 186.343 221.183 185.272C217.676 184.202 205.849 181.781 205.019 181.781C204.188 181.781 220.103 178.825 220.103 178.825L211.536 151.805C219.841 166.223 228.543 184.425 229.476 188.528C231.003 195.211 199.933 199.499 187.749 199.499C180.205 199.485 172.667 199.087 165.164 198.307L162.768 199.798C162.768 199.798 162.768 205.57 160.634 206.169C160.006 206.327 159.364 206.428 158.717 206.469C157.836 205.724 157.248 204.693 157.056 203.557C156.602 200.69 161.119 196.313 165.7 195.746Z" fill="#443594"/>
<path opacity="0.5" d="M165.7 195.746C170.275 195.211 184.28 195.479 202.329 193.058C220.378 190.637 224.691 186.343 221.183 185.272C217.676 184.202 205.849 181.781 205.019 181.781C204.188 181.781 220.103 178.825 220.103 178.825L211.536 151.805C219.841 166.223 228.543 184.425 229.476 188.528C231.003 195.211 199.933 199.499 187.749 199.499C180.205 199.485 172.667 199.087 165.164 198.307L162.768 199.798C162.768 199.798 162.768 205.57 160.634 206.169C160.006 206.327 159.364 206.428 158.717 206.469C157.836 205.724 157.248 204.693 157.056 203.557C156.602 200.69 161.119 196.313 165.7 195.746Z" fill="#6656B8"/>
<path d="M187.308 136.336C188.995 133.336 192.662 130.246 198.406 133.546C205.843 137.815 227.956 181.845 229.476 188.528C230.997 195.211 199.933 199.499 187.749 199.499C180.205 199.485 172.667 199.087 165.164 198.307L162.768 199.798C162.768 199.798 162.768 205.57 160.634 206.169C158.5 206.768 151.798 206.806 149.67 205.564C147.543 204.322 148.143 201.009 148.143 201.009C148.143 201.009 146.623 207.692 144.188 208.297C143.381 208.507 142.536 208.52 141.722 208.335C141.531 208.29 141.354 208.195 141.21 208.061C141.067 207.927 140.96 207.758 140.901 207.57C140.843 207.383 140.834 207.183 140.876 206.991C140.918 206.799 141.009 206.621 141.141 206.475L141.78 205.717L145.99 196.454C145.99 196.454 147.153 191.446 148.674 191.446C150.194 191.446 162.436 191.287 162.436 191.287C162.436 191.287 183.149 188.859 191.985 186.426C200.821 183.992 205.492 180.596 205.492 180.596L188.548 153.035" stroke="#263238" stroke-width="1.1326" stroke-linecap="round" stroke-linejoin="round"/>
<path d="M152.954 196.351C152.954 196.351 150.692 202.964 150.692 204.048C150.726 204.799 150.91 205.535 151.236 206.214" stroke="#263238" stroke-width="1.1326" stroke-linecap="round" stroke-linejoin="round"/>
<path d="M156.839 197.371C156.839 197.371 154.673 203.506 154.488 204.768C154.414 205.089 154.426 205.424 154.521 205.74C154.616 206.056 154.792 206.342 155.031 206.571" stroke="#263238" stroke-width="1.1326" stroke-linecap="round" stroke-linejoin="round"/>
<path d="M148.143 200.983L149.606 195.389" stroke="#263238" stroke-width="1.1326" stroke-linecap="round" stroke-linejoin="round"/>
<path d="M162.768 199.766L159.739 200.798C159.739 200.798 157.925 201.703 159.375 202.965" fill="white"/>
<path d="M162.768 199.766L159.739 200.798C159.739 200.798 157.925 201.703 159.375 202.965" stroke="#263238" stroke-width="1.1326" stroke-linecap="round" stroke-linejoin="round"/>
<path d="M186.152 137.12C186.152 137.12 187.775 131.705 194.291 131.526C200.808 131.348 205.491 138.923 208.584 143.434C211.676 147.944 219.797 165.439 220.723 167.605C221.649 169.772 226.869 179.15 226.869 179.15C226.869 179.15 224.16 181.698 217.644 181.698H203.351C203.351 181.698 202.814 181.513 202.45 179.895C202.264 179.186 202.142 178.461 202.086 177.729L185.807 150.85" fill="#263238"/>
<path d="M186.152 137.12C186.152 137.12 187.775 131.705 194.291 131.526C200.808 131.348 205.491 138.923 208.584 143.434C211.676 147.944 219.797 165.439 220.723 167.605C221.649 169.772 226.869 179.15 226.869 179.15C226.869 179.15 224.16 181.698 217.644 181.698H203.351C203.351 181.698 202.814 181.513 202.45 179.895C202.264 179.186 202.142 178.461 202.086 177.729L185.807 150.85" stroke="#263238" stroke-width="1.1326" stroke-linecap="round" stroke-linejoin="round"/>
<path d="M141.709 199.836L140.419 203.06" stroke="#263238" stroke-width="1.1326" stroke-linecap="round" stroke-linejoin="round"/>
<path d="M140.738 197.581L139.122 201.449" stroke="#263238" stroke-width="1.1326" stroke-linecap="round" stroke-linejoin="round"/>
<path d="M151.862 171.715L158.89 185.075L147.971 175.321" stroke="#263238" stroke-width="1.1326" stroke-linecap="round" stroke-linejoin="round"/>
<path d="M167.336 143.574C170.52 142.553 173.472 140.919 176.025 138.764C176.025 138.764 177.456 137.751 179.52 136.534C178.376 142.121 174.882 158.195 172.134 160.916C169.496 163.547 163.905 152.302 161.682 145.982C163.5 145.032 165.391 144.227 167.336 143.574V143.574Z" fill="white" stroke="#263238" stroke-width="1.1326" stroke-linecap="round" stroke-linejoin="round"/>
<path d="M88.2778 206.857H178.044V210.47H88.2778V206.857Z" fill="white" stroke="#263238" stroke-width="1.1326" stroke-linecap="round" stroke-linejoin="round"/>
<path d="M62.9707 206.857H152.737V210.47H62.9707V206.857Z" fill="white" stroke="#263238" stroke-width="1.1326" stroke-linecap="round" stroke-linejoin="round"/>
<path d="M206.131 201.028H192.88C191.417 201.028 190.015 201.607 188.981 202.638C187.947 203.669 187.366 205.068 187.366 206.526V213.133H211.644V206.507C211.639 205.052 211.056 203.658 210.023 202.631C208.989 201.604 207.59 201.028 206.131 201.028Z" fill="#AD9DFF" stroke="#263238" stroke-width="1.1326" stroke-linecap="round" stroke-linejoin="round"/>
<path d="M205.492 203.799H199.869C198.407 203.799 197.004 204.378 195.97 205.409C194.936 206.441 194.355 207.839 194.355 209.297V215.904H210.973V209.291C210.972 207.839 210.395 206.447 209.368 205.418C208.341 204.39 206.947 203.807 205.492 203.799V203.799Z" fill="#263238" stroke="#263238" stroke-width="1.1326" stroke-linecap="round" stroke-linejoin="round"/>
<path d="M205.492 205.526H201.946C200.483 205.526 199.081 206.105 198.047 207.136C197.013 208.167 196.432 209.566 196.432 211.024V213.483H210.999V211.024C210.999 209.567 210.419 208.169 209.386 207.138C208.354 206.107 206.953 205.527 205.492 205.526V205.526Z" fill="#AD9DFF" stroke="#263238" stroke-width="1.1326" stroke-linecap="round" stroke-linejoin="round"/>
<path d="M41.3373 133.138H124.242V196.25H41.3373V133.138Z" fill="white" stroke="#263238" stroke-width="1.1326" stroke-linecap="round" stroke-linejoin="round"/>
<path d="M37.9127 133.138H120.817V196.25H37.9127V133.138Z" fill="#263238" stroke="#263238" stroke-width="1.1326" stroke-linecap="round" stroke-linejoin="round"/>
<path d="M68.2928 173.944H87.6133V210.463H68.2928V173.944Z" fill="white" stroke="#263238" stroke-width="1.1326" stroke-linecap="round" stroke-linejoin="round"/>
<path d="M1.06699 209.265H257.984V216.012H1.06699V209.265Z" fill="white" stroke="#263238" stroke-width="1.1326" stroke-linecap="round" stroke-linejoin="round"/>
<path d="M1.067 209.265H168.965V216.012H1.067V209.265Z" fill="#263238" stroke="#263238" stroke-width="1.1326" stroke-linecap="round" stroke-linejoin="round"/>
<path d="M130.765 137.739C130.753 138.022 130.733 138.829 131.182 139.602C132.181 141.449 135.381 143.117 135.381 143.117L136.679 146.95C137.326 148.398 138.411 149.201 139.545 149.495C142.457 150.284 146.599 148.72 147.94 148.471C151.905 147.75 152.889 146.237 155.44 146.838C155.944 146.961 157.85 147.434 158.562 149.027C159.131 150.302 158.651 151.626 158.575 151.764C157.939 153.436 156.487 154.29 156.487 154.29C156.487 154.29 158.776 155.078 160.458 154.122C162.255 153.114 163.206 151.372 163.206 151.372C163.206 151.372 163.522 152.621 163.3 153.518C162.898 155.016 162.156 155.832 162.156 155.832C162.156 155.832 165.006 155.711 166.936 153.915C168.526 152.445 169.4 150.841 169.4 150.841C169.4 150.841 169.615 151.787 169.211 152.661C168.806 153.535 168.39 154.693 168.39 154.693C168.39 154.693 169.816 154.093 170.624 153.734C173.483 152.394 174.357 148.394 174.746 146.554C175.15 144.673 175.857 141.303 174.507 137.354C173.002 133.058 169.149 128.382 164.225 127.655C160.849 127.141 160.783 129.081 155.139 129.993C148.655 131.035 146.624 128.813 139.846 130.437C139.16 130.603 136.613 131.25 134.071 133.144C132.711 134.2 130.825 135.629 130.765 137.739Z" fill="#F2F2F2"/>
<path d="M149.439 120.342C148.036 117.741 146.149 113.518 145.206 108.007C145.121 107.352 143.456 97.1346 145.875 96.0588C147.344 95.4056 149.693 98.3482 151.103 100.114C153.762 103.439 154.791 106.9 154.988 107.575C155.975 111.02 156.133 115.007 156.008 116.658C155.993 117.011 155.867 118.35 156.104 120.117C156.182 120.602 156.251 120.988 156.297 121.245" fill="#423491"/>
<path d="M132.456 135.312C133.32 135.622 133.96 134.192 136.332 133.312C137.755 132.783 138.958 132.769 139.426 132.734C141.891 132.68 142.26 133.661 144.513 133.597C145.844 133.56 145.731 133.229 148.268 132.795C150.805 132.361 150.889 132.706 152.602 132.361C154.943 131.875 155.03 131.142 157.998 130.205C160.149 129.526 162.331 129.459 162.331 129.459L158.75 131.502C158.75 131.502 160.456 130.986 162.76 131.038C164.782 131.076 166.608 132.069 166.608 132.069C166.608 132.069 165.37 132.238 164.064 133.027C162.889 133.723 162.017 134.943 162.017 134.943C162.017 134.943 165.075 134.903 167.977 136.216C171.504 137.841 172.819 142.254 172.819 142.254L170.464 141.393C170.464 141.393 171.508 144.503 171.336 147.599C171.084 152.293 167.136 155.68 167.136 155.68C167.136 155.68 170.302 154.411 172.531 152.206C174.523 150.244 175.85 147.259 175.85 147.259L175.155 150.344C175.155 150.344 177.475 148.341 178.863 146.266C179.949 144.673 179.637 145.367 180.841 142.957C182.001 140.602 181.831 141.615 182.819 139.648C183.421 138.443 186.799 134.477 185.58 131.132C185.136 129.906 184.88 129.951 184.261 129.185C182.594 127.079 181.261 125.798 181.261 125.798C181.261 125.798 182.124 123.783 182.34 121.327C182.537 118.983 180.982 116.897 180.982 116.897C180.982 116.897 181.14 118.875 180.188 121.693C179.787 122.809 178.68 124.585 178.68 124.585C178.68 124.585 178.975 121.92 178.641 119.084C178.245 115.025 173.629 109.337 173.629 109.337C173.629 109.337 172.443 103.513 169.85 98.8691C168.561 96.5265 166.432 93.62 165.194 93.7886C163.658 93.9857 162.447 96.537 161.734 100.742C161.017 104.705 160.628 108.245 160.628 108.245C160.628 108.245 159.514 107.143 157.507 106.057C155.958 105.219 154.561 105.111 153.364 104.983C150.15 104.677 147.173 105.827 147.173 105.827C147.173 105.827 148.595 105.993 151.682 106.634C153.281 106.964 155.235 107.623 155.235 107.623C155.235 107.623 151.538 106.698 147.295 107.647C143.024 108.608 140.175 111.437 140.175 111.437C140.175 111.437 141.712 110.545 144.334 109.761C146.841 109.029 148.991 109.045 148.991 109.045C148.991 109.045 145.799 109.249 143.259 111.454C140.748 113.647 140.243 116.926 140.243 116.926C140.243 116.926 140.723 115.602 142.047 114.388C143.342 113.187 144.968 112.881 144.968 112.881C144.968 112.881 143.507 113.635 142.262 115.334C141.183 116.785 141.009 118.563 141.009 118.563C141.009 118.563 142.032 117.449 144.011 116.153C144.36 115.928 145.613 115.406 145.613 115.406C145.613 115.406 144.411 116.739 143.445 118.522C142.033 121.163 143.083 122.431 141.882 124.77C141.005 126.444 139.667 127.317 138.153 128.337C134.647 130.624 131.693 131.903 131.693 131.903C131.03 133.204 131.604 135.031 132.456 135.312Z" fill="#6656B8"/>
<path d="M157.258 114.574C156.301 114.756 155.318 114.88 154.338 114.934C153.358 114.987 152.397 114.928 151.41 114.81C150.424 114.693 149.421 114.618 148.425 114.713C147.442 114.837 146.456 115.032 145.548 115.401L145.561 115.43C146.518 115.248 147.475 115.066 148.455 115.012C149.422 114.93 150.399 114.948 151.373 115.036C152.347 115.124 153.352 115.129 154.319 115.046C155.328 114.98 156.298 114.827 157.258 114.574Z" fill="#AD9DFF"/>
<path d="M160.512 108.218C160.387 109.868 160.389 111.496 160.491 113.115C160.593 114.733 160.877 116.375 161.177 117.974C161.506 119.561 162.005 121.141 162.791 122.594C163.565 124.017 164.568 125.338 165.706 126.496C164.568 125.338 163.593 124.004 162.849 122.568C162.104 121.132 161.605 119.551 161.305 117.952C161.005 116.352 160.775 114.756 160.702 113.125C160.6 111.506 160.64 109.894 160.778 108.273L160.512 108.218Z" fill="#82520A"/>
<path d="M173.505 109.319C173.384 110.518 173.176 111.755 172.901 112.918C172.639 114.11 172.252 115.254 171.836 116.411C171.419 117.567 171.087 118.756 170.895 119.951C170.704 121.147 170.609 122.404 170.629 123.609C170.637 122.391 170.745 121.163 170.966 119.955C171.186 118.746 171.532 117.587 171.99 116.446C172.419 115.319 172.822 114.133 173.126 112.957C173.43 111.781 173.679 110.56 173.816 109.319L173.505 109.319Z" fill="#AD9DFF"/>
<path d="M169.67 128.275C169.67 128.275 168.815 124.737 169.283 120.298C169.633 116.987 170.766 114.887 171.114 111.647C171.694 106.222 166.012 96.4382 165.394 96.6782C164.232 97.091 162.799 104.005 162.434 110.375C162.211 114.358 162.831 120.151 164.714 123.44C166.253 126.188 169.67 128.275 169.67 128.275Z" fill="white"/>
<path d="M147.158 130.426C147.577 130.899 148.832 130.689 149.891 130.426C152.024 129.86 152.95 129.066 153.433 128.678C154.752 127.605 155.494 126.476 155.494 126.476C155.116 126.019 153.896 126.075 151.966 125.162C150.744 124.594 150.032 124.008 149.018 124.215C148.79 124.247 148.575 124.308 148.399 124.456C147.713 124.934 148.031 125.8 147.468 127.405C147.259 128.019 147.143 128.07 147.023 128.575C146.947 129.026 146.739 129.952 147.158 130.426Z" fill="#F2F2F2"/>
<path d="M149.756 127.503C149.45 129.062 148.385 130.16 147.669 130.027C146.911 129.878 147.109 128.541 147.373 126.966C147.679 125.408 148.174 124.736 148.681 124.788C149.554 124.886 150.02 125.928 149.756 127.503Z" fill="#3E386D"/>
<path d="M132.047 131.545C131.469 131.178 129.089 131.576 128.669 131.797C128.25 132.019 127.917 132.202 127.674 132.587C127.154 133.512 127.742 134.674 128.266 135.69C128.67 136.517 129.893 137.708 130.189 137.75C130.484 137.792 130.709 137.831 130.808 137.822C130.808 137.822 133.069 136.539 133.272 134.749C133.354 133.463 132.626 131.912 132.047 131.545Z" fill="#322B55"/>
<path d="M147.963 124.239C147.358 123.814 146.623 123.099 146.886 122.913C147.222 122.659 149.722 123.457 151.03 123.986C153.997 125.132 155.349 126.301 155.349 126.301C155.349 126.301 153.6 125.481 150.921 124.902C147.866 124.178 148.442 124.616 147.963 124.239Z" fill="black"/>
<path d="M147.963 124.239C147.358 123.814 146.623 123.099 146.886 122.913C147.222 122.659 149.722 123.457 151.03 123.986C153.997 125.132 155.349 126.301 155.349 126.301C155.349 126.301 153.6 125.481 150.921 124.902C147.866 124.178 148.442 124.616 147.963 124.239Z" stroke="black" stroke-miterlimit="10"/>
<path d="M147.068 129.632C147.037 129.716 147.005 129.799 146.989 129.841C146.957 129.925 146.912 129.979 146.896 130.021C146.893 130.092 146.848 130.146 146.858 130.246C146.843 130.288 146.827 130.33 146.852 130.387C146.849 130.458 146.849 130.458 146.859 130.558L146.939 130.349C146.795 130.413 146.692 130.493 146.548 130.558L146.461 130.596C146.432 130.609 146.404 130.622 146.432 130.609C146.432 130.609 146.432 130.609 146.461 130.596L146.503 130.612C146.516 130.641 146.529 130.67 146.529 130.67C146.542 130.699 146.529 130.67 146.529 130.67L146.516 130.641C146.49 130.583 146.49 130.583 146.461 130.596C146.448 130.567 146.448 130.567 146.461 130.596C146.445 130.638 146.461 130.596 146.519 130.57C146.577 130.545 146.634 130.519 146.692 130.493C146.75 130.468 146.821 130.471 146.907 130.433C146.936 130.42 146.965 130.407 147.036 130.41C147.064 130.397 147.093 130.385 147.122 130.372C147.151 130.359 147.209 130.333 147.212 130.262L147.228 130.221L147.195 129.992L147.172 129.864L147.159 129.835C147.13 129.848 147.201 129.851 147.117 129.819L147.143 129.877L147.159 129.835C147.047 129.815 147.13 129.848 147.117 129.819L147.101 129.86L147.041 129.957L146.961 130.166L146.977 130.124C147.022 130.069 147.006 130.111 146.964 130.095C146.935 130.108 146.906 130.121 146.877 130.133C146.82 130.159 146.72 130.169 146.662 130.194C146.576 130.233 146.505 130.23 146.431 130.297C146.403 130.31 146.345 130.336 146.3 130.39C146.255 130.445 146.21 130.499 146.22 130.599C146.23 130.699 146.256 130.757 146.311 130.802C146.324 130.831 146.337 130.86 146.324 130.831L146.311 130.802C146.311 130.802 146.298 130.773 146.311 130.802C146.324 130.831 146.337 130.86 146.35 130.889C146.363 130.918 146.405 130.934 146.433 130.921C146.475 130.937 146.475 130.937 146.475 130.937C146.575 130.927 146.604 130.915 146.632 130.902C146.661 130.889 146.719 130.863 146.748 130.85C146.892 130.786 147.037 130.722 147.139 130.642L147.219 130.433C147.232 130.462 147.206 130.404 147.235 130.391C147.222 130.362 147.238 130.32 147.267 130.308L147.333 130.07C147.182 129.963 147.146 129.806 147.068 129.632Z" fill="black"/>
<path d="M148.824 127.432C148.642 128.415 148.144 129.157 147.765 129.083C147.344 128.992 147.168 128.134 147.351 127.15C147.533 126.167 148.031 125.425 148.41 125.499C148.818 125.561 149.007 126.448 148.824 127.432Z" fill="black"/>
<path d="M148.824 127.432C148.642 128.415 148.144 129.157 147.765 129.083C147.344 128.992 147.168 128.134 147.351 127.15C147.533 126.167 148.031 125.425 148.41 125.499C148.818 125.561 149.007 126.448 148.824 127.432Z" stroke="black" stroke-miterlimit="10"/>
<path d="M146.778 118.314C146.738 118.61 147.002 119.048 147.571 119.315C148.446 119.725 150.29 119.599 151.796 119.797C155.726 120.236 158.401 123.593 158.401 123.593C158.401 123.593 156.442 120.369 153.087 119.05C150.291 117.898 146.806 117.99 146.778 118.314Z" fill="black"/>
<path d="M146.778 118.314C146.766 118.597 146.925 118.874 147.144 119.054C147.362 119.234 147.597 119.373 147.877 119.457C148.423 119.596 148.972 119.664 149.537 119.691C150.651 119.785 151.783 119.768 152.86 120.087C153.923 120.378 154.936 120.865 155.843 121.503C156.75 122.141 157.597 122.875 158.312 123.702L158.575 123.516C157.936 122.551 157.166 121.678 156.335 120.902C155.475 120.139 154.498 119.498 153.44 119.066C152.383 118.634 151.262 118.368 150.135 118.245C149.586 118.176 149.008 118.121 148.456 118.123C148.174 118.11 147.904 118.126 147.606 118.154C147.464 118.148 147.336 118.17 147.179 118.205C147.108 118.202 147.051 118.228 146.964 118.266C146.881 118.234 146.81 118.23 146.778 118.314ZM146.778 118.314C146.81 118.23 146.881 118.234 146.938 118.208C146.996 118.182 147.067 118.186 147.153 118.147C147.281 118.125 147.452 118.119 147.58 118.096C147.849 118.081 148.161 118.081 148.443 118.094C149.008 118.121 149.586 118.176 150.135 118.245C151.246 118.41 152.351 118.717 153.38 119.162C154.421 119.636 155.328 120.274 156.159 121.05C156.977 121.797 157.718 122.682 158.302 123.603L158.565 123.417C157.795 122.544 156.948 121.81 156.012 121.185C155.047 120.573 154.005 120.099 152.926 119.85C151.805 119.584 150.685 119.631 149.584 119.565C149.019 119.539 148.455 119.512 147.937 119.36C147.658 119.277 147.407 119.18 147.217 118.987C146.912 118.845 146.766 118.597 146.778 118.314Z" fill="black"/>
<path d="M128.922 133.527C129.083 133.733 129.244 133.938 129.405 134.144C129.537 134.363 129.685 134.539 129.789 134.771C129.921 134.989 129.925 135.23 130.102 135.394C130.279 135.558 130.456 135.722 130.789 135.851L130.876 135.813C130.94 135.646 130.974 135.492 130.98 135.35C130.986 135.209 130.951 135.051 130.928 134.923C130.84 134.65 130.593 134.483 130.374 134.302C130.184 134.11 129.937 133.942 129.702 133.804C129.468 133.666 129.217 133.569 128.967 133.472L128.922 133.527Z" fill="black"/>
<path d="M148.248 124.289C147.942 124.841 147.659 125.522 147.428 126.319C146.952 127.883 146.95 129.272 147.008 130.252" stroke="black" stroke-miterlimit="10"/>
<path d="M168.67 134.605C164.43 135.706 160.097 133.159 158.992 128.916C157.887 124.673 160.428 120.34 164.668 119.239C168.907 118.138 173.24 120.685 174.345 124.928C175.45 129.172 172.909 133.504 168.67 134.605Z" fill="url(#paint0_linear_1_1252)" stroke="#263238" stroke-linecap="round" stroke-linejoin="round"/>
<path d="M166.909 122.933L160.982 102.154C160.858 101.679 160.343 100.508 159.862 100.633C159.832 100.641 159.594 101.145 161.099 105.385L155.911 104.921C153.907 100.879 153.907 101.738 154.093 102.204C154.093 102.204 154.098 102.224 154.101 102.235L163.943 124.066L166.909 122.933Z" fill="#4BDD71"/>
<path d="M167.9 131.648C165.292 132.326 162.627 130.759 161.947 128.149C161.267 125.539 162.83 122.874 165.438 122.196C168.046 121.519 170.711 123.086 171.391 125.696C172.071 128.306 170.508 130.971 167.9 131.648Z" fill="#F2F2F4"/>
<path d="M135.47 143.151C136.05 143.248 136.659 143.332 137.282 143.373C137.579 143.401 137.89 143.386 138.173 143.385C138.485 143.37 138.782 143.398 139.079 143.355C140.295 143.239 141.484 142.995 142.615 142.568C143.76 142.17 144.891 141.672 145.88 140.962C146.869 140.252 147.772 139.444 148.534 138.494L148.478 138.452C147.489 139.161 146.514 139.829 145.511 140.439C144.507 141.05 143.504 141.661 142.415 142.102C141.327 142.543 140.181 142.871 139.021 143.029C138.724 143.072 138.427 143.116 138.144 143.116C137.847 143.159 137.564 143.16 137.253 143.175C136.659 143.19 136.079 143.163 135.47 143.08L135.47 143.151Z" fill="black"/>
<path d="M136.665 146.232C137.726 146.088 138.787 145.803 139.833 145.418C140.837 145.02 141.826 144.522 142.759 143.912C143.677 143.344 144.596 142.705 145.387 141.953C146.177 141.201 146.883 140.351 147.433 139.401L147.376 139.359C146.571 140.083 145.766 140.806 144.933 141.473C144.099 142.14 143.337 142.878 142.447 143.502C141.585 144.113 140.652 144.652 139.677 145.107C138.702 145.562 137.684 145.933 136.637 146.176L136.665 146.232Z" fill="black"/>
<path fill-rule="evenodd" clip-rule="evenodd" d="M137.069 172.329C138.555 171.778 140.041 171.558 141.637 171.833C142.298 171.943 142.958 172.274 143.453 172.824C145.435 174.806 147.031 178.218 145.6 181.686C145.49 181.961 145.435 182.236 145.215 182.456C144.499 183.007 143.674 183.062 142.848 183.172C142.077 183.282 141.252 183.282 140.426 183.227C137.729 182.897 135.252 180.09 135.197 177.393C135.197 176.292 135.307 175.246 135.638 174.255C135.968 173.43 136.353 172.769 137.069 172.329Z" fill="#F36650"/>
<path fill-rule="evenodd" clip-rule="evenodd" d="M137.069 172.329C135.472 174.09 135.142 176.237 135.583 178.438C136.023 180.64 138.5 183.282 141.527 183.062C142.793 182.952 144.059 182.787 145.27 182.401C144.334 184.328 142.793 185.484 140.701 185.814C138.94 186.089 137.234 185.869 135.583 185.208C133.656 184.438 132.885 182.787 132.5 180.915C131.675 177.172 133.876 174.09 136.738 172.439C136.793 172.384 136.959 172.384 137.069 172.329Z" fill="#A74637"/>
<path fill-rule="evenodd" clip-rule="evenodd" d="M136.37 207.06C135.104 206.84 134.316 207.5 132.995 207.06C132.28 206.785 132.06 207.555 131.62 206.895C131.289 206.344 131.289 205.739 131.785 205.243C132.83 204.198 134.151 203.812 135.472 203.537C135.693 203.482 135.803 203.592 135.803 203.757C136.188 205.409 137.564 205.684 138.94 205.849C140.646 206.069 141.747 205.133 142.683 203.922C143.233 203.207 143.343 203.152 144.114 203.537C144.334 203.647 144.554 203.812 144.829 203.922C146.316 204.638 145.82 206.344 144.885 207.06C144.004 207.72 145.212 207.06 141.588 207.06C138.588 206.895 137.966 206.895 136.37 207.06Z" fill="#263238"/>
<path fill-rule="evenodd" clip-rule="evenodd" d="M142.078 191.538C141.912 194.841 142.023 198.088 142.023 201.391C142.023 201.831 141.968 202.326 141.857 202.767C141.527 204.033 140.316 204.968 138.885 204.748C138.665 204.528 138.665 204.253 138.665 204.033C138.61 200.675 138.665 197.318 138.995 193.96C139.05 193.63 139.05 193.3 139.05 192.914C139.05 192.089 138.995 191.318 139.05 190.492C139.105 189.226 139.16 189.171 140.426 189.061C140.812 189.006 141.197 188.896 141.637 188.951C141.912 189.006 142.078 189.061 142.078 189.392C142.078 190.107 142.133 190.823 142.078 191.538Z" fill="#D2E0E1"/>
<path fill-rule="evenodd" clip-rule="evenodd" d="M142.077 191.538C142.077 190.878 142.022 190.272 142.077 189.612C142.077 189.226 141.967 189.061 141.582 189.116C140.977 189.171 140.371 189.226 139.766 189.226C139.49 189.226 139.38 189.336 139.38 189.612C139.38 190.052 139.27 190.547 139.27 190.988C139.38 193.85 138.885 196.657 138.885 199.519C138.885 201.225 138.885 202.987 138.885 204.693C137.454 204.473 136.904 203.867 136.904 202.436C136.959 197.648 137.014 192.914 137.069 188.125C137.069 186.749 137.069 186.749 138.5 186.749C139.545 186.749 140.591 186.749 141.637 186.749C141.857 186.749 142.132 186.694 142.132 187.025C142.077 188.511 142.298 190.052 142.077 191.538Z" fill="#919A9B"/>
<defs>
<linearGradient id="paint0_linear_1_1252" x1="174.345" y1="124.928" x2="158.995" y2="128.926" gradientUnits="userSpaceOnUse">
<stop stop-color="#5683CC"/>
<stop offset="0.15" stop-color="#3E99BA"/>
<stop offset="0.34" stop-color="#25B0A7"/>
<stop offset="0.54" stop-color="#13C09A"/>
<stop offset="0.75" stop-color="#08CA92"/>
<stop offset="1" stop-color="#CCA0FF"/>
</linearGradient>
</defs>
</svg>
