<svg width="25" height="20" viewBox="0 0 25 20" fill="none" xmlns="http://www.w3.org/2000/svg">
<path d="M24.6101 2.36755C23.6885 2.77581 22.711 3.04378 21.7101 3.16257C22.7527 2.53771 23.5532 1.54822 23.9301 0.369245C22.939 0.95737 21.8547 1.37174 20.724 1.59446C19.803 0.61323 18.4908 0 17.0386 0C14.2501 0 11.9894 2.26065 11.9894 5.04888C11.9894 5.44466 12.0341 5.82996 12.1201 6.19959C7.92395 5.98896 4.20362 3.97893 1.7133 0.924219C1.27878 1.66992 1.0298 2.53732 1.0298 3.4625C1.0298 5.21423 1.92124 6.75956 3.27594 7.66504C2.47414 7.63993 1.68999 7.42337 0.988942 7.03345C0.988654 7.05459 0.988654 7.07574 0.988654 7.09699C0.988654 9.54328 2.72904 11.584 5.03872 12.0478C4.29522 12.25 3.51533 12.2796 2.75865 12.1343C3.4011 14.1402 5.26579 15.5999 7.4751 15.6408C5.74712 16.9949 3.57001 17.8021 1.20457 17.8021C0.796965 17.8021 0.395131 17.7782 0.00012207 17.7316C2.23453 19.1641 4.88846 20 7.73976 20C17.0268 20 22.1052 12.3064 22.1052 5.63443C22.1052 5.41544 22.1004 5.1977 22.0906 4.98121C23.0791 4.26664 23.9322 3.38157 24.6101 2.36755" fill="#55ACEE"/>
</svg>
