<svg width="20" height="20" viewBox="0 0 20 20" fill="none" xmlns="http://www.w3.org/2000/svg">
<path d="M18.8962 20C19.5057 20 20 19.5058 20 18.8962V1.10382C20 0.494139 19.5057 0 18.8962 0H1.10395C0.494183 0 0.00012207 0.494139 0.00012207 1.10382V18.8962C0.00012207 19.5058 0.494183 20 1.10395 20H18.8962" fill="#395185"/>
<path d="M13.7998 19.9998V12.2548H16.3995L16.7887 9.23642H13.7998V7.30924C13.7998 6.43534 14.0425 5.83979 15.2957 5.83979L16.894 5.83909V3.13949C16.6175 3.10269 15.6687 3.02051 14.565 3.02051C12.2605 3.02051 10.6828 4.42714 10.6828 7.01041V9.23642H8.07642V12.2548H10.6828V19.9998H13.7998" fill="white"/>
</svg>
