<svg width="20" height="20" viewBox="0 0 20 20" fill="none" xmlns="http://www.w3.org/2000/svg">
<path d="M19.8055 8.04146H19V7.99996H10.0001V11.9999H15.6515C14.827 14.3284 12.6116 15.9999 10.0001 15.9999C6.68659 15.9999 4.0001 13.3134 4.0001 9.99995C4.0001 6.68647 6.68659 3.99998 10.0001 3.99998C11.5296 3.99998 12.9211 4.57698 13.9806 5.51947L16.809 2.69099C15.023 1.02649 12.6341 0 10.0001 0C4.4776 0 0.00012207 4.47748 0.00012207 9.99995C0.00012207 15.5224 4.4776 19.9999 10.0001 19.9999C15.5225 19.9999 20 15.5224 20 9.99995C20 9.32945 19.931 8.67496 19.8055 8.04146Z" fill="#FFC107"/>
<path d="M1.15326 5.34547L4.43874 7.75496C5.32774 5.55397 7.48073 3.99998 10.0002 3.99998C11.5297 3.99998 12.9212 4.57698 13.9807 5.51947L16.8092 2.69099C15.0232 1.02649 12.6342 0 10.0002 0C6.15923 0 2.82825 2.16849 1.15326 5.34547Z" fill="#FF3D00"/>
<path d="M9.99944 19.9999C12.5824 19.9999 14.9294 19.0114 16.7039 17.4039L13.6089 14.785C12.5712 15.5742 11.3032 16.001 9.99944 16C7.39845 16 5.18996 14.3415 4.35797 12.027L1.09698 14.5395C2.75198 17.7779 6.11296 19.9999 9.99944 19.9999Z" fill="#4CAF50"/>
<path d="M19.8056 8.0415H19.0001V8H10.0001V12H15.6516C15.2572 13.1082 14.5468 14.0766 13.6081 14.7855L13.6096 14.7845L16.7046 17.4035C16.4856 17.6025 20.0001 15 20.0001 9.99999C20.0001 9.32949 19.9311 8.675 19.8056 8.0415Z" fill="#1976D2"/>
</svg>
