<svg width="29" height="20" viewBox="0 0 29 20" fill="none" xmlns="http://www.w3.org/2000/svg">
<path d="M27.9273 3.13189C27.7635 2.52654 27.444 1.97467 27.0005 1.53122C26.5571 1.08778 26.0053 0.768231 25.3999 0.604401C23.1838 0 14.2646 0 14.2646 0C14.2646 0 5.34493 0.0182948 3.12879 0.622696C2.52344 0.786535 1.97158 1.1061 1.52815 1.54957C1.08472 1.99303 0.765207 2.54493 0.601421 3.15029C-0.0689086 7.08793 -0.328941 13.088 0.619827 16.8681C0.78363 17.4735 1.10315 18.0253 1.54658 18.4688C1.99001 18.9122 2.54186 19.2318 3.1472 19.3956C5.36334 20 14.2828 20 14.2828 20C14.2828 20 23.2021 20 25.4181 19.3956C26.0235 19.2318 26.5753 18.9122 27.0188 18.4688C27.4622 18.0254 27.7818 17.4735 27.9456 16.8681C28.6526 12.9249 28.8705 6.92863 27.9273 3.132V3.13189Z" fill="#FF0000"/>
<path d="M11.4257 14.2856L18.8249 9.99992L11.4257 5.71423V14.2856Z" fill="white"/>
</svg>
